<svg xmlns="http://www.w3.org/2000/svg" xmlns:xlink="http://www.w3.org/1999/xlink" width="17.654" height="27.489" viewBox="0 0 17.654 27.489">
  <defs>
    <clipPath id="clip-path">
      <rect id="Rectangle_251" data-name="Rectangle 251" width="17.654" height="27.489" fill="none"/>
    </clipPath>
  </defs>
  <g id="Group_357" data-name="Group 357" transform="translate(0)">
    <g id="Group_318" data-name="Group 318" transform="translate(0 0)" clip-path="url(#clip-path)">
      <path id="Path_926" data-name="Path 926" d="M3.1,16.714a2.953,2.953,0,0,1,.276.834l.077.294a2.819,2.819,0,0,1,.085.334c-.02.129.134.227.093.373a1.7,1.7,0,0,0,.1.41,2.719,2.719,0,0,0,.108.447c.12.137-.031.337.113.482a3.048,3.048,0,0,1,.12.515,1.32,1.32,0,0,0,.126.546.866.866,0,0,0,.132.577.63.63,0,0,0,.137.606,3.086,3.086,0,0,0,.142.634,5.622,5.622,0,0,1,.147.66,1.2,1.2,0,0,1,.151.685,1.451,1.451,0,0,1,.155.708c.006.25.171.469.159.731.047.248.122.494.162.75a1.93,1.93,0,0,0,.166.77,3.4,3.4,0,0,1,.168.787,1.731,1.731,0,0,1,.171.8,6.954,6.954,0,0,0,.173.818c.044.278.153.545.175.832a3.156,3.156,0,0,0,.174.832,6.965,6.965,0,0,1,.17.819,4.363,4.363,0,0,0,.166.8,6.061,6.061,0,0,0,.161.789,4.14,4.14,0,0,1,.157.771c.175.228.074.511.153.753a4.793,4.793,0,0,0,.147.732,6.5,6.5,0,0,0,.141.711,4.342,4.342,0,0,1,.137.688.593.593,0,0,1,.053.163l.007.042.005.031a.178.178,0,0,1,0,.041v.037l0,.017,0,.034a.384.384,0,0,0,.049.26,1.059,1.059,0,0,0,.307.413.271.271,0,0,0,.086.107.361.361,0,0,0,.12.054,1.252,1.252,0,0,0,.255.025.442.442,0,0,0,.123,0l.06-.009.058-.015c.039-.007.076-.023.115-.027A.529.529,0,0,1,9,38.369c.036-.016.074-.028.109-.047a.653.653,0,0,0,.105-.057.531.531,0,0,0,.091-.075.378.378,0,0,0,.064-.1.531.531,0,0,1,.076-.085.762.762,0,0,0,.085-.085.239.239,0,0,0,.055-.1.174.174,0,0,0-.019-.121.323.323,0,0,1,.02-.105c0-.018.009-.035.015-.053a.146.146,0,0,0,.013-.036.071.071,0,0,0,0-.021l0-.031a.359.359,0,0,0-.01-.06.256.256,0,0,0-.055-.111c-.111-.139-.055-.307-.081-.452s-.05-.283-.073-.416a9.479,9.479,0,0,1-.251-1.894,12.58,12.58,0,0,1,.631,2.246,1.1,1.1,0,0,1,.107.447,1.089,1.089,0,0,0,.032.116l.019.058.01.03.006.02.007.024.006.024c0,.008,0,.016,0,.024v.047c0,.025,0,.049,0,.073a.631.631,0,0,1-.036.145.409.409,0,0,1,0,.158.528.528,0,0,1-.057.147.879.879,0,0,1-.089.132c-.031.043-.067.082-.1.124a1.056,1.056,0,0,1-.107.12c-.041.035-.081.072-.125.1s-.087.065-.135.094-.094.061-.141.093a.543.543,0,0,1-.155.078.879.879,0,0,1-.173.032l-.088.007H8.664c-.059,0-.118,0-.179.006-.116-.041-.23-.073-.343-.115-.058-.017-.113-.043-.172-.062s-.117-.045-.175-.075c-.087-.1-.176-.181-.264-.277a1.058,1.058,0,0,1-.214-.328c-.013-.139-.03-.265-.052-.4l-.007-.049,0-.025v-.006h0l0,0,0,0a.046.046,0,0,1-.005-.012l-.015-.041c-.02-.054-.041-.108-.061-.162-.077-.219-.083-.456-.151-.685-.033-.236-.119-.465-.155-.708a2.161,2.161,0,0,1-.159-.73,7.3,7.3,0,0,1-.163-.751c-.085-.247-.1-.511-.165-.769a2.93,2.93,0,0,0-.169-.787c-.067-.263-.1-.536-.171-.8a6.35,6.35,0,0,0-.173-.818,1.939,1.939,0,0,0-.175-.832,6.159,6.159,0,0,1-.174-.832c-.066-.273-.119-.547-.17-.819-.083-.265-.075-.546-.166-.8s-.07-.536-.161-.789a2.914,2.914,0,0,1-.157-.771,2.548,2.548,0,0,0-.152-.753c-.069-.244-.221-.467-.147-.732-.081-.234-.041-.489-.142-.711a1.856,1.856,0,0,0-.135-.688,2.659,2.659,0,0,0-.13-.664,4.78,4.78,0,0,1-.124-.638c-.1-.2-.018-.424-.117-.611-.03-.2-.09-.389-.111-.582-.161-.162-.077-.371-.1-.551s-.154-.333-.1-.52c-.127-.148-.081-.326-.089-.487s-.1-.3-.081-.452c-.1-.131-.023-.289-.073-.416a1.563,1.563,0,0,0-.065-.379,1,1,0,0,1-.056-.34l-.047-.3a2.976,2.976,0,0,1-.082-.875" transform="translate(-2.104 -11.379)"/>
      <path id="Path_927" data-name="Path 927" d="M1.352,11.269l.1-.02.015,0,.014,0,.014,0,.013,0,.013,0c.087-.019-.1.02.012,0l.011,0c-.067.014,0,0,.011,0-.08.017-.045.01.011,0-.111.023-.094.019.01,0,0,0-.039.008.009,0l.009,0c.074-.016.071-.015.007,0,.079-.016.048-.01.007,0s.07-.014.006,0h.013c.085-.017.047-.01,0,0,.014,0-.046.01,0,0-.013,0,.037-.008,0,0s-.05.011,0,0-.022,0,0,0c-.079.017.026,0,0,0,.008,0-.046.01,0,0,.014,0,.03-.006,0,0,.122-.026-.031.007-.005,0-.051.011.008,0-.005,0,.022-.005-.056.012-.007,0l-.007,0-.009,0-.009,0-.01,0c-.01,0,.054-.011-.011,0l-.011,0c.014,0-.138.029-.011,0l-.012,0c.078-.016-.01,0-.013,0l-.013,0-.14.03L1.2,11.3s-.071.015-.013,0l-.012,0c-.088.018-.016,0-.011,0l-.011,0c-.051.01.025-.006-.011,0,.054-.011.04-.009-.01,0,.053-.011-.011,0-.009,0,.081-.017.025,0-.008,0l-.008,0H1.1c-.038.008-.052.011-.006,0-.026.005-.005,0-.005,0-.032.007,0,0,0,0s.086-.018,0,0c-.011,0,.014,0,0,0h0c.089-.019.034-.007,0,0s-.013,0,0,0h0c-.026.005.038-.008,0,0s.041-.009,0,0-.039.009,0,0c0,0,.081-.017.005,0-.018,0-.117.025.006,0-.031.006.06-.012.007,0l.008,0c.018,0,.048-.01.008,0s.023,0,.009,0l.01,0,.011,0c-.122.026,0,0,.011,0s-.08.017.011,0c-.092.019-.012,0,.013,0l.013,0,.013,0,.014,0,.015,0,.015,0,.1-.02" transform="translate(-0.707 -7.627)"/>
      <path id="Path_928" data-name="Path 928" d="M.291,5.984l.1-.02.015,0,.014,0,.014,0,.013,0,.013,0,.012,0,.012,0,.011,0,.011,0,.01,0H.523l.009,0,.007,0H.552l.005,0h0l0,0H.539l-.008,0-.009,0-.009,0-.01,0-.01,0-.011,0-.012,0-.012,0-.012,0-.014,0-.14.03-.153.032-.013,0-.012,0-.012,0-.011,0-.011,0-.01,0-.009,0-.008,0-.007,0H.038l-.006,0H.014c.089-.019.034-.007,0,0s-.012,0,0,0H.031l.006,0H.044l.007,0,.009,0,.009,0,.01,0,.011,0,.011,0,.012,0,.012,0,.013,0,.013,0,.014,0,.014,0L.194,6l.1-.02" transform="translate(0 -4.033)"/>
      <path id="Path_929" data-name="Path 929" d="M6.485,19.756a2.07,2.07,0,0,1-.244-.685c-.021-.075-.042-.156-.066-.242a1.934,1.934,0,0,1-.072-.275c.025-.108-.125-.185-.079-.308a1.147,1.147,0,0,0-.085-.339,1.9,1.9,0,0,0-.091-.368c-.115-.11.042-.282-.1-.4a2.111,2.111,0,0,1-.1-.425c.036-.161-.062-.3-.106-.451a.6.6,0,0,0-.111-.477.444.444,0,0,0-.115-.5,2.11,2.11,0,0,0-.119-.523,3.746,3.746,0,0,1-.122-.545.825.825,0,0,1-.127-.565,1,1,0,0,1-.129-.585c0-.208-.153-.385-.132-.6-.038-.2-.1-.407-.136-.619a1.324,1.324,0,0,0-.137-.636,2.311,2.311,0,0,1-.14-.651A1.186,1.186,0,0,1,4.135,9.9a4.7,4.7,0,0,0-.143-.676,6.971,6.971,0,0,1-.145-.687A2.157,2.157,0,0,0,3.7,7.847a4.753,4.753,0,0,1-.14-.677c.032-.24-.119-.439-.137-.664a4.124,4.124,0,0,0-.133-.652,2.858,2.858,0,0,1-.128-.638C3,5.033,3.109,4.794,3.041,4.6A3.308,3.308,0,0,0,2.92,3.99,4.378,4.378,0,0,0,2.8,3.4a3.022,3.022,0,0,1-.111-.568c-.1-.173-.026-.379-.106-.549-.038-.179-.078-.353-.1-.527a.421.421,0,0,0-.01-.263c-.007-.02-.014-.04-.022-.06L2.443,1.4a.216.216,0,0,1-.013-.051l0-.028,0-.013-.006-.026c0-.017-.005-.034-.01-.051a.5.5,0,0,0-.06-.191c-.014-.03-.026-.06-.038-.089A.251.251,0,0,1,2.3.9.307.307,0,0,1,2.287.853L2.265.809,2.241.767A.55.55,0,0,0,2.188.683.336.336,0,0,0,2.121.612.248.248,0,0,0,2.036.565C1.982.535,1.947.473,1.9.428A.17.17,0,0,0,1.814.38a.125.125,0,0,0-.1.022A.171.171,0,0,1,1.667.393.238.238,0,0,1,1.625.38.907.907,0,0,0,1.54.344a.157.157,0,0,0-.173.02.17.17,0,0,1-.076.044.256.256,0,0,1-.079.012c-.028,0-.055,0-.083,0l-.041,0a.262.262,0,0,0-.038.013A1.281,1.281,0,0,0,.912.51,1.229,1.229,0,0,0,.791.6a1.046,1.046,0,0,0-.329.488.935.935,0,0,0-.033.124.327.327,0,0,0-.01.06c0,.018-.005.036-.007.054a.135.135,0,0,0,0,.045c0,.019.005.039.007.056.005.038.009.073.013.106.031.268.036.413.011.419S.353,1.79.26,1.474L.241,1.412.231,1.373c0-.006,0-.014-.005-.021V1.331c0-.026,0-.054,0-.081a.631.631,0,0,1,0-.081A1.178,1.178,0,0,1,.312.817,1.269,1.269,0,0,1,.917.157L.963.131,1.009.105a.79.79,0,0,1,.1-.052A.465.465,0,0,1,1.215.021.329.329,0,0,1,1.33.027C1.405.021,1.482,0,1.562,0a.449.449,0,0,1,.12.007c.02,0,.04.008.06.013A.415.415,0,0,1,1.8.047a.261.261,0,0,1,.132,0,.378.378,0,0,1,.121.048A1.889,1.889,0,0,1,2.264.25a.714.714,0,0,1,.1.084,1.163,1.163,0,0,1,.093.1c.03.034.06.068.088.1l.046.052L2.639.64a.39.39,0,0,1,.049.054.573.573,0,0,1,.035.063.627.627,0,0,1,.049.137c.025.095.035.191.066.287,0,.025-.008.051-.011.076l0,.037,0,.019,0,0a.021.021,0,0,0,0,.012c0,.007,0,.02,0,.03s.008.042.013.063a1.055,1.055,0,0,0,.1.245,1.857,1.857,0,0,0,.119.523.913.913,0,0,0,.123.544c.068.18.066.378.126.566.025.2.1.383.13.585a1.483,1.483,0,0,1,.133.6,5.051,5.051,0,0,1,.135.62,5.794,5.794,0,0,1,.137.635c.062.211,0,.45.14.65.058.217.078.444.141.664a4.347,4.347,0,0,0,.143.676,1.328,1.328,0,0,0,.144.687,4.175,4.175,0,0,1,.143.687c.056.225.1.452.14.676.073.219.055.453.136.665s.051.444.133.651a2,2,0,0,1,.129.637,1.763,1.763,0,0,0,.125.622c.06.2.2.381.12.605.072.192.023.406.116.588-.05.211.075.382.111.568a1.793,1.793,0,0,0,.106.549,3.3,3.3,0,0,1,.1.527c.087.161,0,.353.1.5.022.166.076.321.09.481.154.13.064.307.084.456s.141.272.078.43c.121.118.069.269.071.4s.092.244.065.374c.089.105.013.24.058.344-.02.118.042.213.05.313a.691.691,0,0,1,.044.281l.036.249a2.047,2.047,0,0,1,.051.726" transform="translate(-0.153 0)"/>
      <path id="Path_930" data-name="Path 930" d="M20.261,67.062l-.1.02-.015,0-.014,0-.014,0-.013,0-.014,0c-.087.019.1-.02-.011,0l-.012,0c.067-.014,0,0-.011,0l-.011,0c.11-.024.094-.02-.01,0,0,0,.039-.009-.01,0l-.009,0c-.073.015-.07.015-.008,0-.079.017-.047.01-.007,0h-.021c-.014,0,.046-.01,0,0,.013,0-.037.008,0,0s.05-.011,0,0,.022,0,0,0c.079-.017-.026.005,0,0-.007,0,.046-.01,0,0-.014,0-.03.006,0,0-.121.026.032-.007.005,0h.006c-.023,0,.056-.012.007,0,.011,0-.039.008.008,0-.06.013.051-.01.009,0l.01,0c.094-.02.016,0,.01,0,.01,0-.054.011.011,0,.008,0,.049-.01.011,0-.014,0,.138-.029.011,0-.023,0,.1-.02.012,0s.01,0,.013,0l.013,0,.14-.029.154-.032.013,0,.012,0c.088-.018.017,0,.011,0l.011,0,.011,0c-.055.012-.04.009.01,0l.009,0c-.081.017-.024.005.009,0l.008,0h.007c.038-.008.052-.011.005,0h.006c.032-.007,0,0,0,0s-.086.018,0,0c.011,0-.014,0,0,0-.011,0-.023.005,0,0-.088.019-.034.007,0,0s.013,0,0,0h0c.026-.005-.038.008,0,0s-.041.009,0,0,.039-.008,0,0c0,0-.081.017-.006,0,.018,0,.118-.025-.005,0,.031-.006-.06.012-.007,0-.09.019,0,0-.008,0l-.009,0c.043-.01-.023,0-.009,0,.052-.011-.068.014-.01,0l-.01,0c.121-.026,0,0-.011,0l-.012,0c.092-.019.012,0-.012,0l-.013,0-.013,0-.014,0-.014,0-.015,0-.1.02" transform="translate(-13.574 -45.614)"/>
      <path id="Path_931" data-name="Path 931" d="M21.439,72.372l-.1.02-.015,0-.014,0-.014,0-.013,0-.013,0-.013,0-.011,0-.011,0-.01,0-.01,0-.009,0-.008,0h-.008l-.007,0h-.023c.013,0-.037.007,0,0s.05-.011,0,0h.023l.007,0,.007,0,.008,0,.009,0,.009,0,.011,0,.011,0,.012,0,.012,0,.012,0,.014,0,.14-.03.153-.032.013,0,.012,0,.012,0,.011,0,.011,0,.01,0,.009,0,.009,0,.007,0,.007,0h.023c-.088.019-.034.007,0,0s.013,0,0,0H21.7l-.005,0h-.006l-.007,0-.007,0-.008,0-.009,0-.01,0-.011,0-.01,0-.013,0-.012,0-.013,0-.014,0-.014,0-.014,0-.015,0-.1.02" transform="translate(-14.399 -49.233)"/>
      <path id="Path_932" data-name="Path 932" d="M33.8,16.714a2.973,2.973,0,0,1,.275.834l.077.294a2.819,2.819,0,0,1,.085.334c-.02.129.134.227.092.373a1.714,1.714,0,0,0,.1.41,2.749,2.749,0,0,0,.107.447c.12.137-.031.337.114.482a3.079,3.079,0,0,1,.12.515,1.316,1.316,0,0,0,.126.546.867.867,0,0,0,.131.577.632.632,0,0,0,.138.606,3.086,3.086,0,0,0,.142.634,5.558,5.558,0,0,1,.147.66,1.2,1.2,0,0,1,.151.685,1.441,1.441,0,0,1,.155.708c.006.25.171.469.16.731.047.248.122.494.162.75a1.935,1.935,0,0,0,.166.77,3.429,3.429,0,0,1,.169.787,1.735,1.735,0,0,1,.171.8,6.889,6.889,0,0,0,.173.818c.045.278.153.545.175.832a3.13,3.13,0,0,0,.174.832,6.964,6.964,0,0,1,.17.819,4.363,4.363,0,0,0,.166.8,6.117,6.117,0,0,0,.162.789,4.166,4.166,0,0,1,.157.771c.175.228.074.511.152.753a4.87,4.87,0,0,0,.147.732,6.5,6.5,0,0,0,.142.711,4.413,4.413,0,0,1,.136.688.6.6,0,0,1,.053.163l.007.042.005.031a.2.2,0,0,1,0,.041v.037l0,.017,0,.034a.386.386,0,0,0,.049.26,1.056,1.056,0,0,0,.307.413.272.272,0,0,0,.086.107.358.358,0,0,0,.12.054,1.262,1.262,0,0,0,.255.025.442.442,0,0,0,.123,0l.06-.009.058-.015c.039-.007.075-.023.114-.027a.532.532,0,0,1,.12-.015c.036-.016.074-.028.109-.047a.65.65,0,0,0,.1-.057A.543.543,0,0,0,40,38.191a.363.363,0,0,0,.064-.1.561.561,0,0,1,.076-.085.764.764,0,0,0,.085-.085.244.244,0,0,0,.055-.1.176.176,0,0,0-.02-.121.331.331,0,0,1,.02-.105c0-.018.009-.035.015-.053a.136.136,0,0,0,.013-.036.073.073,0,0,0,0-.021l0-.031a.393.393,0,0,0-.009-.06.263.263,0,0,0-.055-.111c-.111-.139-.055-.307-.081-.452s-.05-.283-.073-.416a9.419,9.419,0,0,1-.251-1.894,12.586,12.586,0,0,1,.63,2.246,1.109,1.109,0,0,1,.107.447,1.087,1.087,0,0,0,.032.116c.006.019.012.039.019.058l.01.03.006.02.007.024.006.024c0,.008,0,.016,0,.024v.047c0,.025,0,.049,0,.073a.615.615,0,0,1-.036.145.409.409,0,0,1,0,.158.528.528,0,0,1-.057.147.879.879,0,0,1-.089.132c-.031.043-.068.082-.1.124a1.056,1.056,0,0,1-.107.12c-.041.035-.08.072-.125.1s-.088.065-.135.094-.093.061-.141.093a.535.535,0,0,1-.155.078.875.875,0,0,1-.173.032l-.088.007h-.089c-.059,0-.118,0-.179.006-.116-.041-.23-.073-.343-.115-.058-.017-.113-.043-.172-.062s-.117-.045-.174-.075c-.087-.1-.177-.181-.264-.277a1.052,1.052,0,0,1-.214-.328c-.013-.139-.031-.265-.052-.4l-.006-.049,0-.025v-.006h0l0,0,0,0a.042.042,0,0,1-.006-.012l-.015-.041-.062-.162c-.077-.219-.083-.456-.151-.685-.033-.236-.119-.465-.155-.708a2.161,2.161,0,0,1-.159-.73,7.3,7.3,0,0,1-.162-.751c-.086-.247-.1-.511-.166-.769a2.918,2.918,0,0,0-.169-.787c-.067-.263-.1-.536-.17-.8a6.407,6.407,0,0,0-.173-.818,1.944,1.944,0,0,0-.175-.832A6.208,6.208,0,0,1,36.2,29.6c-.066-.273-.119-.547-.17-.819-.083-.265-.075-.546-.166-.8s-.07-.536-.162-.789a2.913,2.913,0,0,1-.157-.771,2.558,2.558,0,0,0-.152-.753c-.069-.244-.22-.467-.147-.732-.081-.234-.041-.489-.142-.711a1.857,1.857,0,0,0-.136-.688,2.617,2.617,0,0,0-.13-.664,4.829,4.829,0,0,1-.124-.638c-.1-.2-.018-.424-.117-.611-.03-.2-.09-.389-.111-.582-.161-.162-.077-.371-.1-.551s-.154-.333-.1-.52c-.127-.148-.081-.326-.089-.487s-.1-.3-.081-.452c-.1-.131-.023-.289-.073-.416a1.563,1.563,0,0,0-.065-.379,1.019,1.019,0,0,1-.056-.34c-.016-.107-.032-.207-.047-.3a2.967,2.967,0,0,1-.082-.875" transform="translate(-23.001 -11.379)"/>
      <path id="Path_933" data-name="Path 933" d="M32.045,11.269l.1-.02.015,0,.015,0,.013,0,.013,0,.013,0c.087-.019-.1.02.012,0l.012,0c-.067.014,0,0,.011,0-.08.017-.045.01.011,0-.111.023-.093.019.01,0,0,0-.039.008.009,0l.008,0c.074-.016.071-.015.008,0,.079-.016.048-.01.007,0s.07-.014.006,0h.013c.084-.017.047-.01,0,0,.014,0-.046.01,0,0-.013,0,.037-.008,0,0s-.05.011,0,0-.022,0,0,0c-.079.017.026,0,0,0,.008,0-.046.01,0,0,.014,0,.03-.006,0,0,.122-.026-.031.007-.005,0-.051.011.008,0-.006,0,.023-.005-.056.012-.007,0l-.007,0c.06-.012-.051.011-.008,0l-.009,0-.01,0c-.011,0,.054-.011-.011,0l-.011,0c.014,0-.138.029-.011,0l-.012,0c.078-.016-.01,0-.013,0l-.013,0-.14.03-.154.032s-.071.015-.013,0l-.013,0c-.088.018-.016,0-.011,0l-.011,0c-.051.01.025-.006-.011,0,.054-.011.04-.009-.01,0,.053-.011-.011,0-.009,0,.082-.017.025,0-.008,0l-.008,0h-.007c-.038.008-.052.011-.006,0-.026.005-.005,0-.005,0-.032.007,0,0,0,0h0c-.011,0,.014,0,0,0h0c.089-.019.034-.007,0,0s-.013,0,0,0h0c-.026.005.038-.008,0,0s.041-.009,0,0-.04.009,0,0c0,0,.081-.017.005,0h.006c-.031.006.059-.012.007,0l.008,0c.018,0,.048-.01.008,0s.024,0,.009,0l.01,0,.011,0c-.122.026,0,0,.011,0s-.081.017.011,0c-.092.019-.012,0,.012,0l.013,0,.013,0,.014,0,.015,0,.015,0,.1-.02" transform="translate(-21.604 -7.627)"/>
      <path id="Path_934" data-name="Path 934" d="M30.984,5.984l.1-.02.015,0,.014,0,.013,0,.013,0,.013,0,.012,0,.012,0,.011,0,.011,0,.01,0h.009l.008,0,.008,0h.013l.005,0h.012c-.013,0,.037-.008,0,0s-.05.011,0,0h-.007l0,0h-.018l-.008,0-.008,0-.009,0-.01,0-.011,0-.011,0-.011,0-.012,0-.013,0-.014,0-.139.03-.154.032-.013,0-.012,0-.011,0-.011,0-.011,0-.01,0h-.009l-.009,0-.007,0H30.73l-.006,0h-.017c.089-.019.034-.007,0,0s-.013,0,0,0h.017l.006,0h.007l.007,0,.009,0,.009,0,.01,0,.011,0,.01,0,.012,0,.012,0,.013,0,.013,0,.014,0,.014,0,.015,0,.1-.02" transform="translate(-20.896 -4.033)"/>
      <path id="Path_935" data-name="Path 935" d="M37.178,19.756a2.061,2.061,0,0,1-.244-.685l-.066-.242a1.976,1.976,0,0,1-.073-.275c.024-.108-.126-.185-.079-.308a1.178,1.178,0,0,0-.085-.339,1.857,1.857,0,0,0-.091-.368c-.114-.11.042-.282-.1-.4a2.112,2.112,0,0,1-.1-.425c.035-.161-.062-.3-.106-.451a.6.6,0,0,0-.111-.477.445.445,0,0,0-.115-.5,2.124,2.124,0,0,0-.119-.523,3.832,3.832,0,0,1-.123-.545.83.83,0,0,1-.127-.565,1,1,0,0,1-.129-.585c0-.208-.153-.385-.132-.6-.038-.2-.1-.407-.135-.619a1.324,1.324,0,0,0-.137-.636,2.3,2.3,0,0,1-.14-.651,1.186,1.186,0,0,1-.142-.664,4.694,4.694,0,0,0-.143-.676,6.88,6.88,0,0,1-.144-.687,2.157,2.157,0,0,0-.143-.687,4.666,4.666,0,0,1-.14-.677c.032-.24-.119-.439-.137-.664a4.159,4.159,0,0,0-.133-.652,2.842,2.842,0,0,1-.129-.638c-.165-.184-.056-.423-.125-.622a3.306,3.306,0,0,0-.12-.605A4.48,4.48,0,0,0,33.5,3.4a3.021,3.021,0,0,1-.111-.568c-.1-.173-.027-.379-.107-.549-.037-.179-.078-.353-.1-.527a.423.423,0,0,0-.01-.263c-.007-.02-.014-.04-.021-.06L33.135,1.4a.233.233,0,0,1-.013-.051l0-.028,0-.013-.006-.026c0-.017-.005-.034-.009-.051a.512.512,0,0,0-.06-.191c-.015-.03-.026-.06-.039-.089A.251.251,0,0,1,32.989.9.308.308,0,0,1,32.98.853L32.958.809,32.933.767A.549.549,0,0,0,32.88.683a.33.33,0,0,0-.067-.071.246.246,0,0,0-.084-.047c-.054-.03-.089-.092-.139-.138A.17.17,0,0,0,32.506.38.125.125,0,0,0,32.4.4.173.173,0,0,1,32.36.393.239.239,0,0,1,32.318.38a.874.874,0,0,0-.086-.035.158.158,0,0,0-.173.02.167.167,0,0,1-.076.044A.253.253,0,0,1,31.9.421c-.027,0-.054,0-.082,0l-.041,0a.275.275,0,0,0-.038.013A1.276,1.276,0,0,0,31.6.51,1.125,1.125,0,0,0,31.484.6a1.042,1.042,0,0,0-.329.488.891.891,0,0,0-.033.124.393.393,0,0,0-.01.06c0,.018-.005.036-.007.054a.127.127,0,0,0,0,.045c0,.019,0,.039.007.056,0,.038.009.073.013.106.031.268.036.413.011.419s-.092-.162-.185-.478l-.018-.062-.011-.039a.145.145,0,0,1-.005-.021V1.331c0-.026,0-.054,0-.081a.578.578,0,0,1,0-.081A1.176,1.176,0,0,1,31,.817a1.273,1.273,0,0,1,.605-.66l.046-.027L31.7.105a.834.834,0,0,1,.1-.052.465.465,0,0,1,.108-.033.332.332,0,0,1,.116.006C32.1.021,32.174,0,32.255,0a.452.452,0,0,1,.121.007c.02,0,.04.008.06.013a.378.378,0,0,1,.057.025.263.263,0,0,1,.132,0,.387.387,0,0,1,.121.048,1.981,1.981,0,0,1,.212.158.711.711,0,0,1,.1.084,1.159,1.159,0,0,1,.093.1c.03.034.06.068.088.1.015.018.03.035.046.052l.046.054a.461.461,0,0,1,.049.054.634.634,0,0,1,.035.063.61.61,0,0,1,.048.137c.025.095.035.191.066.287,0,.025-.008.051-.011.076l0,.037,0,.019,0,0s0,.007,0,.012,0,.02,0,.03.008.042.013.063a1.085,1.085,0,0,0,.1.245,1.88,1.88,0,0,0,.119.523.913.913,0,0,0,.123.544c.068.18.066.378.126.566.025.2.1.383.129.585a1.472,1.472,0,0,1,.132.6,4.938,4.938,0,0,1,.136.62,5.579,5.579,0,0,1,.137.635c.062.211,0,.45.14.65.057.217.078.444.141.664a4.311,4.311,0,0,0,.143.676,1.331,1.331,0,0,0,.144.687,4.175,4.175,0,0,1,.143.687c.056.225.1.452.14.676.073.219.055.453.137.665s.05.444.132.651a1.989,1.989,0,0,1,.129.637,1.756,1.756,0,0,0,.125.622c.06.2.2.381.12.605.073.192.023.406.116.588-.049.211.075.382.111.568a1.831,1.831,0,0,0,.106.549,3.227,3.227,0,0,1,.1.527c.087.161,0,.353.1.5.022.166.076.321.089.481.154.13.064.307.084.456s.141.272.078.43c.121.118.069.269.071.4s.092.244.065.374c.089.105.012.24.058.344-.02.118.042.213.051.313a.7.7,0,0,1,.044.281l.036.249a2.05,2.05,0,0,1,.051.726" transform="translate(-21.05 0)"/>
      <path id="Path_936" data-name="Path 936" d="M50.954,67.062l-.1.02-.015,0-.014,0-.014,0-.013,0-.013,0-.012,0-.012,0c.067-.014,0,0-.011,0l-.011,0c.11-.024.093-.02-.01,0,0,0,.039-.009-.009,0l-.008,0c-.074.015-.071.015-.008,0-.079.017-.048.01-.007,0h-.019c-.085.017-.047.01,0,0-.014,0,.046-.01,0,0,.013,0-.037.008,0,0s.05-.011,0,0h0c.079-.017-.026.005,0,0h0c-.014,0-.03.006,0,0-.122.026.032-.007.005,0H50.7l.007,0c.01,0-.039.008.007,0-.06.013.051-.01.008,0l.009,0c.1-.02.016,0,.01,0,.01,0-.054.011.011,0,.008,0,.049-.01.011,0-.014,0,.138-.029.011,0-.022,0,.1-.02.012,0s.01,0,.013,0l.013,0,.14-.029.154-.032.013,0,.013,0c.088-.018.016,0,.011,0l.011,0,.011,0,.01,0,.009,0c-.082.017-.024.005.009,0l.007,0h.007c.038-.008.053-.011.006,0h.005c.032-.007,0,0,0,0s-.086.018,0,0c.011,0-.014,0,0,0-.011,0-.023.005,0,0-.089.019-.034.007,0,0s.013,0,0,0h0c.026-.005-.038.008,0,0s-.04.009,0,0,.04-.008,0,0c0,0-.081.017-.005,0,.017,0,.117-.025-.006,0,.031-.006-.059.012-.007,0-.09.019,0,0-.007,0l-.009,0c.043-.01-.024,0-.009,0l-.01,0-.011,0c.122-.026,0,0-.011,0l-.011,0c.092-.019.012,0-.012,0l-.013,0-.013,0-.014,0-.014,0-.015,0-.1.02" transform="translate(-34.472 -45.614)"/>
      <path id="Path_937" data-name="Path 937" d="M52.132,72.372l-.1.02-.015,0-.014,0-.014,0-.014,0-.012,0-.012,0-.012,0-.011,0-.01,0-.01,0-.009,0-.008,0h-.008l-.007,0h-.023c.013,0-.037.007,0,0s.05-.011,0,0h.023l.007,0,.008,0,.008,0,.009,0,.009,0,.011,0,.011,0,.011,0,.013,0,.012,0,.014,0,.14-.03.153-.032.013,0,.013,0,.011,0,.012,0,.011,0,.01,0,.009,0,.009,0,.007,0,.007,0h.023c-.089.019-.034.007,0,0s.013,0,0,0H52.4l-.005,0h-.006l-.007,0-.007,0-.009,0-.009,0-.01,0-.011,0-.011,0-.011,0-.012,0-.013,0-.013,0-.014,0-.014,0-.015,0-.1.02" transform="translate(-35.295 -49.233)"/>
      <path id="Path_938" data-name="Path 938" d="M18.28,16.01c-.006.034-.087.054-.232.061l-.078,0a.185.185,0,0,1-.088,0c-.022-.05-.076.074-.1,0-.03-.026-.068-.013-.107,0s-.07-.041-.116-.006c-.054.081-.064-.111-.125-.008a.2.2,0,0,1-.133-.01c-.034-.075-.091-.016-.141-.012-.034-.089-.088-.062-.148-.014-.032-.12-.086-.111-.156-.016-.053-.005-.1-.057-.162-.017a.366.366,0,0,1-.169-.02.1.1,0,0,1-.175-.021c-.072.07-.127.028-.181-.023s-.134.049-.186-.025a1.453,1.453,0,0,1-.191-.027c-.059-.043-.118-.091-.2-.028a.225.225,0,0,1-.2-.03c-.081.073-.143.025-.2-.032-.071,0-.13-.069-.207-.033-.067-.025-.146.014-.211-.034a.213.213,0,0,0-.211-.036c-.079.043-.135-.046-.207-.036-.055-.091-.14,0-.2-.037-.068,0-.126-.068-.2-.036a.271.271,0,0,1-.194-.037c-.085.112-.122-.053-.19-.037-.054-.063-.125-.013-.184-.037-.064.013-.111-.076-.178-.037-.058-.02-.124.02-.173-.036-.067.051-.1-.071-.166-.037a.66.66,0,0,1-.159-.036c-.037-.1-.1-.034-.152-.036-.049-.018-.109.038-.145-.034-.046-.016-.086-.066-.137-.035-.048.007-.065-.154-.129-.033-.046.015-.067-.112-.12-.033s-.076-.022-.112-.032l-.1-.031c-.293-.092-.457-.168-.448-.219s.231-.076.6-.058c.037,0,.086-.059.116.006.039.007.089-.038.125.008.057-.082.089,0,.133.01s.087.04.141.012c.056-.043.092.041.148.014.041.063.1.057.156.016.044.062.108.007.162.018.041.091.107.043.169.019s.113.031.175.022c.056.025.123,0,.181.023a.151.151,0,0,1,.186.025.462.462,0,0,1,.191.026c.07-.022.129.026.2.028s.118.109.2.03c.069,0,.133.036.2.031a.408.408,0,0,0,.208.033c.055.1.134.057.21.034a.389.389,0,0,1,.211.036.936.936,0,0,1,.207.036c.073-.015.13.061.2.036s.127.063.2.037a.2.2,0,0,1,.194.037c.065.011.114.1.19.037.065-.007.144-.1.184.036.066-.021.111.08.179.037.043.1.116.024.173.037s.1.067.166.036.1.042.159.036c.062-.044.093.085.153.035.048.02.1.009.145.035.068-.115.094.016.137.034s.1-.066.129.034c.057-.086.085,0,.121.033s.084-.027.111.032c.048-.059.065.048.1.031.026.049.064.013.093.031a.072.072,0,0,1,.083.029l.073.027c.135.053.206.1.2.134" transform="translate(-7.738 -10.059)"/>
      <path id="Path_939" data-name="Path 939" d="M21.891,32.258c-.006.034-.087.055-.233.061l-.078,0a.19.19,0,0,1-.088,0c-.022-.05-.076.074-.1,0-.03-.025-.068-.012-.107,0s-.07-.041-.116-.006c-.054.082-.064-.111-.125-.008a.206.206,0,0,1-.133-.01c-.034-.075-.092-.016-.141-.012-.034-.089-.089-.062-.148-.014-.032-.12-.086-.111-.156-.016-.053-.005-.1-.057-.162-.017a.365.365,0,0,1-.169-.019.1.1,0,0,1-.175-.021c-.072.07-.127.028-.181-.023s-.134.049-.186-.025a1.525,1.525,0,0,1-.191-.026c-.059-.044-.118-.092-.2-.028a.227.227,0,0,1-.2-.03c-.081.073-.143.025-.2-.032-.071,0-.13-.069-.208-.033-.068-.025-.146.014-.21-.035a.214.214,0,0,0-.211-.035c-.079.043-.135-.046-.207-.036-.055-.092-.14,0-.2-.037-.069,0-.126-.068-.2-.036a.269.269,0,0,1-.194-.037c-.085.112-.123-.053-.19-.036-.054-.063-.125-.013-.184-.037-.065.012-.111-.077-.179-.037-.057-.02-.123.02-.173-.036-.067.051-.1-.071-.166-.036a.723.723,0,0,1-.16-.036c-.036-.1-.1-.034-.152-.036-.048-.018-.108.038-.145-.035-.047-.016-.086-.065-.137-.035-.048.007-.066-.154-.129-.033-.046.016-.067-.112-.12-.033s-.076-.023-.112-.032l-.1-.031c-.293-.091-.457-.168-.448-.219s.231-.075.6-.059c.037,0,.086-.059.116.006.039.007.089-.038.124.008.057-.082.089,0,.133.01s.087.04.141.012c.056-.043.092.042.148.014.041.064.1.057.155.016.043.062.108.006.162.018.041.091.107.043.169.019s.112.032.175.022c.057.026.123,0,.181.023a.151.151,0,0,1,.186.025.465.465,0,0,1,.191.026c.07-.022.129.026.2.028s.117.109.2.03c.069,0,.133.036.2.031a.4.4,0,0,0,.207.033c.055.1.134.057.211.035a.391.391,0,0,1,.211.035.958.958,0,0,1,.207.036c.073-.015.13.061.2.036s.127.063.2.037a.2.2,0,0,1,.194.037c.064.011.114.1.19.037.065-.007.144-.1.184.037.066-.021.111.08.179.037.043.1.116.024.172.037s.1.067.166.036.1.042.159.036c.061-.043.092.086.152.036.048.02.1.008.145.035.068-.115.094.016.137.034s.1-.067.129.034c.058-.086.085,0,.12.033s.084-.026.112.032c.047-.059.065.048.1.031.026.049.065.014.093.03a.073.073,0,0,1,.083.029l.073.027c.135.054.206.1.2.134" transform="translate(-10.196 -21.122)"/>
      <path id="Path_940" data-name="Path 940" d="M24.272,48.506c-.005.034-.093.055-.249.061l-.084,0a.216.216,0,0,1-.095,0c-.026-.05-.08.074-.105,0-.033-.026-.073-.013-.116,0s-.076-.041-.125-.006c-.056.082-.071-.111-.135-.008a.241.241,0,0,1-.144-.01c-.038-.075-.1-.016-.152-.012-.039-.089-.1-.062-.161-.014-.037-.12-.1-.111-.168-.015-.057-.005-.109-.057-.176-.018a.418.418,0,0,1-.183-.019.113.113,0,0,1-.19-.021c-.076.071-.136.029-.2-.023s-.143.049-.2-.025a1.725,1.725,0,0,1-.207-.026c-.064-.044-.129-.092-.212-.028a.263.263,0,0,1-.217-.03c-.086.074-.154.025-.221-.031-.076,0-.142-.07-.225-.033-.073-.025-.157.014-.229-.035a.245.245,0,0,0-.228-.035c-.084.043-.147-.046-.224-.036-.062-.091-.152,0-.22-.036-.074,0-.138-.068-.215-.037a.317.317,0,0,1-.211-.037c-.089.112-.133-.053-.206-.037-.06-.063-.136-.013-.2-.037-.069.013-.122-.077-.193-.037-.063-.02-.133.02-.187-.037-.071.051-.115-.07-.18-.036a.836.836,0,0,1-.173-.036c-.042-.1-.11-.034-.165-.036-.053-.019-.116.038-.157-.035-.05-.016-.094-.065-.149-.035-.051.007-.075-.154-.14-.034-.049.016-.075-.112-.131-.033s-.082-.022-.122-.032l-.111-.031c-.319-.092-.5-.169-.49-.22s.247-.075.649-.059c.04,0,.092-.059.125.006.043.006.1-.038.135.008.059-.082.1,0,.144.01s.1.04.153.012c.059-.044.1.041.16.014.046.063.1.057.169.016.049.062.117.006.175.018.047.091.116.043.183.019s.123.031.189.021c.061.026.132,0,.2.023a.176.176,0,0,1,.2.025.544.544,0,0,1,.207.027c.074-.022.139.026.212.028s.13.109.217.03c.074,0,.144.036.221.031a.472.472,0,0,0,.225.033c.062.1.146.058.228.034a.46.46,0,0,1,.228.036,1.138,1.138,0,0,1,.224.036c.079-.015.142.061.22.036s.139.063.215.037a.228.228,0,0,1,.211.037c.07.011.126.1.206.037.07-.007.153-.1.2.037.071-.021.121.08.193.037.05.1.126.024.187.037s.115.067.181.036.113.042.173.036c.064-.043.1.086.165.036.052.02.109.009.157.035.071-.115.1.017.149.034s.109-.067.14.034c.06-.086.092,0,.131.033s.09-.026.121.032c.049-.059.072.048.111.031.03.049.07.013.1.03a.083.083,0,0,1,.09.029l.079.027c.147.054.225.1.219.134" transform="translate(-11.425 -32.184)"/>
      <path id="Path_941" data-name="Path 941" d="M27.883,64.755c-.005.034-.093.055-.249.062l-.084,0a.221.221,0,0,1-.095,0c-.026-.05-.08.073-.105,0-.033-.026-.074-.013-.116,0s-.076-.042-.125-.006c-.056.082-.072-.111-.135-.008a.236.236,0,0,1-.144-.01c-.038-.075-.1-.016-.152-.012-.039-.089-.1-.062-.161-.014-.037-.119-.1-.111-.169-.015-.057-.005-.109-.057-.176-.018a.411.411,0,0,1-.183-.019.112.112,0,0,1-.189-.021c-.077.07-.137.029-.2-.023s-.143.05-.2-.025a1.658,1.658,0,0,1-.207-.027c-.064-.043-.129-.091-.212-.028a.262.262,0,0,1-.216-.03c-.086.074-.154.025-.221-.031-.076,0-.142-.069-.225-.033-.073-.025-.157.014-.228-.035a.248.248,0,0,0-.228-.036c-.084.043-.146-.046-.224-.036-.062-.092-.152,0-.22-.037-.074,0-.138-.068-.215-.037A.313.313,0,0,1,23,64.277c-.088.112-.133-.053-.205-.037-.06-.063-.136-.013-.2-.037-.07.013-.122-.077-.193-.037-.063-.02-.133.02-.187-.037-.071.051-.115-.07-.18-.036a.8.8,0,0,1-.173-.036c-.042-.1-.11-.034-.166-.035-.053-.019-.115.038-.157-.035-.051-.016-.094-.066-.149-.034-.051.007-.075-.154-.14-.034-.049.016-.075-.112-.131-.033s-.082-.022-.122-.031l-.111-.032c-.319-.091-.5-.168-.49-.22s.247-.075.649-.059c.04,0,.092-.059.125.006.043.007.095-.038.135.008.059-.082.1,0,.144.01s.1.04.153.012c.059-.043.1.042.16.014.046.064.1.057.169.016.049.062.117.006.176.018.047.091.116.043.183.019s.123.032.19.022c.061.026.132,0,.2.023a.175.175,0,0,1,.2.025.545.545,0,0,1,.207.026c.075-.022.139.026.212.028s.13.109.217.03c.074,0,.144.037.221.032a.475.475,0,0,0,.225.033c.061.1.146.057.228.034a.46.46,0,0,1,.228.036,1.154,1.154,0,0,1,.224.036c.078-.015.142.061.22.036s.139.063.216.037a.227.227,0,0,1,.21.037c.07.011.126.1.206.037.071-.007.153-.1.2.037.071-.021.122.08.194.037.049.1.126.024.187.037s.115.067.18.036.114.042.173.036c.065-.043.1.086.166.035.052.021.108.009.157.035.071-.115.1.016.149.034s.109-.066.14.034c.06-.086.092,0,.131.033s.09-.026.122.032c.049-.059.071.048.111.031.029.049.07.013.1.03a.083.083,0,0,1,.09.029l.079.027c.147.054.225.1.219.134" transform="translate(-13.884 -43.247)"/>
    </g>
  </g>
</svg>
