<svg xmlns="http://www.w3.org/2000/svg" xmlns:xlink="http://www.w3.org/1999/xlink" width="25.442" height="29.603" viewBox="0 0 25.442 29.603">
  <defs>
    <clipPath id="clip-path">
      <rect id="Rectangle_238" data-name="Rectangle 238" width="25.442" height="29.603"/>
    </clipPath>
  </defs>
  <g id="Group_352" data-name="Group 352" transform="translate(0)">
    <g id="Group_291" data-name="Group 291" transform="translate(0 0)" clip-path="url(#clip-path)">
      <path id="Path_798" data-name="Path 798" d="M36.077,22.076c.025.028-.04.137-.182.314l-.077.094a.436.436,0,0,1-.09.1c-.069,0-.01.135-.1.115-.054.019-.082.073-.113.125s-.109.058-.124.135c.019.114-.168.008-.135.143a.454.454,0,0,1-.145.152c-.1-.005-.108.1-.155.16-.117-.014-.148.068-.165.169-.142-.036-.19.034-.174.175-.059.06-.154.084-.183.183a.821.821,0,0,1-.191.189.2.2,0,0,1-.2.195c-.01.129-.1.169-.207.2s-.092.19-.213.206c-.078.064-.135.151-.221.211-.1.043-.2.085-.226.216a.5.5,0,0,1-.232.219c-.016.143-.124.186-.238.224-.07.086-.2.112-.243.227-.092.065-.137.182-.248.229a.472.472,0,0,0-.248.229c-.041.119-.18.132-.245.224-.14.01-.141.169-.241.219-.074.079-.192.108-.238.214a.606.606,0,0,1-.233.209c.016.169-.174.113-.228.2-.112.026-.141.141-.223.2-.054.084-.184.085-.217.19-.077.056-.109.159-.211.183-.021.111-.171.081-.2.175a1.585,1.585,0,0,1-.2.168c-.134-.02-.135.1-.189.16s-.076.151-.18.15c-.062.046-.148.062-.173.142-.042.06-.208-.017-.163.133-.033.065-.171.011-.154.123s-.1.076-.144.113l-.133.1c-.384.293-.622.44-.661.4s.168-.32.564-.752c.04-.043.034-.138.124-.134.047-.043.057-.129.135-.144-.017-.118.089-.106.145-.151s.127-.08.155-.16.133-.084.165-.169a.2.2,0,0,0,.174-.175c.1-.014.117-.125.183-.183.126.007.149-.1.19-.189s.145-.115.2-.195c.081-.051.124-.146.206-.2a.329.329,0,0,1,.214-.206,1.076,1.076,0,0,1,.22-.211c.051-.1.155-.137.227-.216s.221-.073.232-.22c.071-.083.17-.136.238-.223a.93.93,0,0,0,.243-.226c.149,0,.19-.125.248-.229a.889.889,0,0,1,.248-.229,2.339,2.339,0,0,1,.246-.224c.061-.1.189-.117.241-.219s.188-.112.238-.214A.437.437,0,0,1,33,24.513c.076-.07.211-.073.228-.2.061-.083.058-.231.222-.2.049-.092.187-.083.217-.19.137.009.141-.123.21-.183s.169-.084.2-.176.145-.1.2-.168c.023-.1.173-.057.188-.159.068-.045.111-.115.181-.151-.036-.151.111-.1.172-.142s.044-.162.163-.133c-.02-.122.088-.1.153-.124s.062-.116.144-.113c-.006-.092.111-.049.134-.1.071,0,.078-.069.122-.092a.156.156,0,0,1,.112-.081l.1-.069c.187-.127.3-.184.328-.156" transform="translate(-18.237 -14.412)"/>
      <path id="Path_799" data-name="Path 799" d="M53.446,7.671c-.025-.029.143-.221.472-.546l.178-.174a1.74,1.74,0,0,1,.2-.2c.108-.027.1-.2.229-.216a1.045,1.045,0,0,0,.253-.236c.08-.091.207-.136.276-.255.035-.159.271-.091.3-.274a1.953,1.953,0,0,1,.32-.291c.161-.04.23-.2.34-.308a.544.544,0,0,0,.36-.324.408.408,0,0,0,.379-.339c.033-.029.067-.056.1-.082l.1-.074c.026-.016.056-.044.042-.068a.472.472,0,0,0,.031-.048.184.184,0,0,1,.067-.049c-.035.007-.065.015-.087.02-.118.036-.059.022-.018-.033-.085.044-.1.058-.1.054s0-.008-.01-.016l0-.007s0,0-.016-.007l-.075-.016c-.2-.049-.4.077-.612.007-.206-.006-.416.019-.628,0a2.62,2.62,0,0,0-.32-.042.935.935,0,0,0-.162.007L55,4.17l-.072.009c-.049.006-.1.015-.154.025l-.395.02c-.006-.136-.01-.279-.009-.424,0-.073,0-.146.007-.218l0-.027V3.541l0-.028c0-.019.006-.038.01-.057a1.083,1.083,0,0,1,0-.672,4.249,4.249,0,0,0,0-.684,2.748,2.748,0,0,0-.01-.346c0-.006,0-.018,0-.018v0l0,0a.014.014,0,0,1,0-.008.087.087,0,0,1,.015-.032.394.394,0,0,0,.03-.1c0-.032,0-.057-.016-.029l-.021.045c-.035.088-.028.07-.035.062s-.022-.016-.029.012a.025.025,0,0,0-.04,0l0,0-.007.008-.026.033c-.016.022-.033.046-.048.069a1.262,1.262,0,0,1-.2.267,3.808,3.808,0,0,0-.431.5,2.564,2.564,0,0,1-.423.486c-.035.249-.3.3-.413.473-.178.12-.261.317-.4.459-.111.169-.306.262-.392.446a2.687,2.687,0,0,1-.38.43.533.533,0,0,1-.18.214c-.036.029-.073.059-.105.091a.487.487,0,0,0-.045.051l-.01.014,0,.007v0a.064.064,0,0,0,0,.012l-.017.019v.033c0,.033,0,.065,0,.1,0,.074,0,.147-.009.22-.106.173-.018.342-.011.508-.012.165.06.327-.012.484a1.406,1.406,0,0,0-.012.459.565.565,0,0,1-.053.22.184.184,0,0,0-.015.079.048.048,0,0,0,.055.037c.01.021-.008.057-.025.106a.058.058,0,0,0,.044.023.11.11,0,0,0,.078-.034.129.129,0,0,1,.051-.035.23.23,0,0,1,.076.008,1.038,1.038,0,0,0,.184.041l.346.015a5.837,5.837,0,0,1,1.558.155,7.852,7.852,0,0,1-1.9.17,1.555,1.555,0,0,0-.184.033.558.558,0,0,1-.261-.018c-.112,0-.24.018-.373.026a1.184,1.184,0,0,1,.012-.293.4.4,0,0,1-.044-.158.746.746,0,0,1,0-.156c.008-.073.029-.145.032-.22a2.05,2.05,0,0,0-.012-.459c-.057-.157.028-.319-.012-.484a.768.768,0,0,0-.01-.508.545.545,0,0,0,.02-.22L50.7,5.33c0-.02,0-.031-.007-.069,0-.063-.01-.128-.014-.195.031-.039.062-.079.1-.118l.05-.035.012-.009.008,0,.015-.01a.422.422,0,0,0,.056-.042.564.564,0,0,0,.09-.1c.053-.075.095-.162.142-.245.1-.164.257-.279.367-.441.139-.137.238-.313.38-.456a1.341,1.341,0,0,1,.393-.468,4.439,4.439,0,0,1,.4-.481,5.119,5.119,0,0,1,.415-.492c.127-.178.357-.269.426-.5.067-.088.143-.17.218-.254l.057-.062.075-.086c.068-.079.135-.16.2-.245.141-.155.277-.3.413-.46s.272-.32.425-.519A.334.334,0,0,0,54.983,0a3.322,3.322,0,0,0-.023.608c.01.163.032.32.049.5.007.1.011.212.014.323l0,.167v.151c0,.116-.009.231-.016.346.01.23,0,.458,0,.684.029.226-.042.45,0,.672q.005.029.008.057l0,.028v.015h0a.021.021,0,0,1,0,.012.231.231,0,0,0-.021.045.036.036,0,0,0,.038-.009l.014-.01,0,0s0,0,.015,0c.054,0,.108-.008.162-.008a1.328,1.328,0,0,1,.32.031c.212,0,.422.09.628.006.207-.019.41-.131.612.007a.456.456,0,0,1,.075-.007h.059l.068,0c.09,0,.177.011.261.018a2.231,2.231,0,0,0,.529-.006.665.665,0,0,0,.312.045c.13,0,.291-.018.449-.028a1.8,1.8,0,0,1-.141.132c-.15.116-.3.226-.427.328a2.34,2.34,0,0,0-.326.3,2.137,2.137,0,0,1-.35.309l-.022.016-.014.009-.028.018-.054.037a.775.775,0,0,0-.1.084c-.094.157-.31.166-.393.322-.134.1-.243.22-.375.307-.032.205-.236.2-.356.289s-.165.259-.337.272c-.04.169-.2.189-.316.253s-.166.2-.295.234c-.045.133-.2.123-.272.213-.115.036-.165.138-.249.193a.63.63,0,0,1-.224.171l-.2.149c-.372.275-.587.412-.612.383" transform="translate(-33.095 0)"/>
      <path id="Path_800" data-name="Path 800" d="M3.841,45.417c.016-.008.069.046.153.16q.063.085.149.212l.092.137.113.15.169.229c.032.04.065.081.1.124a1.541,1.541,0,0,1,.1.131c.029.121.214.13.228.278a.689.689,0,0,0,.05.082c.02.025.042.049.065.072.046.047.1.092.149.138a1.11,1.11,0,0,1,.135.161.861.861,0,0,0,.07.083.435.435,0,0,0,.091.066c.173.037.136.291.333.318l.1.072c.032.024.063.05.094.077.061.054.122.111.182.169.075.172.263.22.412.318A.515.515,0,0,0,6.8,48.6a1.125,1.125,0,0,0,.266.1.477.477,0,0,0,.191.228.5.5,0,0,0,.065.033.55.55,0,0,0,.073.02A.782.782,0,0,0,7.561,49a1.779,1.779,0,0,0,.531.279c.188.08.38.16.57.253a1.08,1.08,0,0,1,.607.221.8.8,0,0,1,.33.052l.156.061c.052.022.1.046.155.07a.943.943,0,0,0,.333.073.846.846,0,0,1,.34.067c.114.023.229.041.346.054s.235.018.353.038l.176.045c.029.007.059.014.089.019l.091.009a1.02,1.02,0,0,0,.367-.034l.184-.009c.061-.005.122-.012.184-.016s.122-.005.185,0,.124.009.187.014a.941.941,0,0,1,.37-.083,2.542,2.542,0,0,1,.381,0c.031-.006.063-.011.094-.015s.062-.01.094-.014l.191-.022a1.7,1.7,0,0,0,.19-.03,1.114,1.114,0,0,0,.184-.063c.063-.011.126-.026.189-.043s.123-.041.185-.061.123-.042.186-.058c.032-.009.063-.017.1-.023s.063-.016.1-.021a3.808,3.808,0,0,0,.381-.1,1.66,1.66,0,0,0,.351-.171,1.24,1.24,0,0,1,.346-.17,1.761,1.761,0,0,0,.348-.158.739.739,0,0,0,.343-.164c.051-.038.1-.076.152-.112a.926.926,0,0,1,.158-.1,3.121,3.121,0,0,0,.61-.418c.091-.082.181-.163.275-.238a2.244,2.244,0,0,1,.287-.217.532.532,0,0,1,.235-.269c.05-.032.1-.062.152-.1a.606.606,0,0,0,.126-.121.841.841,0,0,0,.136-.11.964.964,0,0,0,.114-.13,2.519,2.519,0,0,1,.214-.266c.119-.193.331-.312.411-.526A5.269,5.269,0,0,1,20,45.87a.691.691,0,0,1,.155-.274c.033-.041.068-.082.1-.125a.507.507,0,0,0,.062-.141l.137-.27c.042-.091.085-.18.132-.266a.4.4,0,0,0,.1-.115.611.611,0,0,0,.054-.135c.026-.093.039-.19.07-.278A1.85,1.85,0,0,0,20.886,44a.684.684,0,0,1,.109-.249,1.447,1.447,0,0,0,.146-.5.742.742,0,0,1,.108-.232.229.229,0,0,0,.005-.246.612.612,0,0,1,.074-.226.267.267,0,0,0,.011-.227.293.293,0,0,1,0-.219,1.041,1.041,0,0,0,.059-.2c.008-.068.015-.135.023-.2s.015-.129.018-.192a12.161,12.161,0,0,0,.036-1.319c0-.154-.006-.272,0-.352s.011-.124.026-.126.037.046.065.142q.021.072.046.179c.016.071.029.154.046.248a7.985,7.985,0,0,1,.081,1.647c0,.071.014.146.014.22a.407.407,0,0,1-.047.223c-.011.077,0,.156-.009.237a.68.68,0,0,1-.051.239.381.381,0,0,1,0,.257c-.027.082-.068.162-.09.247a4.352,4.352,0,0,0-.128.529.621.621,0,0,1-.075.274.959.959,0,0,0-.094.276.919.919,0,0,0-.145.264,1.1,1.1,0,0,0-.042.147c-.011.05-.023.1-.032.154a.832.832,0,0,0-.143.278,2.656,2.656,0,0,1-.121.3.586.586,0,0,0-.111.125.907.907,0,0,0-.082.141c-.047.1-.079.208-.121.314a6.021,6.021,0,0,1-.372.575c-.145.181-.263.388-.423.567a2.4,2.4,0,0,1-.209.3,1.043,1.043,0,0,1-.128.132,1.6,1.6,0,0,1-.147.116q-.056.074-.119.143c-.044.044-.089.087-.135.13-.093.084-.185.17-.282.252a2.046,2.046,0,0,1-.282.26c-.1.076-.21.15-.31.234-.2.17-.475.229-.646.452-.054.038-.11.075-.167.11l-.176.1c-.118.063-.234.132-.352.2s-.246.116-.371.17a4.044,4.044,0,0,0-.368.183,1.04,1.04,0,0,0-.4.1c-.126.056-.251.12-.377.184l-.1.043-.1.033c-.066.022-.134.041-.2.059s-.134.037-.2.049l-.2.036-.2.051c-.067.016-.135.026-.2.038l-.2.033-.1.016-.1.01a2.179,2.179,0,0,1-.4.045,1.868,1.868,0,0,0-.4.033.8.8,0,0,1-.2.02c-.066,0-.132,0-.2-.008s-.131-.007-.2-.009a1.085,1.085,0,0,0-.2,0,3.843,3.843,0,0,1-.389.013l-.1,0c-.032,0-.064-.009-.1-.015a1.561,1.561,0,0,1-.188-.045c-.126-.014-.248-.049-.371-.074a.924.924,0,0,0-.372-.035c-.123-.014-.251,0-.373-.014a.58.58,0,0,1-.339-.149.846.846,0,0,1-.175-.039c-.029-.009-.057-.019-.085-.029s-.054-.024-.081-.036a.964.964,0,0,0-.336-.1,2.087,2.087,0,0,0-.637-.251,3.32,3.32,0,0,0-.595-.285c-.219-.047-.363-.225-.55-.312a.451.451,0,0,1-.14-.066.735.735,0,0,1-.062-.046l-.056-.053a.6.6,0,0,0-.246-.169c-.078-.061-.161-.112-.24-.166a2.324,2.324,0,0,1-.219-.18.328.328,0,0,1-.25-.131c-.062-.068-.1-.16-.166-.222a1.033,1.033,0,0,0-.211-.154.512.512,0,0,1-.1-.081.235.235,0,0,1-.062-.117c-.188-.044-.239-.222-.327-.35a.525.525,0,0,0-.075-.086c-.026-.028-.053-.053-.08-.078a.446.446,0,0,1-.129-.177A.29.29,0,0,1,4.8,47.2c-.016-.031-.031-.062-.048-.091a.276.276,0,0,0-.058-.08c-.04-.133-.15-.2-.21-.3a.984.984,0,0,1-.109-.132.839.839,0,0,1-.068-.149l-.145-.253-.094-.167L4,45.871c-.044-.1-.078-.176-.1-.241-.053-.132-.073-.2-.056-.213" transform="translate(-2.504 -25.931)"/>
      <path id="Path_801" data-name="Path 801" d="M1.236,50.941l.1-.029.016,0,.016,0,.015,0,.014,0,.014,0c.093-.026-.1.029.013,0l.013,0,.012,0,.011,0c-.118.033-.1.028.011,0l.009,0,.009,0,.009,0c.084-.024.051-.014.007,0s.075-.021.007,0c-.006,0,.019-.006,0,0-.034.009-.074.02,0,0,.021-.006.05-.014,0,0h0c.015,0-.049.014,0,0-.014,0,.04-.011,0,0s-.053.016,0,0-.025.007,0,0c-.084.024.027-.008,0,0H1.519c.13-.036-.033.009,0,0-.055.016.008,0-.007,0,.024-.006-.06.017-.007,0-.011,0,.042-.012-.009,0,.065-.018-.054.016-.009,0l-.009,0c-.1.029-.018,0-.011,0l-.011,0-.012,0c.015,0-.148.042-.013,0,.025-.007-.1.029-.013,0l-.014,0-.014,0-.15.042-.164.046-.014,0-.013,0c-.094.026-.018,0-.013,0L1.02,51c-.054.015.027-.008-.011,0l-.011,0-.01,0-.009,0-.008,0-.008,0c-.04.012-.056.016-.006,0-.028.008-.005,0-.005,0H.942c.012,0,.025-.007,0,0,.095-.027.036-.01,0,0s-.013,0,0,0c-.009,0,0,0,0,0-.028.008.041-.011,0,0s.043-.013,0,0h0s.086-.024.006,0c-.018,0-.126.035.006,0l.008,0,.008,0,.009,0,.01,0c-.056.015.072-.02.01,0l.011,0c-.13.036,0,0,.012,0s-.086.024.012,0c-.1.028-.013,0,.014,0s-.042.011.014,0l.015,0,.015,0,.015,0,.016,0,.1-.029" transform="translate(-0.587 -33.203)"/>
      <path id="Path_802" data-name="Path 802" d="M.323,45.752l.107-.008h.2c-.015,0,.041,0,0,0s-.055,0,0,0H.478l-.155.011-.169.012H.016c.1-.007.037,0,0,0s-.014,0,0,0H.168l.016,0H.216l.107-.008" transform="translate(0 -29.862)"/>
      <path id="Path_803" data-name="Path 803" d="M18.051,20.566c-.016.01-.07-.038-.158-.139-.044-.05-.1-.113-.156-.189l-.1-.122-.116-.134-.175-.205c-.033-.035-.066-.072-.1-.109a1.564,1.564,0,0,1-.1-.118c-.033-.115-.213-.107-.232-.248a1.083,1.083,0,0,0-.268-.26c-.1-.08-.16-.215-.3-.274-.168-.022-.139-.272-.331-.283a2.171,2.171,0,0,1-.37-.281.343.343,0,0,0-.076-.1.6.6,0,0,0-.1-.067c-.074-.039-.154-.069-.227-.112a.418.418,0,0,0-.184-.187,1.02,1.02,0,0,0-.258-.085.427.427,0,0,0-.188-.213.579.579,0,0,0-.29-.047c-.083-.042-.161-.1-.242-.144a.889.889,0,0,0-.272-.1l-.272-.105a2.07,2.07,0,0,1-.276-.111.812.812,0,0,1-.3-.049.927.927,0,0,1-.278-.139.8.8,0,0,1-.314-.037,1.776,1.776,0,0,1-.3-.117.709.709,0,0,0-.318-.057.7.7,0,0,1-.322-.058c-.054-.01-.109-.019-.163-.027s-.111-.008-.166-.012a3.317,3.317,0,0,1-.335-.034,1.683,1.683,0,0,0-.338-.06.918.918,0,0,0-.346.035c-.116.01-.231.029-.347.035-.058,0-.117,0-.175,0a1.317,1.317,0,0,1-.177-.009.842.842,0,0,1-.261.075c-.029,0-.058.009-.088.011a2.221,2.221,0,0,1-.362-.007,3.289,3.289,0,0,0-.712.142,1.758,1.758,0,0,0-.179.041c-.059.018-.117.04-.175.06s-.117.04-.176.056l-.09.022c-.03.007-.06.014-.091.019-.122.027-.244.052-.362.09a1.5,1.5,0,0,0-.332.164,1.2,1.2,0,0,1-.328.16,1.4,1.4,0,0,0-.331.146.573.573,0,0,0-.176.052.961.961,0,0,0-.151.1,1.747,1.747,0,0,1-.3.2,3.435,3.435,0,0,1-.306.176,1.212,1.212,0,0,0-.278.211c-.091.071-.173.152-.263.223a3.027,3.027,0,0,1-.278.2.453.453,0,0,1-.228.248,1.044,1.044,0,0,0-.27.2.9.9,0,0,0-.243.222l-.1.126c-.035.042-.068.084-.106.122a1.524,1.524,0,0,1-.219.232.84.84,0,0,0-.188.252,1.674,1.674,0,0,0-.173.255,1.177,1.177,0,0,1-.189.238.591.591,0,0,1-.159.252.642.642,0,0,0-.159.246c-.048.084-.1.165-.14.25s-.089.166-.138.245a.4.4,0,0,0-.161.229c-.029.087-.044.178-.077.261a1.831,1.831,0,0,0-.081.251.592.592,0,0,1-.117.229c-.031.079-.071.153-.1.228-.016.039-.031.076-.043.115a.548.548,0,0,0-.017.121.643.643,0,0,1-.117.212.2.2,0,0,0-.016.232.559.559,0,0,1-.082.209.368.368,0,0,0-.039.1.2.2,0,0,0,.015.111c.062.154-.061.268-.083.4s-.042.251-.062.367C.7,25.556.726,26.183.66,26.186c-.016,0-.034-.045-.054-.138a3.326,3.326,0,0,1-.06-.41c0-.045-.009-.093-.013-.143s0-.1-.007-.159c0-.111-.009-.232-.011-.363s.008-.272.012-.422.025-.308.039-.475c.013-.134-.031-.285.057-.417a.814.814,0,0,0,.011-.11c0-.037.007-.075.011-.113a.593.593,0,0,1,.06-.222c-.063-.178.065-.313.113-.472.01-.041.023-.081.036-.121L.9,22.5a1.073,1.073,0,0,0,.066-.254.567.567,0,0,1,.083-.256.863.863,0,0,0,.1-.257.815.815,0,0,0,.15-.242,1.582,1.582,0,0,0,.08-.283.733.733,0,0,0,.149-.256,1.881,1.881,0,0,1,.125-.277.674.674,0,0,0,.194-.243c.048-.092.084-.193.126-.293a1.276,1.276,0,0,1,.177-.269c.067-.085.132-.171.193-.263a2.575,2.575,0,0,0,.2-.263,2.55,2.55,0,0,1,.217-.259c.029-.05.06-.1.094-.146s.071-.091.11-.133a1.214,1.214,0,0,1,.266-.228,2.532,2.532,0,0,1,.246-.254c.089-.079.185-.151.275-.23a1.394,1.394,0,0,1,.273-.239l.3-.217a1.918,1.918,0,0,1,.319-.19.758.758,0,0,0,.3-.23,3.423,3.423,0,0,1,.327-.191c.056-.03.111-.062.168-.091s.113-.06.168-.093c.117-.053.233-.108.353-.158s.234-.111.349-.172a.941.941,0,0,0,.384-.1c.12-.051.237-.116.356-.177l.092-.04c.031-.012.062-.022.093-.033.063-.02.127-.038.19-.056s.127-.033.192-.048l.193-.034a5.77,5.77,0,0,1,.762-.147,2.044,2.044,0,0,1,.381-.043l.095-.005.095,0a1.1,1.1,0,0,0,.187-.026.988.988,0,0,1,.187-.025,1.857,1.857,0,0,1,.187.007,1.642,1.642,0,0,0,.372,0,3.529,3.529,0,0,1,.367-.015,1.221,1.221,0,0,1,.361.051,3.517,3.517,0,0,1,.353.07,1.246,1.246,0,0,0,.175.024.618.618,0,0,0,.178-.006c.117.01.237,0,.354,0a.473.473,0,0,1,.324.133,1.218,1.218,0,0,1,.325.09.982.982,0,0,0,.321.089.608.608,0,0,0,.3.133,2.523,2.523,0,0,1,.312.083c.1.046.189.1.283.138a1.159,1.159,0,0,0,.289.11.88.88,0,0,1,.279.119,1.629,1.629,0,0,0,.254.154.609.609,0,0,1,.252.143.556.556,0,0,0,.24.15c.076.054.155.1.234.147a1.383,1.383,0,0,1,.218.159.3.3,0,0,1,.243.111c.03.032.057.068.083.1a.716.716,0,0,0,.084.1c.117.119.314.137.37.314.182.028.238.2.326.315s.235.168.289.305a.262.262,0,0,1,.144.135.527.527,0,0,0,.11.155c.044.125.154.184.217.277a.8.8,0,0,1,.111.118.614.614,0,0,1,.074.136l.153.23.1.152c.029.049.053.1.077.139.047.087.085.161.114.222.058.121.081.189.065.2" transform="translate(-0.337 -10.296)"/>
      <path id="Path_804" data-name="Path 804" d="M52.776,34.242l-.1.036-.016.006-.015.006-.015.005-.014,0c-.016.006.03-.01-.013.005l-.013,0-.012,0c.07-.025,0,0-.012,0,.084-.031.047-.018-.011,0,.115-.042.1-.036-.01,0l-.009,0-.009,0c-.077.028-.074.027-.008,0-.082.03-.05.018-.007,0s-.072.027-.006,0l-.006,0c.034-.013.072-.026,0,0-.02.008-.048.018,0,0-.088.032-.049.018,0,0-.015.006.048-.017,0,0,.014-.005-.039.014,0,0s.052-.019,0,0,.023-.009,0,0c.082-.03-.027.01,0,0-.008,0,.047-.018,0,0-.015.006-.031.011,0,0l.006,0c.054-.019-.008,0,.006,0-.024.009.059-.021.007,0,.011,0-.041.015.008,0-.062.023.053-.019.009,0l.009,0c.1-.036.017-.006.01,0,.011,0-.056.02.011,0l.011,0c-.015.006.144-.053.012,0-.024.009.1-.037.013,0l.013,0,.014-.005.146-.054.16-.058.014,0s.053-.019.012,0l.012,0,.012,0c.053-.019-.027.01.011,0-.057.02-.042.015.01,0-.055.02.011,0,.009,0l.01,0,.007,0,.008,0c.04-.015.054-.02.006,0l.005,0,0,0c.018-.006-.09.033,0,0,.012,0-.015.006,0,0-.011,0-.024.008,0,0-.093.034-.035.014,0,0s.013,0,0,0c.009,0,0,0,0,0,.027-.01-.04.014,0,0s-.042.015,0,0l0,0s-.084.031-.005,0c.018-.007.123-.045-.006,0,.032-.012-.062.023-.008,0l-.008,0-.009,0c.045-.016-.025.009-.01,0,.054-.02-.07.026-.01,0l-.011,0c.127-.046,0,0-.012,0s.084-.031-.012,0c.1-.035.013-.005-.012,0s.041-.015-.014,0l-.014.006-.015.005-.015.006-.015.006-.1.037" transform="translate(-34.243 -22.282)"/>
      <path id="Path_805" data-name="Path 805" d="M54.145,39.618l-.107.016-.016,0-.015,0-.015,0-.015,0-.014,0-.014,0-.013,0-.012,0-.012,0H53.84c.015,0-.04.006,0,0s.054-.008,0,0h.071l.011,0h.012l.013,0,.014,0,.014,0,.015,0,.154-.023.168-.025.015,0,.014,0h.013l.012,0,.011,0h.011l.01,0h.05c-.1.015-.037.006,0,0s.014,0,0,0h-.033l-.008,0H54.4l-.01,0-.011,0h-.011l-.012,0-.013,0-.014,0-.014,0-.015,0-.016,0-.015,0-.016,0-.107.016" transform="translate(-35.149 -25.84)"/>
      <path id="Path_806" data-name="Path 806" d="M11.523,27.045c.013.014-.048.094-.174.234-.062.07-.135.161-.225.263-.044.052-.088.111-.138.172l-.076.1c-.024.034-.05.069-.076.1l-.109.149c-.035.052-.071.108-.108.164-.074.113-.139.242-.226.367a.4.4,0,0,0-.1.211.552.552,0,0,1-.042.115.264.264,0,0,1-.076.1,1.138,1.138,0,0,0-.119.228c-.031.082-.058.168-.087.255a2.135,2.135,0,0,1-.1.261.9.9,0,0,0-.072.282.469.469,0,0,1-.081.29.369.369,0,0,0-.051.308c0,.052-.011.105-.016.159s-.01.107-.017.161-.016.108-.024.163-.012.11-.018.166a.622.622,0,0,0-.044.167,1.1,1.1,0,0,0,0,.173c0,.058.009.117.017.175s.018.117.023.176a1.024,1.024,0,0,0,.076.724.774.774,0,0,0,.175.743c.035.125.069.252.107.38a1.437,1.437,0,0,0,.072.187.949.949,0,0,0,.1.177c.115.246.265.477.39.729a2.143,2.143,0,0,1,.5.691,2.839,2.839,0,0,1,.619.632,1.067,1.067,0,0,0,.164.155c.06.045.127.084.191.125s.13.079.193.121a1.387,1.387,0,0,1,.178.148,6.835,6.835,0,0,0,.821.443,1.821,1.821,0,0,0,.9.317c.318.061.64.09.962.171a3.739,3.739,0,0,1,1,.01c.084-.011.168-.013.252-.021l.253-.02c.084-.011.169-.023.253-.039a1.512,1.512,0,0,0,.245-.076c.337-.068.644-.23.975-.33a2.482,2.482,0,0,0,.906-.493,3.3,3.3,0,0,1,.4-.311c.07-.046.139-.1.2-.15.034-.026.066-.053.1-.081s.06-.059.088-.09a1.19,1.19,0,0,0,.367-.343c.049-.068.1-.137.147-.2a1.588,1.588,0,0,1,.154-.194,3.548,3.548,0,0,0,.527-.823c.138-.293.245-.591.38-.878a.633.633,0,0,1,0-.123.913.913,0,0,1,.019-.116,1.858,1.858,0,0,1,.075-.221c.029-.073.06-.145.087-.218a.965.965,0,0,0,.049-.227,1.018,1.018,0,0,0,.056-.224,1.682,1.682,0,0,0,.021-.228c0-.077,0-.152.006-.228s0-.15,0-.225,0-.15,0-.224.01-.149.009-.223,0-.147-.005-.221a.991.991,0,0,0-.044-.215c0-.036-.008-.072-.013-.108s-.014-.071-.02-.106l-.048-.21a2.764,2.764,0,0,1-.084-.416,1.463,1.463,0,0,1-.128-.4c-.015-.068-.034-.134-.054-.2a.679.679,0,0,0-.087-.185q-.042-.093-.084-.184l-.091-.178-.044-.089-.048-.086c-.031-.058-.061-.116-.091-.173a.69.69,0,0,0-.065-.189.838.838,0,0,0-.049-.084c-.018-.026-.039-.052-.059-.076-.041-.05-.085-.1-.127-.143s-.089-.09-.129-.138a2.18,2.18,0,0,0-.25-.271,1.13,1.13,0,0,1-.228-.278c-.083-.084-.156-.178-.241-.257a1.659,1.659,0,0,0-.127-.116.926.926,0,0,0-.144-.092,1.76,1.76,0,0,1-.236-.241.372.372,0,0,0-.291-.144,1.285,1.285,0,0,1-.253-.187.452.452,0,0,0-.275-.122.539.539,0,0,1-.274-.1,1.778,1.778,0,0,0-.243-.143c-.083-.037-.169-.064-.25-.1s-.164-.056-.244-.082a6.82,6.82,0,0,0-1.731-.3l-.272-.012c-.079,0-.145,0-.2,0-.108,0-.164-.014-.166-.028s.065-.037.2-.063a3.985,3.985,0,0,1,.586-.065,5.849,5.849,0,0,1,.949.039,5.959,5.959,0,0,1,1.251.294c.09.034.191.049.287.08a.694.694,0,0,1,.272.146c.093.048.2.082.295.128a1.054,1.054,0,0,1,.281.176.643.643,0,0,1,.312.152c.091.074.175.159.266.237.048.036.1.074.141.114l.135.124a3.505,3.505,0,0,0,.289.241,1.157,1.157,0,0,1,.277.271,2.521,2.521,0,0,0,.256.3,2.552,2.552,0,0,0,.213.347c.02.028.042.054.064.081s.042.054.065.081c.044.054.091.106.141.158a1.21,1.21,0,0,0,.086.195c.017.031.035.062.054.092s.035.062.054.093l.113.185c.035.063.069.128.1.2a1.427,1.427,0,0,0,.047.22,2.009,2.009,0,0,0,.079.208c.057.138.13.272.187.415a2.336,2.336,0,0,1,.119.448c.012.077.025.154.036.232s.028.154.042.233a6.676,6.676,0,0,1,.064.963,2.292,2.292,0,0,1-.082.993,4.132,4.132,0,0,1-.243,1,4.3,4.3,0,0,1-.408.969,1.448,1.448,0,0,1-.134.231l-.077.11-.082.107a2.006,2.006,0,0,0-.28.463,7.135,7.135,0,0,1-.732.819c-.279.245-.577.466-.874.7a6.228,6.228,0,0,0-1,.545,4.016,4.016,0,0,1-1.077.363c-.092.023-.182.049-.274.066l-.277.05-.278.033c-.092.011-.185.013-.277.019a8.034,8.034,0,0,1-1.1-.017,2.1,2.1,0,0,1-.536-.077l-.13-.031-.129-.035c-.087-.023-.175-.036-.262-.053a2.738,2.738,0,0,1-.99-.358,3.469,3.469,0,0,1-.446-.259,2.365,2.365,0,0,0-.217-.132,1.481,1.481,0,0,0-.232-.106l-.224-.121a2.263,2.263,0,0,1-.22-.126,1.23,1.23,0,0,1-.2-.156.836.836,0,0,1-.147-.209,1.34,1.34,0,0,1-.182-.164c-.028-.03-.056-.059-.082-.09l-.076-.094a2.373,2.373,0,0,0-.324-.353,1.472,1.472,0,0,0-.254-.4,3.182,3.182,0,0,1-.282-.366c-.14-.273-.252-.549-.407-.8a.961.961,0,0,1-.1-.2A2.027,2.027,0,0,1,9.472,34c-.036-.14-.07-.278-.113-.412a.74.74,0,0,1-.069-.2c-.012-.069-.019-.138-.025-.207s-.011-.138-.02-.2a.742.742,0,0,0-.053-.2A5.544,5.544,0,0,1,9.133,32a.522.522,0,0,1-.061-.189.709.709,0,0,1,.012-.188c.011-.062.027-.124.041-.184a1.4,1.4,0,0,0,.04-.179.991.991,0,0,0,.011-.178c0-.06,0-.119,0-.178a.983.983,0,0,1,.019-.173.461.461,0,0,1,.074-.16.539.539,0,0,1,.029-.333c.041-.1.091-.2.137-.295a1.769,1.769,0,0,0,.092-.295.809.809,0,0,1,.12-.27.528.528,0,0,1,.1-.264,1.071,1.071,0,0,0,.141-.232.68.68,0,0,0,.077-.106,1.14,1.14,0,0,0,.063-.111,1.493,1.493,0,0,1,.118-.214,1.258,1.258,0,0,1,.262-.365c.044-.055.084-.109.126-.161l.125-.143.088-.1.088-.09c.057-.057.109-.112.161-.16.1-.093.192-.173.268-.231.153-.115.238-.167.25-.153" transform="translate(-5.923 -16.604)"/>
      <path id="Path_807" data-name="Path 807" d="M20.443,26.6l.043.1.007.015a.1.1,0,0,1,.006.015l.006.014.006.014c.007.016-.013-.029.006.013.039.089-.043-.1.006.013.011.024.008.017.005.012-.03-.068,0,0,.005.011-.036-.082-.02-.046,0,.011-.049-.112-.042-.1,0,.01,0,0-.018-.04,0,.01,0,.007.012.028,0,.008.033.075.031.072,0,.008.036.08.022.049,0,.007s.032.071,0,.006c0,0,.008.018,0,.005-.015-.033-.031-.07,0,0,.009.02.02.047,0,0,.037.086.021.048,0,0,.007.014-.02-.047,0,0-.006-.014.016.038,0,0s-.022-.051,0,0-.01-.023,0,0c-.035-.08.011.026,0,0,0,.008-.021-.046,0,0,.006.015.013.031,0,0,.054.124-.014-.031,0,0-.023-.052,0,.008,0-.006.01.023-.025-.057,0-.007l0-.008c.027.062-.023-.051,0-.008l0-.01c-.043-.1-.007-.016,0-.01,0-.01.024.054,0-.01,0-.008-.022-.051,0-.011.006.015-.062-.141-.005-.012.01.023-.043-.1-.006-.013s0-.01-.006-.013l-.006-.014-.063-.142-.068-.156s-.032-.072-.006-.013c0,0-.022-.052,0-.012-.039-.09-.007-.017-.006-.012l0-.011c-.023-.052.011.026,0-.01.024.055.017.041,0-.01.024.054,0-.011,0-.009.036.083.01.025,0-.008l0-.008,0-.007c-.017-.039-.023-.053,0-.006-.011-.027,0-.005,0-.005-.015-.033,0,0,0,0s.039.088,0,0c-.005-.012.006.014,0,0,.006.012.011.024,0,0,.039.09.015.034,0,0s-.006-.013,0,0c0-.009,0,0,0,0-.012-.027.017.039,0,0s.018.041,0,0-.017-.041,0,0c0,0,.036.082,0,.005-.008-.017-.052-.119,0,.006-.014-.031.027.061,0,.007.04.092,0,0,0,.008l0,.009c-.019-.044.01.024,0,.009-.023-.053.031.069,0,.01a.069.069,0,0,0,0,.011c-.054-.124,0,0,0,.011s-.036-.082,0,.012c-.041-.094-.005-.012.006.012s-.017-.04.006.013l.006.014.006.014.006.015.007.015.043.1" transform="translate(-13.258 -17.165)"/>
      <path id="Path_808" data-name="Path 808" d="M25.854,25.2c0,.038.008.074.012.107l0,.016a.1.1,0,0,1,0,.016c0,.01,0,0,0,.015l0,.015c0,.008,0-.005,0,.015s0,0,0,.013a.1.1,0,0,0,0,.013v.012c0,.009,0,0,0,.012s0,0,0,.01,0,0,0,.01v.017a.05.05,0,0,0,0,.008.034.034,0,0,0,0,.007v.017h0c0-.014,0,.041,0,0s-.007-.055,0,0h0s0,0,0,0,0,0,0,0v0c0-.007,0,0,0-.006s0,0,0-.007v-.008s0,0,0-.008,0,0,0-.009,0,0,0-.01,0-.01,0-.01a.058.058,0,0,0,0-.011s0,0,0-.013,0,0,0-.013,0,0,0-.013v-.015l0-.015c-.005-.046-.011-.1-.017-.154s-.014-.121-.019-.17v-.014a.134.134,0,0,1,0-.014.128.128,0,0,0,0-.013s0,0,0-.012,0,0,0-.011v-.011c0-.011,0-.009,0-.009v-.033c0-.008,0-.006,0-.006s0,0,0,0a.02.02,0,0,1,0,0v0h0c.011.1,0,.037,0,0s0-.014,0,0h0v.017s0,0,0,.007v.008c0,.01,0,.008,0,.008s0,0,0,.01v.01a.061.061,0,0,0,0,.011c0,.01,0,0,0,.012s0,.011,0,.012,0,0,0,.013v.014c0,.009,0,0,0,.014a.1.1,0,0,1,0,.015c0,.021,0,.01,0,.015s0,0,0,.016l0,.016c0,.033.008.069.012.107" transform="translate(-16.859 -16.248)"/>
      <path id="Path_809" data-name="Path 809" d="M24.594,37.362c-.019,0-.04-.054-.063-.156-.012-.05-.02-.113-.039-.186s-.042-.156-.064-.249c-.018-.062-.043-.127-.066-.2-.014-.035-.028-.07-.041-.106a.862.862,0,0,1-.044-.111c.017-.1-.139-.125-.111-.234A.411.411,0,0,0,24.113,36a.465.465,0,0,0-.04-.06l-.048-.056c-.067-.074-.074-.193-.179-.249-.071-.013-.081-.071-.095-.13s-.041-.112-.123-.115a1.344,1.344,0,0,1-.132-.112c-.044-.038-.085-.08-.127-.122a.211.211,0,0,0-.126-.135c-.057-.028-.117-.05-.173-.079a.33.33,0,0,0-.343-.181.32.32,0,0,0-.063-.1.181.181,0,0,0-.088-.057.36.36,0,0,0-.228.017l-.2-.068a.654.654,0,0,0-.1-.027.385.385,0,0,0-.11.007c-.072-.005-.144-.014-.216-.015a1.009,1.009,0,0,1-.22-.018,1.189,1.189,0,0,1-.11.048.423.423,0,0,1-.11.022.462.462,0,0,1-.113-.008.622.622,0,0,1-.117-.022.39.39,0,0,1-.106.061.406.406,0,0,1-.055.017.365.365,0,0,1-.055.015,1.1,1.1,0,0,1-.237.014.478.478,0,0,0-.219.093.41.41,0,0,1-.22.1l-.055.026-.052.033-.1.068c-.07.043-.132.1-.2.141-.039.018-.079.034-.117.055a1.009,1.009,0,0,0-.1.074.6.6,0,0,0-.091.091.4.4,0,0,0-.058.122c-.049.07-.1.139-.143.212a1.374,1.374,0,0,1-.168.2.848.848,0,0,1-.236.466.78.78,0,0,1-.046.124.993.993,0,0,0-.053.123.618.618,0,0,0-.05.263,1.507,1.507,0,0,0-.029.268.866.866,0,0,1-.023.271,2.492,2.492,0,0,0-.018.274.755.755,0,0,0,.07.264.656.656,0,0,1,.076.256.714.714,0,0,0,.026.13.59.59,0,0,0,.046.124.258.258,0,0,0,0,.071.306.306,0,0,0,.021.063.644.644,0,0,0,.067.115l.038.054c.014.017.029.034.042.051a.432.432,0,0,1,.067.111l.135.221a.515.515,0,0,0,.175.187c.032.028.062.058.094.085s.066.052.1.079a1.17,1.17,0,0,1,.089.087,1.188,1.188,0,0,1,.088.089.284.284,0,0,1,.222.11c.028.03.056.064.086.093a.37.37,0,0,0,.047.041.245.245,0,0,0,.056.024.5.5,0,0,0,.211.12,1.2,1.2,0,0,1,.228.07.793.793,0,0,1,.224.074l.055.022a.442.442,0,0,0,.057.012.343.343,0,0,0,.118,0,.848.848,0,0,0,.113.016l.114,0a.874.874,0,0,1,.113,0,.914.914,0,0,1,.111.024.327.327,0,0,1,.221-.014.354.354,0,0,0,.216-.018l.106-.016.1-.027c.068-.018.137-.028.2-.045a.258.258,0,0,0,.21-.026.421.421,0,0,0,.085-.059.562.562,0,0,1,.083-.058c.128-.043.2-.178.343-.18l.166-.09a.3.3,0,0,0,.134-.125.407.407,0,0,1,.168-.081.128.128,0,0,0,.09-.154c.027-.05.087-.071.136-.1a.149.149,0,0,0,.082-.141c0-.131.122-.166.179-.248l.041-.06c.013-.02.023-.042.034-.062l.067-.121a3.812,3.812,0,0,0,.325-.9c.043-.219.072-.342.1-.342s.029.037.041.112c.006.038.01.084.015.139,0,.027.006.058.005.09s0,.066,0,.1a2.759,2.759,0,0,1-.332,1.211c-.053.094-.047.238-.175.295a1.38,1.38,0,0,0-.091.16.361.361,0,0,1-.132.136.231.231,0,0,1-.1.174c-.055.039-.12.069-.172.113a1.066,1.066,0,0,1-.166.125.865.865,0,0,0-.162.142c-.1.123-.263.135-.384.231a.561.561,0,0,0-.117.022c-.037.011-.073.026-.109.04a.874.874,0,0,0-.207.127.62.62,0,0,0-.24.049l-.116.048a.789.789,0,0,1-.123.028.468.468,0,0,0-.257-.008c-.084.014-.169.043-.256.065a.452.452,0,0,1-.133.011c-.044,0-.089-.006-.134-.011l-.134-.013a.926.926,0,0,0-.136-.015,1.182,1.182,0,0,0-.135-.025l-.069-.008-.068-.013a1.6,1.6,0,0,1-.273-.067,1.474,1.474,0,0,1-.282-.062.848.848,0,0,1-.251-.153c-.024-.007-.047-.015-.07-.024s-.044-.022-.065-.034c-.043-.024-.085-.05-.127-.076a2.8,2.8,0,0,1-.241-.177.919.919,0,0,1-.129-.079c-.039-.033-.076-.068-.111-.1l-.108-.108c-.035-.036-.067-.077-.1-.112a.879.879,0,0,1-.177-.254.663.663,0,0,0-.205-.236,4,4,0,0,1-.293-.564l-.047-.154c-.016-.052-.034-.1-.045-.155-.024-.105-.059-.207-.092-.312a.7.7,0,0,0,0-.33c-.013-.107-.043-.215-.068-.325a2.21,2.21,0,0,1,0-.332c.014-.109.041-.217.063-.323a2.924,2.924,0,0,1,.072-.318,1.194,1.194,0,0,1,.053-.153l.06-.15a.481.481,0,0,1,.023-.077c.011-.025.022-.049.035-.072.025-.048.053-.093.08-.139l.04-.069c.015-.022.03-.043.044-.066a.8.8,0,0,0,.071-.142.729.729,0,0,1,.181-.255,1.747,1.747,0,0,0,.2-.235c.03-.042.058-.086.092-.125s.07-.075.108-.11a1.473,1.473,0,0,1,.117-.1,1,1,0,0,1,.137-.071,1.186,1.186,0,0,1,.263-.141.762.762,0,0,0,.128-.07.528.528,0,0,0,.057-.047.438.438,0,0,0,.055-.053c.084-.05.156-.126.241-.174a.37.37,0,0,1,.292-.041.8.8,0,0,1,.275-.059l.069-.008.069-.006a.446.446,0,0,0,.132-.04.363.363,0,0,0,.139.023.568.568,0,0,0,.133-.01c.044-.008.088-.018.132-.027a.424.424,0,0,1,.132-.013c.087.014.173.032.258.041a.983.983,0,0,0,.255.016.461.461,0,0,1,.128,0,1,1,0,0,1,.119.04,1.632,1.632,0,0,0,.232.082.422.422,0,0,1,.222.09c.034.021.066.045.1.065a.251.251,0,0,0,.111.035,2.477,2.477,0,0,1,.384.23.2.2,0,0,1,.2.088c.046.058.08.127.125.179a.66.66,0,0,0,.167.118.208.208,0,0,1,.108.169.2.2,0,0,1,.158.115c.028.058.042.125.066.181.05.108.166.171.175.294a.145.145,0,0,1,.063.058.239.239,0,0,1,.023.078.3.3,0,0,0,.044.15c0,.107.072.18.092.269a.539.539,0,0,1,.052.121.494.494,0,0,1,.008.126c.013.079.029.151.037.219q.011.156.016.273a1.541,1.541,0,0,1-.013.2c-.012.107-.029.161-.048.161" transform="translate(-11.759 -22.177)"/>
      <path id="Path_810" data-name="Path 810" d="M4.466,74.674c-.03-.023-.01-.108.052-.243l.035-.071a.183.183,0,0,1,.041-.079c.059.006-.034-.107.049-.087.039-.014.045-.055.054-.094s.072-.041.061-.1c-.052-.092.136,0,.067-.108a.194.194,0,0,1,.073-.115c.087.009.058-.074.078-.12.1.016.1-.048.084-.127.128.035.146-.019.089-.132.03-.045.1-.06.094-.138a.347.347,0,0,1,.1-.142c-.029-.1.011-.142.1-.147-.032-.1.034-.13.108-.151s.017-.147.112-.155c.044-.047.065-.115.116-.159.07-.03.143-.058.12-.162.025-.067.044-.139.124-.165-.032-.112.044-.142.127-.168.031-.066.128-.081.13-.17.056-.048.056-.139.133-.172s.133-.081.134-.171.108-.1.133-.168c.113,0,.063-.129.132-.164.035-.06.125-.078.129-.161a.26.26,0,0,1,.128-.156c-.066-.136.109-.083.125-.152.084-.016.072-.107.122-.146.018-.066.126-.061.12-.142.047-.041.04-.122.117-.137-.017-.087.116-.057.113-.13a.656.656,0,0,1,.11-.125c.117.022.08-.074.107-.119s.015-.117.1-.112c.038-.034.1-.043.1-.106.017-.046.177.022.093-.1.008-.05.138,0,.089-.092s.058-.056.084-.084l.078-.077c.226-.216.378-.324.422-.289s-.039.248-.231.575c-.019.033.015.109-.061.1-.025.032-.007.1-.067.108.05.095-.04.081-.073.115s-.079.058-.078.12-.084.062-.084.127c-.08,0-.1.055-.089.132-.08.007-.058.094-.094.137-.105-.01-.091.074-.1.143s-.083.085-.1.147c-.051.037-.058.111-.108.152a.148.148,0,0,1-.112.155c-.017.069-.076.106-.116.159-.012.074-.086.1-.12.162s-.16.049-.124.165c-.033.063-.1.1-.127.168a.392.392,0,0,0-.13.17c-.121,0-.118.091-.133.172a.38.38,0,0,1-.134.171.968.968,0,0,1-.133.168c-.021.074-.12.085-.131.164s-.12.081-.129.161a.189.189,0,0,1-.128.156c-.041.053-.152.05-.125.152-.025.062.024.181-.122.147-.011.071-.128.058-.12.142-.116-.014-.078.092-.117.136s-.113.059-.113.131-.09.072-.11.125c.012.078-.125.038-.107.119-.042.033-.056.086-.1.113.076.121-.06.076-.1.105s.015.127-.093.1c.054.1-.042.077-.088.092s-.015.09-.084.084c.034.074-.077.034-.078.077-.059,0-.044.051-.073.068a.07.07,0,0,1-.067.06l-.06.052c-.115.093-.193.133-.222.11" transform="translate(-2.908 -45.078)"/>
      <path id="Path_811" data-name="Path 811" d="M43.154,74.657c-.03.023-.107-.017-.222-.11l-.06-.051a.177.177,0,0,1-.067-.06c.02-.055-.112.007-.073-.068,0-.041-.042-.057-.078-.076s-.022-.08-.084-.084c-.1.027.034-.132-.088-.092a.194.194,0,0,1-.094-.1c.03-.082-.057-.075-.1-.105.04-.094-.022-.11-.1-.113.065-.116.018-.146-.106-.119-.036-.04-.033-.113-.11-.125-.041-.04-.095-.071-.113-.131-.1,0-.135-.045-.117-.136-.107.006-.118-.065-.12-.142s-.138-.053-.122-.146c-.035-.055-.1-.091-.125-.152-.012-.075-.022-.152-.127-.156-.059-.04-.124-.076-.13-.16-.117,0-.127-.078-.131-.164-.056-.046-.047-.143-.133-.168-.033-.066-.121-.089-.134-.172s-.045-.149-.133-.172-.069-.128-.13-.17c.026-.11-.109-.094-.127-.168-.049-.05-.044-.14-.123-.165a.262.262,0,0,1-.12-.162c-.147.031-.053-.126-.116-.159.005-.086-.085-.1-.112-.155-.059-.034-.027-.136-.108-.151-.029-.055-.109-.068-.1-.147-.089-.005-.027-.127-.1-.142a.641.641,0,0,1-.094-.137c.05-.108-.051-.1-.089-.132s-.11-.044-.084-.127c-.024-.044-.017-.11-.079-.121-.041-.027.065-.167-.073-.115-.046-.019.033-.134-.067-.109s-.04-.069-.061-.1l-.054-.095c-.154-.272-.221-.446-.177-.48s.231.1.5.366c.027.027.109.012.083.084.025.033.1.031.089.092.1-.026.069.059.093.1s.037.091.1.105.039.1.1.113c-.015.077.029.11.107.119-.013.079.077.079.11.125-.036.1.049.106.113.13s.062.1.117.136c.024.059.093.083.12.142.072.024.124.064.123.147.063.033.085.1.125.152.069.031.079.108.128.156s.008.167.129.16c.053.047.074.12.131.164a.393.393,0,0,0,.133.168c-.034.117.059.137.134.172a.375.375,0,0,1,.133.172.975.975,0,0,1,.13.17c.066.038.053.137.127.168s.049.136.123.165a.19.19,0,0,1,.12.162c.041.052.01.159.116.159.054.039.182.022.112.155.066.028.024.139.108.151-.042.109.07.1.1.147s.03.125.1.142.048.1.094.137c.079.007.007.131.089.132.022.049.07.075.084.127.137-.044.059.077.079.121s.127.017.073.115c.107-.028.063.059.067.109s.083.036.061.1c.08-.014.014.082.055.095-.017.057.039.054.048.087a.071.071,0,0,1,.042.079l.034.071c.062.134.082.219.052.242" transform="translate(-25.308 -45.067)"/>
    </g>
  </g>
</svg>
