<svg xmlns="http://www.w3.org/2000/svg" xmlns:xlink="http://www.w3.org/1999/xlink" width="27.902" height="24.149" viewBox="0 0 27.902 24.149">
  <defs>
    <clipPath id="clip-path">
      <rect id="Rectangle_239" data-name="Rectangle 239" width="27.902" height="24.149"/>
    </clipPath>
  </defs>
  <g id="Group_355" data-name="Group 355" transform="translate(0)">
    <g id="Group_293" data-name="Group 293" transform="translate(0 0)" clip-path="url(#clip-path)">
      <path id="Path_812" data-name="Path 812" d="M64.451,17.822a4.356,4.356,0,0,1-.1-1.077c0-.117-.01-.243-.015-.376s-.015-.294-.016-.457h.133a.806.806,0,0,0,.319-.016l.034-.007.03-.006a.422.422,0,0,1,.06-.007.279.279,0,0,1,.123.022,2.519,2.519,0,0,0,.521-.014,4.079,4.079,0,0,0,.567-.013c.2-.092.4.1.61-.013a2.658,2.658,0,0,1,.321-.018h.236l.263,0c.021.006.042.009.063.013a2.336,2.336,0,0,0-.01.491l0,.03,0,.02,0,.04.01.081c.007.054.012.109.015.164a1.267,1.267,0,0,0,.011.731.914.914,0,0,0,.01.767,4.547,4.547,0,0,0,.01.8,8.181,8.181,0,0,1,.009.834,1.757,1.757,0,0,1,.008.866,2.129,2.129,0,0,1,.007.894c-.047.3.073.61.007.922-.005.311.019.628.005.948a2.837,2.837,0,0,0,0,.972,4.987,4.987,0,0,1,0,.993,2.553,2.553,0,0,1,0,1.014,10.012,10.012,0,0,0,0,1.032c-.013.347.039.7,0,1.049a4.683,4.683,0,0,0,0,1.049,10.181,10.181,0,0,1,0,1.032,6.37,6.37,0,0,0,0,1.014c0,.039,0,.078,0,.117l0,.2q-.005.209-.011.416c-.163,0-.321-.007-.477-.007l-.117,0h-.037l-.033,0c-.044,0-.087.007-.131.013a6.256,6.256,0,0,1-.971,0c-.32.128-.636-.034-.948-.006-.044-.008-.088-.013-.132-.016l-.033,0-.04,0-.114,0c-.151,0-.3,0-.459.007,0-.116-.006-.232-.01-.348q0-.089,0-.178v-.128c-.024-.3.059-.6.007-.895a6.483,6.483,0,0,1,.008-.865c-.063-.283.053-.562.009-.834,0-.273,0-.54.01-.8a1.867,1.867,0,0,0,.011-.766,3.111,3.111,0,0,1,.011-.731,3.313,3.313,0,0,0,.012-.693c-.015-.224.145-.441.012-.652-.024-.211.1-.414.013-.611s.01-.385.014-.566.01-.355.014-.521a13.838,13.838,0,0,1,.147-2.351,18.589,18.589,0,0,1,.162,2.872,1.638,1.638,0,0,1,.013.566,3.084,3.084,0,0,1,.013.611,1.466,1.466,0,0,1,.012.652,5.006,5.006,0,0,0,.012.693c.054.237-.027.481.011.731a1.806,1.806,0,0,0,.01.766,4.019,4.019,0,0,0,.01.8,1.947,1.947,0,0,0,.009.834c.032.283-.012.572.008.865-.016.293.022.592.007.895l.007.049v.013s0,0,0,0l0,0,.01.012.013.012a.023.023,0,0,1,.022,0l.006,0s.015,0,.024,0l.033,0c.044,0,.087.011.132.017.312-.027.628-.006.948-.006.32-.034.644,0,.971,0,.044,0,.087,0,.131,0h.06l.011,0a.316.316,0,0,0,.065.023.088.088,0,0,0,0-.052.046.046,0,0,0,0-.014l0-.007,0,0,0-.014a.964.964,0,0,0-.025-.117c-.012-.335.015-.673,0-1.014a9.393,9.393,0,0,0,0-1.032,2.862,2.862,0,0,0,0-1.049,9,9,0,0,1,0-1.049c-.01-.347,0-.692,0-1.032-.027-.341.04-.679,0-1.014s.042-.666,0-.993a4.285,4.285,0,0,1,0-.972,3.794,3.794,0,0,0,.006-.948,1.942,1.942,0,0,1,.006-.922c-.033-.3.062-.6.007-.894a2.744,2.744,0,0,0,.008-.866,3.9,3.9,0,0,0,.009-.834,7.052,7.052,0,0,1,.01-.8c-.055-.262.071-.518.01-.767.012-.25-.009-.493.011-.731a.466.466,0,0,1-.053-.164.61.61,0,0,1,0-.081c0-.013,0-.027,0-.04l0-.02s0,0,0-.006a.371.371,0,0,0,.058-.123.039.039,0,0,0-.014,0,.147.147,0,0,0-.067,0,.2.2,0,0,0-.032.01l-.016,0-.041,0a.586.586,0,0,1-.321-.036,1.028,1.028,0,0,1-.61-.013,4.025,4.025,0,0,1-.567-.013c-.182.068-.355-.038-.521-.014a.581.581,0,0,0-.123-.02l-.06,0h-.056a.66.66,0,0,1-.137,0,.369.369,0,0,1-.049.007.469.469,0,0,1-.022.188q-.008.2-.015.373a4.316,4.316,0,0,1-.1,1.077" transform="translate(-43.075 -10.632)"/>
      <path id="Path_813" data-name="Path 813" d="M64.372,27.285H64.1c-.024,0,.059,0,.007,0h.435c-.028,0,.041,0-.013,0h-.162Z" transform="translate(-42.996 -18.313)"/>
      <path id="Path_814" data-name="Path 814" d="M64.413,32.7h0Z" transform="translate(-43.037 -21.946)"/>
      <path id="Path_815" data-name="Path 815" d="M46.322,36.8a2.315,2.315,0,0,1-.1-.78c-.005-.084-.01-.174-.016-.271a2.2,2.2,0,0,1-.015-.308c.047-.109-.087-.223-.015-.343a1.327,1.327,0,0,0-.014-.378,2.093,2.093,0,0,0-.013-.41c-.092-.142.1-.289-.013-.442a2.447,2.447,0,0,1-.012-.473,1.036,1.036,0,0,0-.012-.5.68.68,0,0,0-.011-.529.5.5,0,0,0-.011-.555,2.39,2.39,0,0,0-.01-.581,4.389,4.389,0,0,1-.009-.6c0-.008-.005-.013-.008-.023l-.008-.039c0-.027-.009-.054-.013-.082-.008-.055-.014-.112-.019-.17a3.4,3.4,0,0,1-.01-.346,3.63,3.63,0,0,1,.526.049L46.609,30l.036-.006h.014l.01,0a.756.756,0,0,1,.08-.017.948.948,0,0,1,.161-.009,2.015,2.015,0,0,1,.327.044c.219.046.442-.073.668-.007.226,0,.455-.019.686,0a3.3,3.3,0,0,0,.346.039h.138l.151-.006c.1-.007.212-.018.337-.036l0,.012c0,.106.011.213.016.32s.007.207.011.31a1.654,1.654,0,0,1-.023.361,1.352,1.352,0,0,1,0,.734,5.349,5.349,0,0,0,0,.747c-.014.252.039.5,0,.759a2.472,2.472,0,0,0,0,.76,5.3,5.3,0,0,1,0,.747c-.084.247.027.492,0,.734a4.779,4.779,0,0,0,0,.719,3.226,3.226,0,0,1,0,.7c.128.231-.033.46-.006.686a3.747,3.747,0,0,0-.006.668,4.971,4.971,0,0,0-.007.648,3.432,3.432,0,0,1-.008.627c.063.205-.054.406-.009.6,0,.2,0,.391-.01.58a.478.478,0,0,0-.045.281c0,.046.013.092.02.138l.01.068c0,.009,0,.031,0,.049l0,.056c-.005.153.01.313.017.477a1.652,1.652,0,0,1-.432-.028c-.163,0-.218-.017-.307-.024a.743.743,0,0,0-.247.012c-.163.015-.32-.146-.472-.012-.153.024-.3-.1-.443-.013s-.279-.01-.41-.014l-.378-.014-.635-.023c.005-.13.01-.253.015-.369,0-.028,0-.055,0-.082l0-.061c0-.04,0-.078.007-.115.01-.147.02-.272.031-.372.021-.2.042-.308.065-.308s.044.106.065.308c.01.1.021.225.031.372,0,.037,0,.075.008.115,0,.019,0,.039,0,.059s0,.027,0,.041c0,.052.009.106.014.163l.128-.01.063,0h.043l.055,0,.474-.018c.131,0,.268-.075.41-.014a1.638,1.638,0,0,1,.443-.013c.152-.092.309-.017.472-.012.081,0,.163,0,.247.007s.194,0,.2-.018c.021-.026.039-.021.076-.013a.092.092,0,0,0,0-.088l.01-.011a.033.033,0,0,0,.008-.019c0-.023.009-.046.012-.068a.843.843,0,0,0,.006-.138,1.213,1.213,0,0,0-.046-.281,2.1,2.1,0,0,0-.01-.58,1.038,1.038,0,0,0-.009-.6c-.031-.206.013-.414-.008-.627.016-.213-.022-.428-.007-.648a1.676,1.676,0,0,1-.006-.668A5.607,5.607,0,0,1,49,36.9a6.6,6.6,0,0,1,0-.7c-.018-.237.091-.477,0-.719-.012-.242.015-.487,0-.734a4.892,4.892,0,0,0,0-.747,1.512,1.512,0,0,0,0-.76,4.721,4.721,0,0,1,0-.759c-.01-.251,0-.5,0-.747-.027-.247.04-.492,0-.734a1.429,1.429,0,0,1,0-.361c0-.041.005-.032.007-.039a.057.057,0,0,0,.005-.016c0-.011,0-.021-.011-.021h0a.287.287,0,0,0-.033.016l-.009.006h-.019a1.677,1.677,0,0,1-.346-.03,2,2,0,0,0-.686-.006c-.226.018-.449.124-.668-.006a1.247,1.247,0,0,1-.327-.012,1.488,1.488,0,0,0-.161-.012.652.652,0,0,0-.08,0h-.016l0,0a.03.03,0,0,0-.008.009.1.1,0,0,0-.1-.042.29.29,0,0,0,.02.069l.01.027s0,.007,0,.011v.026a2.059,2.059,0,0,0-.009.6,3.707,3.707,0,0,1-.009.581c.054.189-.071.375-.011.555-.012.181.008.357-.011.529.128.172,0,.339-.012.5s.085.32-.012.473c.1.153.013.3-.013.442s.041.279-.013.41c.068.132-.038.257-.015.378a1.233,1.233,0,0,0-.014.343.779.779,0,0,1-.015.308c-.005.1-.011.187-.015.271a2.319,2.319,0,0,1-.1.78" transform="translate(-30.883 -20.11)"/>
      <path id="Path_816" data-name="Path 816" d="M46.341,56.17h-.283c-.015,0-.032,0,0,0h.1c-.083,0,.01,0,.013,0H46.5s.074,0,.013,0h.1c.034,0,0,0,0,0h0s-.085,0-.006,0h-.274Z" transform="translate(-30.901 -37.7)"/>
      <path id="Path_817" data-name="Path 817" d="M46.359,61.586h0Z" transform="translate(-30.919 -41.335)"/>
      <path id="Path_818" data-name="Path 818" d="M28.4,24.962A3.5,3.5,0,0,1,28.3,24c0-.1-.01-.216-.016-.336a3.291,3.291,0,0,1-.015-.381c.047-.135-.088-.276-.014-.425a2.009,2.009,0,0,0-.014-.467,3.236,3.236,0,0,0-.013-.508.241.241,0,0,1-.026-.117c0-.011,0-.018,0-.031s0-.031,0-.046.008-.061.013-.09a.97.97,0,0,0,.023-.349.274.274,0,0,0,.076-.029c.068-.006.141-.011.216-.013l.114,0h.1c.1,0,.2,0,.3,0a1.57,1.57,0,0,0,.621-.012,1.021,1.021,0,0,0,.655-.011.744.744,0,0,0,.688-.011h.135l.146,0,.287.009c0,.1,0,.2,0,.3,0,.049,0,.1.008.149a.992.992,0,0,0,.015.134,6.654,6.654,0,0,1,.009.748,1.423,1.423,0,0,1,.008.776,1.721,1.721,0,0,1,.007.8c-.047.272.073.547.006.827,0,.279.019.563.006.849a2.3,2.3,0,0,0,0,.871,3.992,3.992,0,0,1,0,.891,2.056,2.056,0,0,1,0,.91,8.04,8.04,0,0,0,0,.925c-.014.311.039.624,0,.94a3.748,3.748,0,0,0,0,.94,8.349,8.349,0,0,1,0,.925,5.118,5.118,0,0,0,0,.909,7.259,7.259,0,0,0,0,.891,4.906,4.906,0,0,1,0,.871.718.718,0,0,1,.038.406l-.008.05,0,.012,0,.022,0,.047q-.008.092-.016.182a3.4,3.4,0,0,0-.015.353l-.074,0c-.138-.013-.261-.02-.382-.022h-.166l-.1,0a3.99,3.99,0,0,1-.41.012,7.607,7.607,0,0,0-.8-.007,5.168,5.168,0,0,1-.776-.009.635.635,0,0,1-.132.019h-.075l-.116,0c-.154-.007-.295-.021-.432-.03a2.386,2.386,0,0,0-.005-.383q0-.222,0-.44c0-.12,0-.238.01-.355a1.5,1.5,0,0,0,.01-.688,2.532,2.532,0,0,1,.011-.655,2.662,2.662,0,0,0,.012-.621c-.015-.2.145-.4.012-.585-.023-.188.1-.371.013-.547s.01-.346.013-.508.01-.319.014-.467a11.156,11.156,0,0,1,.147-2.108,15,15,0,0,1,.161,2.575,1.314,1.314,0,0,1,.014.508,2.516,2.516,0,0,1,.013.547c.093.189.016.384.012.585a3.979,3.979,0,0,0,.012.621c.054.212-.027.431.011.655a1.466,1.466,0,0,0,.01.688,1.14,1.14,0,0,0-.015.355q.012.14.025.283a.183.183,0,0,0-.043.1c.077.009.1-.028.316-.051.254-.032.513.013.776-.008.263.016.53-.022.8-.007a3.161,3.161,0,0,1,.41-.037h.126l.006,0c.008,0,.019.013.042.025l0,0a.163.163,0,0,1-.01-.036.1.1,0,0,1,0-.013v-.069c0-.135.007-.27.007-.406-.034-.287,0-.577,0-.871a3.453,3.453,0,0,0,0-.891c-.012-.3.015-.6,0-.909a7.623,7.623,0,0,0,0-.925,2.3,2.3,0,0,0,0-.94,7.3,7.3,0,0,1,0-.94c-.009-.311,0-.619,0-.925-.027-.306.04-.609,0-.91s.042-.6,0-.891a3.474,3.474,0,0,1,0-.871,3.026,3.026,0,0,0,.005-.849,1.567,1.567,0,0,1,.007-.827c-.033-.272.062-.539.007-.8a2.208,2.208,0,0,0,.008-.776,3.151,3.151,0,0,0,.009-.748.11.11,0,0,0-.012-.045.047.047,0,0,1,0-.019.223.223,0,0,1,.009-.049.155.155,0,0,0-.036-.014l-.024,0h-.038c-.234.054-.464-.071-.688-.01-.224-.012-.442.008-.655-.011-.213.128-.42,0-.621-.012a1.467,1.467,0,0,0-.3.024l-.018,0-.007,0-.011,0a.059.059,0,0,1-.022,0,.322.322,0,0,1-.076-.04c0,.012,0,.021,0,.028.024.052.02.062.007.085l-.012.018-.006.011c0,.006,0,.019-.007.028-.009.039-.017.078-.023.117-.028.176.041.345-.014.508.068.163-.037.319-.014.467a1.891,1.891,0,0,0-.015.425,1.169,1.169,0,0,1-.015.381q-.008.18-.015.336a3.48,3.48,0,0,1-.1.966" transform="translate(-18.9 -14.21)"/>
      <path id="Path_819" data-name="Path 819" d="M28.275,38.117h-.291c.014,0-.039,0,0,0h.059c.1,0,.017,0,.01,0H28.5c-.057,0-.042,0,.01,0h.059c.027,0,.013,0,0,0h-.291Z" transform="translate(-18.772 -25.583)"/>
      <path id="Path_820" data-name="Path 820" d="M28.3,43.532h0Z" transform="translate(-18.801 -29.217)"/>
      <path id="Path_821" data-name="Path 821" d="M10.211,46.336a2.106,2.106,0,0,1-.1-.743c0-.08-.01-.166-.015-.258a1.953,1.953,0,0,1-.015-.293c.047-.1-.088-.212-.015-.327a1.178,1.178,0,0,0-.014-.359,1.921,1.921,0,0,0-.013-.391c-.092-.135.1-.276-.013-.422a2.188,2.188,0,0,1-.012-.449c.07-.155,0-.314-.012-.477a.617.617,0,0,0-.011-.5.457.457,0,0,0-.01-.529,2.167,2.167,0,0,0-.01-.553,3.991,3.991,0,0,1-.009-.576.852.852,0,0,1-.008-.6,1.03,1.03,0,0,1-.007-.618c.047-.208-.073-.421-.007-.636.006-.215-.019-.433,0-.653l.019-.13,0-.033,0-.016v-.022l.007-.112a3.426,3.426,0,0,0,0-.452,2.079,2.079,0,0,0,.237-.036l.31-.015.036,0h.022l.042,0,.086,0a1.523,1.523,0,0,1,.344.023,1.228,1.228,0,0,1,.7,0,4.849,4.849,0,0,0,.712,0,3.149,3.149,0,0,0,.361-.01h.061l.086,0h.172c.114,0,.228,0,.331.014-.006.116-.012.231-.018.346,0,.055,0,.11-.007.164l0,.14a1.51,1.51,0,0,0,.03.36,4.945,4.945,0,0,1,0,.712c-.083.235.027.469,0,.7a4.3,4.3,0,0,0,0,.686,2.942,2.942,0,0,1,0,.67c.128.221-.033.439-.006.653a3.376,3.376,0,0,0-.006.636,4.5,4.5,0,0,0-.007.617,3.087,3.087,0,0,1-.008.6c.063.2-.054.387-.009.575,0,.188,0,.372-.01.553-.1.18-.017.357-.01.529-.011.173.057.34-.011.5,0,.082-.017.163-.024.242a1.025,1.025,0,0,0,0,.119c0,.02,0,.037,0,.061s.006.061.011.092a.7.7,0,0,1-.021.206c-.014.061-.032.112-.04.167a.262.262,0,0,0-.223.049.741.741,0,0,1-.168,0l-.081-.012-.053-.014a.243.243,0,0,0-.207.018c-.135.082-.266-.01-.391-.014l-.359-.014a6.655,6.655,0,0,1-1.621-.147,8.881,8.881,0,0,1,1.98-.161c.125,0,.255-.075.391-.014a1.749,1.749,0,0,0,.207-.021l.053-.005h.021a.123.123,0,0,1,.048.015c.006-.037.01-.047.029-.046,0-.012.009-.018.016-.029a.088.088,0,0,0,.017-.044.179.179,0,0,1,0-.023l0-.056c0-.039,0-.079,0-.119a.979.979,0,0,0-.018-.242c-.054-.164.027-.331-.011-.5a.873.873,0,0,0-.011-.529,1.927,1.927,0,0,0-.01-.553.948.948,0,0,0-.009-.575c-.032-.2.012-.395-.009-.6.016-.2-.022-.408-.007-.617a1.53,1.53,0,0,1-.007-.636,5.273,5.273,0,0,1-.006-.653,5.9,5.9,0,0,1,0-.67c-.017-.226.091-.455,0-.686-.012-.23.015-.464,0-.7a4.515,4.515,0,0,0,0-.712.831.831,0,0,0,.048-.36v-.023c0-.009,0-.006,0-.009a.06.06,0,0,0,0-.01.054.054,0,0,0-.012-.016.03.03,0,0,0-.028-.008l-.027.013-.007,0h-.032c-.121,0-.241-.009-.361-.016-.239.01-.476,0-.712,0-.235.028-.468-.04-.7,0a1.3,1.3,0,0,1-.344,0l-.086-.008-.042,0h-.029c-.009,0-.021,0-.023.011a.033.033,0,0,0-.006.016c.007.016.012.022.009.027s0,0,0,0h0v.024l0,.033a1.25,1.25,0,0,1-.021.13,1.8,1.8,0,0,0,0,.653c.018.215.123.427-.007.636.033.209-.062.415-.007.618-.1.2-.005.4-.008.6a1.842,1.842,0,0,0-.009.576,3.322,3.322,0,0,1-.01.553c.055.18-.071.357-.01.529-.012.172.008.34-.011.5.128.163,0,.323-.012.477s.085.3-.012.449c.1.145.013.286-.013.422s.041.265-.013.391c.068.125-.037.245-.014.359-.045.115,0,.224-.014.327a.708.708,0,0,1-.015.293c-.006.092-.011.178-.015.258a2.106,2.106,0,0,1-.1.743" transform="translate(-6.644 -24.898)"/>
      <path id="Path_822" data-name="Path 822" d="M12.638,71.739a2.106,2.106,0,0,1,.743-.1l.258-.015a1.944,1.944,0,0,1,.293-.015c.1.047.212-.088.328-.015a1.159,1.159,0,0,0,.359-.014,1.9,1.9,0,0,0,.391-.013c.135-.092.276.1.421-.013a2.176,2.176,0,0,1,.45-.012c.155.07.313,0,.477-.012a.619.619,0,0,0,.5-.011.456.456,0,0,0,.529-.011,2.166,2.166,0,0,0,.553-.009,3.849,3.849,0,0,1,.575-.009.851.851,0,0,1,.6-.008,1.029,1.029,0,0,1,.617-.007c.209.047.421-.073.636-.006.215.005.433-.019.653-.006a1.364,1.364,0,0,0,.67,0,2.418,2.418,0,0,1,.686,0,1.228,1.228,0,0,1,.7,0,4.9,4.9,0,0,0,.712,0,7.065,7.065,0,0,1,.723,0,2.244,2.244,0,0,0,.723,0,4.807,4.807,0,0,1,.712,0c.235.083.468-.027.7,0a4.259,4.259,0,0,0,.685,0,2.946,2.946,0,0,1,.67,0c.221-.128.439.033.653.006a3.433,3.433,0,0,0,.636.006,4.609,4.609,0,0,0,.617.007,3.083,3.083,0,0,1,.6.008c.2-.063.388.054.576.009.188,0,.372,0,.553.009.18.1.357.017.529.011.172.011.34-.057.5.011a1.6,1.6,0,0,0,.477.012c.155-.015.3.145.45.012.145-.024.286.1.421.013s.266.01.391.013l.36.014a6.671,6.671,0,0,1,1.621.148A8.938,8.938,0,0,1,34.4,71.9c-.125,0-.255.075-.391.013a1.469,1.469,0,0,1-.421.013c-.145.093-.295.017-.45.012a2.382,2.382,0,0,0-.477.012c-.164.054-.332-.027-.5.011a.873.873,0,0,0-.529.01,1.915,1.915,0,0,0-.553.01.944.944,0,0,0-.576.009c-.2.031-.395-.013-.6.008-.2-.017-.408.022-.617.007a1.53,1.53,0,0,1-.636.006,5.031,5.031,0,0,1-.653.006,5.833,5.833,0,0,1-.67,0c-.226.018-.454-.091-.685,0-.231.012-.464-.015-.7,0a4.436,4.436,0,0,0-.712,0,1.371,1.371,0,0,0-.723,0,4.347,4.347,0,0,1-.723,0c-.24.009-.477,0-.712,0-.235.028-.469-.04-.7,0s-.459-.043-.686,0a2.055,2.055,0,0,1-.67,0,1.811,1.811,0,0,0-.653-.006c-.215.018-.427.124-.636-.006-.209.032-.415-.063-.617-.007-.2-.1-.4,0-.6-.008a1.85,1.85,0,0,0-.575-.009,3.323,3.323,0,0,1-.553-.01c-.18.055-.357-.071-.529-.01-.172-.013-.34.008-.5-.011-.164.128-.323,0-.477-.012s-.3.085-.45-.012c-.145.1-.285.013-.421-.013s-.265.041-.391-.013c-.125.068-.245-.038-.359-.014-.115-.045-.224,0-.328-.015a.705.705,0,0,1-.293-.015l-.258-.016a2.112,2.112,0,0,1-.743-.1" transform="translate(-8.482 -47.922)"/>
      <path id="Path_823" data-name="Path 823" d="M7.22,71.838v-.223c0,.116,0,.1,0-.011v-.04c0,.005,0-.019,0-.006v-.012h0V71.6c0,.1,0,.017,0,.011v.076c0,.044,0,.094,0,.148s0,.115,0,.161v.062c0-.057,0-.042,0,.01v.058h0v-.013s0-.085,0-.006v-.04c0,.055,0-.071,0-.01v-.223Z" transform="translate(-4.846 -48.02)"/>
      <path id="Path_824" data-name="Path 824" d="M1.806,71.838c0-.036,0-.07,0-.1v-.189h0v.144c0,.044,0,.094,0,.148s0,.115,0,.161v.13h0v-.19c0-.032,0-.066,0-.1" transform="translate(-1.212 -48.02)"/>
      <path id="Path_825" data-name="Path 825" d="M0,71.739a.283.283,0,0,1,.019-.1l.007-.015c0-.01,0-.02.007-.015,0,.047.005-.088.008-.015,0,.022.006,0,.009-.014s.006.03.01-.013c0-.092.007.1.01-.013,0-.025.008-.018.012-.012,0,.07.008,0,.012-.012,0,.085.009.048.013-.011,0,.116.009.1.013-.011,0,0,.01.042.014-.009,0-.008.01-.03.014-.009,0-.078.01-.074.015-.008,0-.083.01-.05.015-.007s.011-.073.016-.006c.005.005.011-.019.016-.006.005.034.011.073.016,0,.006-.02.012-.048.017,0,.006-.089.012-.049.017,0,.006-.015.012.048.018,0,.006.014.012-.039.018,0s.012.052.018,0,.012.024.018,0c.006.083.012-.027.017,0,.006-.008.012.048.017,0,.006-.015.012-.031.016,0,.006-.128.012.033.017.006.005.054.011-.008.016.006,0-.024.01.059.015.007.005.011.01-.041.015.008,0-.063.01.054.014.009,0,0,.01,0,.014.009,0,.1.009.017.013.011,0,.011.008-.057.012.011,0,.008.009.052.012.012,0-.015.007.145.011.012,0-.024.007.1.011.013s.007.01.01.013l.009.014a.294.294,0,0,1,.04.148.285.285,0,0,1-.05.161s-.006.075-.01.013c0,0-.007.054-.011.013,0,.093-.007.017-.011.012s-.008-.025-.012.012c0,.054-.008-.027-.012.011,0-.057-.009-.042-.013.01,0-.056-.009.012-.014.01,0-.085-.009-.025-.014.009S.437,71.978.432,72c0-.017-.01.022-.015.007-.005.04-.011.055-.016.006-.005.028-.011.006-.017.006,0,.034-.011,0-.016,0s-.011-.091-.017,0c-.006.012-.012-.015-.017,0-.006-.012-.012-.025-.018,0C.309,71.937.3,72,.3,72.031s-.012.013-.018,0c-.006.009-.012,0-.018,0-.006.028-.012-.04-.017,0s-.011-.043-.017,0-.011.042-.016,0c-.006,0-.011-.085-.016-.006-.005.018-.011.124-.016-.006-.005.032-.01-.063-.015-.007-.005-.1-.011,0-.015-.008,0-.019-.01-.051-.014-.009s-.009-.025-.014-.01c0,.055-.009-.071-.013-.01,0-.013-.009.008-.013-.011,0,.128-.008,0-.012-.012s-.008.085-.012-.012c0,.1-.007.013-.01-.013s-.007.041-.01-.013c0,.068-.006-.038-.009-.014,0-.045-.006,0-.008-.015,0,.015-.005.01-.007-.015l-.007-.016a.282.282,0,0,1-.019-.1" transform="translate(0 -47.922)"/>
      <path id="Path_826" data-name="Path 826" d="M54.908,10.43c-.022-.028,0-.087.052-.17l.03-.043a.088.088,0,0,1,.036-.047c.045.025-.021-.095.041-.051.031,0,.037-.027.047-.055s.058-.007.052-.057c-.036-.089.105.047.057-.061.007-.037.034-.05.062-.064.067.037.048-.037.066-.066.078.047.081,0,.071-.069.1.071.114.036.075-.072.026-.025.082-.011.079-.074.024-.028.041-.069.084-.076-.018-.085.015-.106.087-.077-.02-.09.032-.089.091-.08s.02-.108.094-.081c.036-.022.055-.067.1-.083.055,0,.113,0,.1-.084.023-.044.04-.093.1-.085-.019-.1.041-.1.106-.086.027-.04.1-.019.109-.086.045-.018.05-.088.111-.087s.107-.016.111-.086.088-.038.111-.084c.087.037.056-.078.11-.082.031-.034.1-.017.108-.079.026-.039.05-.079.106-.077-.045-.128.088-.026.1-.074.066.017.061-.057.1-.071.018-.044.1,0,.1-.068.037-.016.036-.081.1-.065-.009-.073.092,0,.094-.062a.3.3,0,0,1,.091-.059c.089.057.065-.029.088-.055s.018-.085.084-.052c.03-.013.082,0,.081-.048.015-.03.136.078.077-.044.008-.036.107.047.073-.04s.047-.024.068-.036l.064-.032c.185-.089.307-.12.34-.078s-.042.178-.206.365c-.016.019.006.089-.052.058-.021.016-.01.075-.057.06.035.091-.035.049-.061.064s-.064.018-.067.066-.067.019-.071.069c-.061-.024-.08.009-.075.072-.062-.023-.049.053-.079.074-.082-.045-.074.025-.083.076s-.069.037-.087.078c-.041.012-.049.066-.091.08-.008.057-.031.094-.094.081-.016.048-.064.057-.1.083-.013.054-.071.05-.1.084s-.126-.018-.1.085c-.028.038-.081.044-.106.086a.177.177,0,0,0-.109.087c-.094-.045-.1.029-.111.087a.17.17,0,0,1-.112.086.417.417,0,0,1-.11.084c-.019.05-.1.024-.109.082s-.1.021-.108.079-.044.087-.106.077c-.034.026-.12-.014-.1.074-.022.04.01.149-.1.071-.012.051-.1,0-.1.069-.089-.051-.065.044-.1.065s-.091.007-.094.062-.073.026-.091.059c.006.064-.1-.013-.088.055-.035.011-.047.048-.085.052.054.121-.05.038-.081.048s.005.1-.077.044c.037.093-.036.044-.073.04s-.016.064-.068.036c.023.069-.061,0-.064.032-.046-.022-.036.025-.06.028-.007.024-.025.032-.055.023l-.049.019c-.094.033-.155.037-.177.009" transform="translate(-36.847 -5.078)"/>
      <path id="Path_827" data-name="Path 827" d="M65.935.071c0-.018.026-.034.078-.049a.533.533,0,0,1,.1-.018c.038,0,.083,0,.134,0,.034,0,.07.007.109.011.02,0,.041,0,.062,0a.268.268,0,0,1,.061.02c.023.059.119-.052.135.039.035.041.091.042.144.059s.079.08.15.082c.051-.02.061.02.072.056s.017.072.08.051A.336.336,0,0,1,67.2.453a.1.1,0,0,0,.046.1.721.721,0,0,1,.093.065c-.034.109.037.145.121.191-.068.12-.031.174.1.217a.546.546,0,0,1,.02.123.249.249,0,0,0,.015.061.172.172,0,0,0,.032.059c.01.042.025.084.032.128a.4.4,0,0,1,0,.133.191.191,0,0,1,.054.139.2.2,0,0,1-.016.07.293.293,0,0,1-.048.064c.072.106.012.2-.055.279a.2.2,0,0,0-.04.141.151.151,0,0,1-.067.133c-.022.044-.047.088-.069.134a.467.467,0,0,1-.088.126l-.065.045a.439.439,0,0,0-.062.047.24.24,0,0,0-.047.06.261.261,0,0,0-.031.081.648.648,0,0,1-.1.124.28.28,0,0,1-.146.074c-.044.134-.171.154-.289.151a.472.472,0,0,1-.16.043.33.33,0,0,0-.159.053.821.821,0,0,0-.166.034.37.37,0,0,1-.171,0,1.183,1.183,0,0,0-.167-.039.429.429,0,0,0-.169,0,.211.211,0,0,1-.166-.028c-.025-.013-.05-.027-.076-.038a.263.263,0,0,0-.077-.03.2.2,0,0,0-.14-.087.285.285,0,0,1-.15-.063.7.7,0,0,1-.123-.1.307.307,0,0,0-.128-.094.681.681,0,0,1-.122-.1.384.384,0,0,1-.05-.061.338.338,0,0,1-.033-.072.11.11,0,0,1-.117-.108c-.012-.054-.006-.114-.04-.152a.271.271,0,0,0-.046-.141.365.365,0,0,1-.061-.133.17.17,0,0,1-.023-.068c0-.024,0-.049,0-.073a.335.335,0,0,0,0-.071.152.152,0,0,0-.027-.066c0-.092-.06-.183-.01-.274a.131.131,0,0,1,0-.133c.019-.043.045-.082.029-.128,0-.021.007-.042.01-.063l.016-.061a.55.55,0,0,1,.043-.117.109.109,0,0,0,.083-.1.533.533,0,0,1,.016-.12c.04-.064.026-.164.121-.191a.817.817,0,0,1,.083-.072.168.168,0,0,0,.056-.089c.017-.031.067-.031.1-.039s.065-.023.044-.094c.016-.03.056-.034.09-.038s.064-.014.061-.068c0-.105.1-.057.15-.082a1.263,1.263,0,0,1,.145-.059A1.238,1.238,0,0,1,65.76,0c.116.016.174.041.174.067s-.018.031-.051.047-.081.028-.141.054a1.7,1.7,0,0,0-.467.239c-.036.028-.035.106-.106.085a.221.221,0,0,0-.043.06.073.073,0,0,1-.06.042c.013.051,0,.068-.025.082a.419.419,0,0,0-.073.036c-.017.021-.037.038-.055.059a.111.111,0,0,0-.034.076C64.9.925,64.8.93,64.806,1c-.079.026-.086.094-.056.165a.078.078,0,0,0-.039.083c0,.016,0,.032,0,.048a.142.142,0,0,1,0,.047c-.046.024-.06.056-.053.088a.5.5,0,0,0,.045.1c.032.062-.011.129.021.192a.138.138,0,0,0,0,.049c.005.016.012.032.018.047a.465.465,0,0,1,.017.046.208.208,0,0,1,.013.049A.332.332,0,0,1,64.848,2a.181.181,0,0,1,.015.1.316.316,0,0,1,.062.083.5.5,0,0,0,.053.09.147.147,0,0,1,.043.033.336.336,0,0,1,.034.04.287.287,0,0,0,.069.081c.033.016.044.058.065.092a.086.086,0,0,0,.108.038c.068.025.12.087.2.1.016.009.032.02.048.029l.053.02a.215.215,0,0,0,.113.012.1.1,0,0,0,.107.064.474.474,0,0,0,.119-.042.274.274,0,0,1,.113-.02,1,1,0,0,1,.114,0,1.108,1.108,0,0,1,.107-.031c.036-.008.071-.022.107-.031.056-.052.154-.025.2-.1a.161.161,0,0,1,.09-.061.115.115,0,0,0,.084-.068c.009-.017.018-.033.027-.048a.235.235,0,0,1,.029-.044.244.244,0,0,1,.089-.061c.021-.028.061-.043.087-.068a.082.082,0,0,0,.029-.1A.752.752,0,0,0,67,1.989c0-.036.015-.061.089-.072a.124.124,0,0,1,.037-.094.082.082,0,0,0,.012-.1.1.1,0,0,0,.049-.044.084.084,0,0,0,0-.05.423.423,0,0,1-.027-.1.98.98,0,0,0,.022-.1.117.117,0,0,0-.031-.091A.073.073,0,0,1,67.13,1.3a.152.152,0,0,1,0-.046.148.148,0,0,0-.008-.091c-.036-.019-.029-.051-.023-.085s.005-.067-.033-.08C67.051.942,67,.907,66.99.85c-.068.013-.084-.006-.085-.037s.011-.075,0-.1-.044-.03-.069-.04S66.788.651,66.8.6c-.052.019-.069.006-.08-.018S66.711.521,66.7.5c-.021-.054-.1-.016-.106-.085-.068.036-.058-.072-.106-.07-.018-.061-.072-.033-.1-.057a.1.1,0,0,1-.053-.012.115.115,0,0,1-.043-.034C66.26.225,66.231.211,66.2.2s-.079-.028-.112-.041S66.03.138,66.007.128c-.046-.019-.072-.038-.072-.056" transform="translate(-43.079 0)"/>
      <path id="Path_828" data-name="Path 828" d="M37.224,12.425c.016-.032.067-.044.149-.039l.043,0a.058.058,0,0,1,.047.007c-.007.049.069-.064.052.009.006.027.032.018.056.012s.023.045.061.015c.06-.073-.008.11.064.017.031-.012.049,0,.068.02-.01.073.043.022.071.022-.015.087.025.066.075.025-.028.116,0,.112.077.027.027.009.033.062.081.03.03.006.066,0,.084.032.062-.056.088-.039.087.034.065-.061.079-.017.088.036s.091-.036.091.038c.028.019.068.013.093.04.015.046.03.1.1.042.04,0,.085-.012.1.044.072-.063.086-.012.1.046.039,0,.044.076.1.048.027.029.085,0,.1.05s.044.081.1.051.056.054.1.051c0,.09.077.008.1.051.036.009.042.075.093.051.038,0,.076,0,.091.05.088-.1.046.06.088.05.006.063.063.022.085.05.039-.007.031.082.082.049.023.023.074-.009.08.048.055-.043.03.075.076.048a.193.193,0,0,1,.072.047c-.02.1.042.04.069.046.019.021.073-.027.065.045.019.019.022.069.061.044.028,0-.023.151.057.042.031-.011-.006.111.053.04s.032.028.048.039l.044.037c.123.11.183.2.159.244s-.153.053-.347.007c-.019,0-.069.049-.061-.015-.018-.01-.062.029-.064-.018-.062.073-.049,0-.068-.02s-.033-.044-.071-.023c-.047.037-.034-.046-.075-.025,0-.063-.03-.062-.078-.028,0-.062-.056-.015-.081-.03.012-.09-.041-.049-.084-.032s-.049-.039-.086-.035c-.021-.029-.066-.009-.089-.036-.047.021-.083.02-.091-.038-.042.01-.063-.025-.093-.04-.046.015-.06-.035-.1-.043s-.022-.113-.1-.044c-.037-.005-.058-.046-.1-.046a.115.115,0,0,0-.1-.048c.008-.1-.051-.065-.1-.05s-.073-.022-.1-.05a.269.269,0,0,1-.1-.051c-.045.008-.047-.068-.1-.051s-.044-.07-.093-.051-.081.006-.091-.05c-.031-.015-.023-.107-.088-.05-.037,0-.114.081-.085-.05-.043.014-.029-.085-.082-.049.014-.1-.054-.032-.08-.048s-.031-.072-.076-.048-.04-.048-.072-.047c-.049.036-.017-.088-.069-.046-.018-.023-.051-.016-.065-.045-.08.1-.044-.023-.061-.044s-.08.055-.057-.042c-.064.076-.046-.009-.053-.041s-.055.018-.048-.039c-.048.052-.017-.051-.044-.037,0-.049-.03-.018-.038-.036-.021.006-.032-.006-.034-.034-.011-.011-.02-.022-.029-.032-.052-.061-.073-.11-.057-.143" transform="translate(-24.981 -8.309)"/>
      <path id="Path_829" data-name="Path 829" d="M22.39,13.147c.024.027,0,.089-.05.18-.009.015-.019.032-.03.048a.105.105,0,0,1-.036.052c-.048-.021.024.1-.042.057-.033,0-.038.032-.048.061s-.06.013-.053.065c.04.088-.111-.038-.058.069-.006.039-.035.055-.063.073-.071-.031-.05.043-.067.076-.083-.04-.085.011-.073.079-.1-.062-.12-.025-.077.082-.026.028-.085.02-.081.085-.024.032-.04.075-.085.087.021.085-.013.111-.089.09.024.091-.031.095-.093.092s-.018.114-.1.094c-.037.026-.056.075-.1.1-.058.005-.118.008-.1.1-.022.047-.039.1-.106.1.022.1-.041.1-.109.1-.028.044-.107.03-.111.1-.047.024-.05.1-.114.1s-.111.029-.114.1-.091.049-.114.1c-.092-.029-.056.086-.112.1-.031.038-.1.028-.11.093-.026.043-.051.087-.109.091.05.127-.091.037-.107.087-.07-.01-.062.066-.1.085-.017.047-.1.014-.1.081-.039.02-.036.087-.1.078.011.075-.1.014-.1.074a.341.341,0,0,1-.093.07c-.1-.049-.068.038-.091.067s-.016.09-.087.062c-.031.017-.085.007-.084.059-.014.033-.145-.066-.079.054-.007.038-.113-.036-.075.049s-.049.03-.071.045l-.066.04c-.192.112-.319.158-.354.117s.039-.189.206-.4c.017-.021-.009-.092.053-.065.021-.019.008-.079.058-.069-.039-.09.035-.054.063-.072s.066-.025.068-.076.07-.026.072-.079c.065.019.083-.017.076-.082.066.016.05-.06.081-.085.087.038.077-.034.085-.087s.071-.046.089-.09c.043-.016.05-.074.093-.092.007-.06.03-.1.1-.094.015-.051.064-.065.1-.1.012-.057.073-.059.1-.1s.133,0,.106-.1c.028-.041.083-.054.109-.1a.2.2,0,0,0,.111-.1c.1.036.1-.041.114-.1a.2.2,0,0,1,.115-.1.478.478,0,0,1,.113-.1c.019-.054.1-.036.112-.1s.1-.033.111-.093.043-.094.109-.09c.035-.031.126,0,.107-.088.022-.044-.015-.153.1-.085.012-.054.107-.012.1-.081.1.042.067-.053.1-.079s.095-.016.1-.074.075-.034.094-.07c-.008-.066.1,0,.09-.067.036-.015.048-.054.087-.062-.059-.119.052-.045.084-.059s-.008-.106.079-.054c-.042-.093.036-.05.075-.049s.015-.068.071-.045c-.025-.069.064-.007.066-.04.048.017.037-.03.061-.035.006-.026.025-.036.057-.03l.051-.025c.1-.044.161-.055.185-.028" transform="translate(-12.503 -8.815)"/>
      <path id="Path_830" data-name="Path 830" d="M47.881,14.516c0-.018.026-.034.077-.049a.613.613,0,0,1,.1-.019c.038,0,.083,0,.134,0,.034,0,.07.006.109.011a.49.49,0,0,1,.062,0,.226.226,0,0,1,.061.019c.023.059.12-.051.135.039.035.042.091.042.144.059s.079.08.15.082c.051-.019.061.02.071.056s.018.072.081.051a.341.341,0,0,1,.148.134.1.1,0,0,0,.046.1.64.64,0,0,1,.093.065c-.034.109.036.145.121.191-.068.119-.032.173.1.217a.56.56,0,0,1,.02.123.247.247,0,0,0,.015.061.186.186,0,0,0,.032.059c.01.041.026.084.033.127a.42.42,0,0,1,0,.133.189.189,0,0,1,.053.139.183.183,0,0,1-.016.069.279.279,0,0,1-.048.065c.072.106.012.2-.055.279a.2.2,0,0,0-.04.141.153.153,0,0,1-.067.133c-.022.044-.048.087-.07.133a.464.464,0,0,1-.087.126l-.066.045a.426.426,0,0,0-.062.047.234.234,0,0,0-.047.061.259.259,0,0,0-.031.081.647.647,0,0,1-.1.123.282.282,0,0,1-.145.075c-.044.134-.171.154-.289.151a.481.481,0,0,1-.16.042.331.331,0,0,0-.159.053.885.885,0,0,0-.166.034.359.359,0,0,1-.17,0,1.063,1.063,0,0,0-.167-.039.416.416,0,0,0-.169,0,.211.211,0,0,1-.166-.028c-.026-.012-.05-.026-.076-.037a.285.285,0,0,0-.078-.03.2.2,0,0,0-.14-.086.283.283,0,0,1-.15-.063.7.7,0,0,1-.123-.1.3.3,0,0,0-.128-.094.7.7,0,0,1-.122-.1.416.416,0,0,1-.05-.06.354.354,0,0,1-.033-.073.11.11,0,0,1-.117-.107c-.012-.054-.006-.115-.04-.152a.276.276,0,0,0-.045-.142.352.352,0,0,1-.061-.133.18.18,0,0,1-.023-.069c0-.024,0-.049,0-.073a.333.333,0,0,0,0-.071.152.152,0,0,0-.028-.066c0-.092-.059-.183-.01-.273a.132.132,0,0,1,0-.133c.019-.043.045-.082.029-.128,0-.021.007-.042.01-.063l.016-.061a.578.578,0,0,1,.042-.117.11.11,0,0,0,.084-.1.516.516,0,0,1,.016-.12c.04-.065.026-.164.121-.191a.753.753,0,0,1,.083-.073.17.17,0,0,0,.056-.088c.017-.031.067-.031.1-.04s.065-.023.043-.094c.016-.03.056-.033.09-.038s.064-.015.061-.068c0-.105.1-.057.15-.082a1.3,1.3,0,0,1,.145-.059,1.231,1.231,0,0,1,.5-.068c.116.016.175.041.174.067s-.018.03-.05.046-.082.029-.141.054a1.694,1.694,0,0,0-.467.238c-.036.028-.036.106-.106.085a.24.24,0,0,0-.044.06.072.072,0,0,1-.06.042c.013.051,0,.068-.025.082a.353.353,0,0,0-.073.036c-.017.02-.037.038-.055.058a.11.11,0,0,0-.034.076c.019.075-.084.081-.073.152-.079.025-.086.094-.057.165a.079.079,0,0,0-.038.084c0,.016,0,.032,0,.048a.142.142,0,0,1,0,.047c-.046.024-.06.056-.053.089a.467.467,0,0,0,.045.1c.032.062-.011.129.02.192a.146.146,0,0,0,0,.049.425.425,0,0,0,.018.047.427.427,0,0,1,.017.047.183.183,0,0,1,.013.048.336.336,0,0,1,.068.081.181.181,0,0,1,.014.1.325.325,0,0,1,.062.083.515.515,0,0,0,.053.09.14.14,0,0,1,.042.033.326.326,0,0,1,.034.04.281.281,0,0,0,.07.081c.033.017.044.058.065.092a.085.085,0,0,0,.108.038c.068.026.12.087.2.1.016.01.032.02.049.029s.035.014.053.02a.211.211,0,0,0,.113.012.1.1,0,0,0,.108.065.516.516,0,0,0,.119-.042.286.286,0,0,1,.112-.021,1,1,0,0,1,.113,0c.036-.012.071-.024.108-.032s.07-.021.107-.03c.056-.053.154-.026.2-.1a.161.161,0,0,1,.09-.061.116.116,0,0,0,.083-.068c.009-.017.018-.033.027-.048a.247.247,0,0,1,.029-.044.167.167,0,0,1,.039-.035.205.205,0,0,1,.05-.027c.021-.028.06-.043.087-.068a.083.083,0,0,0,.029-.1.747.747,0,0,0-.005-.112c0-.036.015-.061.089-.072a.126.126,0,0,1,.037-.094.081.081,0,0,0,.012-.1.1.1,0,0,0,.048-.044.082.082,0,0,0,0-.05.449.449,0,0,1-.027-.1.908.908,0,0,0,.022-.1.115.115,0,0,0-.031-.09.078.078,0,0,1-.022-.042.143.143,0,0,1,0-.046.145.145,0,0,0-.008-.09c-.036-.019-.029-.051-.023-.085s.005-.066-.034-.08c-.012-.059-.062-.094-.073-.152-.068.013-.084,0-.085-.037s.011-.075,0-.1-.044-.031-.068-.041-.045-.024-.03-.077c-.051.019-.069.006-.08-.018s-.012-.059-.024-.083c-.021-.054-.1-.015-.106-.085-.069.036-.058-.072-.105-.07-.018-.061-.072-.033-.1-.057a.1.1,0,0,1-.053-.012.11.11,0,0,1-.043-.035c-.031-.012-.06-.027-.087-.037s-.079-.028-.112-.042-.061-.02-.085-.031c-.047-.019-.072-.038-.072-.056" transform="translate(-30.962 -9.695)"/>
      <path id="Path_831" data-name="Path 831" d="M29.827,5.488c0-.018.026-.034.077-.049a.626.626,0,0,1,.1-.019c.038,0,.083,0,.134,0,.034,0,.07.007.109.011a.563.563,0,0,1,.062,0,.239.239,0,0,1,.061.02c.023.059.119-.052.135.039.035.041.09.042.144.059s.079.08.15.082c.051-.02.061.02.071.056s.018.072.081.051a.341.341,0,0,1,.148.134.1.1,0,0,0,.046.1.649.649,0,0,1,.093.065c-.034.109.036.145.121.191-.069.119-.032.174.1.217a.576.576,0,0,1,.02.123.247.247,0,0,0,.015.061.165.165,0,0,0,.032.058c.01.042.026.084.033.128a.393.393,0,0,1,0,.133.188.188,0,0,1,.054.139.183.183,0,0,1-.016.069.3.3,0,0,1-.048.065c.072.106.012.2-.055.279a.2.2,0,0,0-.04.141.153.153,0,0,1-.067.134c-.022.044-.048.087-.07.133a.45.45,0,0,1-.087.125l-.066.046a.429.429,0,0,0-.062.047.22.22,0,0,0-.047.061.248.248,0,0,0-.031.081.647.647,0,0,1-.1.123.277.277,0,0,1-.146.074c-.044.134-.171.155-.289.152a.477.477,0,0,1-.16.042.329.329,0,0,0-.159.053A.887.887,0,0,0,30,8.74a.361.361,0,0,1-.171,0A1.118,1.118,0,0,0,29.66,8.7a.424.424,0,0,0-.17,0,.211.211,0,0,1-.166-.028c-.025-.012-.05-.026-.075-.037a.278.278,0,0,0-.078-.03.2.2,0,0,0-.14-.086.282.282,0,0,1-.15-.063.679.679,0,0,1-.123-.1.3.3,0,0,0-.128-.093.671.671,0,0,1-.122-.1.4.4,0,0,1-.05-.061.353.353,0,0,1-.034-.072.11.11,0,0,1-.116-.108c-.012-.054-.005-.114-.04-.152a.276.276,0,0,0-.046-.142.354.354,0,0,1-.061-.133.171.171,0,0,1-.023-.069c0-.024,0-.049,0-.073a.313.313,0,0,0,0-.071.15.15,0,0,0-.027-.066c0-.092-.059-.183-.01-.273a.132.132,0,0,1,0-.133c.019-.042.045-.082.029-.128,0-.021.007-.042.01-.063l.016-.061A.552.552,0,0,1,28.2,6.44a.11.11,0,0,0,.084-.1.5.5,0,0,1,.016-.12c.04-.065.026-.164.121-.191a.786.786,0,0,1,.084-.073.172.172,0,0,0,.056-.089c.017-.031.067-.031.1-.039s.065-.023.043-.094c.016-.03.055-.033.09-.038s.063-.015.061-.068c0-.105.1-.057.15-.082a1.15,1.15,0,0,1,.144-.059,1.234,1.234,0,0,1,.5-.068c.116.016.175.041.174.067s-.018.03-.051.046-.081.029-.141.054a1.7,1.7,0,0,0-.467.238c-.036.028-.035.106-.106.085a.227.227,0,0,0-.044.06.072.072,0,0,1-.06.042c.013.051,0,.068-.024.082a.374.374,0,0,0-.074.036c-.017.02-.037.038-.055.058a.109.109,0,0,0-.033.076c.018.075-.084.081-.073.152-.079.025-.086.093-.057.165a.079.079,0,0,0-.038.084c0,.016,0,.032,0,.048a.152.152,0,0,1,0,.047c-.046.024-.06.056-.054.089a.483.483,0,0,0,.045.1c.031.062-.011.129.021.192a.157.157,0,0,0,0,.05c0,.015.012.031.018.047s.013.031.017.047a.2.2,0,0,1,.013.048.333.333,0,0,1,.068.081.183.183,0,0,1,.015.1.314.314,0,0,1,.062.083.535.535,0,0,0,.053.09.136.136,0,0,1,.043.033.358.358,0,0,1,.034.04.284.284,0,0,0,.069.081c.033.016.045.058.065.092a.086.086,0,0,0,.108.038c.068.026.12.087.2.1.016.01.032.021.049.029s.035.014.053.02a.21.21,0,0,0,.113.012.1.1,0,0,0,.107.065.5.5,0,0,0,.119-.042.285.285,0,0,1,.112-.021,1.092,1.092,0,0,1,.114,0c.036-.011.071-.024.107-.032s.071-.021.107-.03c.056-.053.153-.025.2-.1a.162.162,0,0,1,.09-.061.116.116,0,0,0,.084-.068c.009-.017.018-.033.027-.048a.229.229,0,0,1,.029-.044.176.176,0,0,1,.039-.035.216.216,0,0,1,.05-.027c.021-.028.061-.043.087-.068a.083.083,0,0,0,.028-.1.669.669,0,0,0-.005-.112c0-.036.015-.061.089-.072a.123.123,0,0,1,.037-.094.081.081,0,0,0,.012-.1.1.1,0,0,0,.049-.043.088.088,0,0,0,0-.051.431.431,0,0,1-.027-.1.889.889,0,0,0,.022-.1.117.117,0,0,0-.031-.09.073.073,0,0,1-.022-.042.153.153,0,0,1,0-.046.145.145,0,0,0-.008-.09c-.036-.019-.029-.051-.023-.085s.005-.066-.034-.08c-.012-.059-.062-.094-.073-.152-.068.013-.083-.005-.085-.037s.011-.075,0-.1-.044-.031-.069-.041-.044-.024-.029-.077c-.051.019-.069.006-.08-.018s-.013-.059-.024-.083c-.021-.054-.1-.015-.106-.085-.068.036-.058-.072-.106-.07-.018-.061-.072-.033-.1-.056a.106.106,0,0,1-.053-.012.113.113,0,0,1-.043-.035c-.031-.012-.06-.027-.087-.038s-.079-.028-.112-.041-.061-.02-.085-.031c-.046-.019-.072-.038-.072-.056" transform="translate(-18.844 -3.636)"/>
      <path id="Path_832" data-name="Path 832" d="M11.773,21.737c0-.018.026-.035.078-.049a.574.574,0,0,1,.1-.018c.038,0,.084,0,.134,0,.034,0,.07.007.109.011.02,0,.041,0,.061,0a.259.259,0,0,1,.062.02c.023.059.119-.052.135.039.035.042.09.042.144.059s.079.08.15.082c.051-.02.061.02.071.056s.018.073.081.051a.341.341,0,0,1,.148.134.1.1,0,0,0,.046.1.7.7,0,0,1,.093.065c-.034.109.036.145.121.191-.068.12-.031.174.1.217a.565.565,0,0,1,.02.123.257.257,0,0,0,.015.06.166.166,0,0,0,.032.059c.01.042.026.084.033.128a.419.419,0,0,1,0,.133.19.19,0,0,1,.054.139.184.184,0,0,1-.016.069.3.3,0,0,1-.048.065c.072.106.012.2-.055.279a.2.2,0,0,0-.04.141.152.152,0,0,1-.067.133c-.022.044-.048.088-.07.133a.459.459,0,0,1-.087.126l-.065.045a.453.453,0,0,0-.062.047.23.23,0,0,0-.047.061.241.241,0,0,0-.03.081.689.689,0,0,1-.105.124.28.28,0,0,1-.145.074c-.045.134-.172.154-.29.151a.468.468,0,0,1-.16.043.329.329,0,0,0-.159.053.876.876,0,0,0-.166.034.365.365,0,0,1-.171,0,1.174,1.174,0,0,0-.167-.039.423.423,0,0,0-.169,0,.211.211,0,0,1-.166-.028c-.025-.013-.05-.027-.076-.038a.287.287,0,0,0-.077-.03.2.2,0,0,0-.14-.086.283.283,0,0,1-.15-.063.706.706,0,0,1-.123-.1.307.307,0,0,0-.127-.093.714.714,0,0,1-.123-.1.4.4,0,0,1-.05-.06.337.337,0,0,1-.033-.073.11.11,0,0,1-.117-.107c-.012-.054-.005-.115-.04-.152a.266.266,0,0,0-.046-.141.362.362,0,0,1-.06-.133.164.164,0,0,1-.023-.068.546.546,0,0,1,0-.073.358.358,0,0,0-.005-.071.146.146,0,0,0-.028-.066c0-.092-.059-.183-.009-.273a.131.131,0,0,1,0-.133c.018-.043.045-.082.029-.128l.01-.063c0-.021.01-.041.015-.061a.567.567,0,0,1,.042-.117.11.11,0,0,0,.084-.1.518.518,0,0,1,.016-.12c.04-.064.026-.164.121-.191a.717.717,0,0,1,.083-.073.169.169,0,0,0,.056-.089c.018-.031.067-.031.1-.039s.066-.023.043-.094c.016-.03.056-.033.09-.038s.064-.014.061-.068c0-.105.1-.058.15-.082a1.259,1.259,0,0,1,.144-.059,1.232,1.232,0,0,1,.5-.068c.116.015.174.041.174.067s-.017.031-.05.046-.082.028-.141.054a1.7,1.7,0,0,0-.467.239c-.036.028-.036.106-.106.085a.214.214,0,0,0-.043.06.072.072,0,0,1-.061.042c.014.051,0,.068-.024.082a.4.4,0,0,0-.074.036c-.017.02-.037.038-.055.059a.113.113,0,0,0-.034.076c.018.076-.084.081-.073.152-.079.026-.086.094-.057.166a.078.078,0,0,0-.038.083c0,.015,0,.032,0,.048a.135.135,0,0,1,0,.047.079.079,0,0,0-.053.088.484.484,0,0,0,.044.1c.032.062-.011.129.021.192a.131.131,0,0,0,0,.049c0,.016.011.031.017.047s.013.031.018.047a.184.184,0,0,1,.012.048.334.334,0,0,1,.068.081.177.177,0,0,1,.015.1.341.341,0,0,1,.062.083.477.477,0,0,0,.053.09.15.15,0,0,1,.043.033.448.448,0,0,1,.034.04.293.293,0,0,0,.069.081c.033.016.045.058.065.092a.086.086,0,0,0,.108.038c.068.026.12.087.2.1.016.01.032.02.049.029a.553.553,0,0,0,.052.02.212.212,0,0,0,.113.012.105.105,0,0,0,.107.064.463.463,0,0,0,.118-.042.277.277,0,0,1,.113-.02.934.934,0,0,1,.114,0,1.071,1.071,0,0,1,.107-.031c.036-.008.07-.022.107-.031.055-.052.153-.025.2-.1a.156.156,0,0,1,.09-.061.116.116,0,0,0,.084-.068c.009-.017.018-.033.027-.048A.209.209,0,0,1,12.64,24a.157.157,0,0,1,.039-.035.189.189,0,0,1,.051-.027c.02-.028.061-.043.087-.068a.082.082,0,0,0,.029-.1.71.71,0,0,0,0-.112c0-.036.015-.061.089-.072a.122.122,0,0,1,.037-.094.083.083,0,0,0,.012-.1.1.1,0,0,0,.048-.044.087.087,0,0,0,0-.05A.425.425,0,0,1,13,23.2a.826.826,0,0,0,.022-.1.113.113,0,0,0-.031-.09.072.072,0,0,1-.022-.042.124.124,0,0,1,0-.046c0-.031.01-.065-.008-.09-.036-.019-.029-.052-.023-.086s.006-.067-.033-.08c-.012-.059-.062-.094-.073-.152-.068.013-.084-.006-.085-.037s.011-.075,0-.1-.044-.031-.069-.041-.044-.024-.03-.077c-.051.019-.069.006-.08-.018s-.012-.059-.024-.083c-.021-.054-.1-.016-.106-.085-.069.036-.058-.072-.106-.07-.018-.061-.072-.033-.1-.057a.1.1,0,0,1-.053-.012.114.114,0,0,1-.043-.035l-.087-.037c-.042-.014-.079-.028-.112-.041s-.061-.021-.085-.032c-.046-.019-.072-.038-.072-.056" transform="translate(-6.727 -14.541)"/>
    </g>
  </g>
</svg>
