<svg xmlns="http://www.w3.org/2000/svg" xmlns:xlink="http://www.w3.org/1999/xlink" width="25.267" height="16.689" viewBox="0 0 25.267 16.689">
  <defs>
    <clipPath id="clip-path">
      <rect id="Rectangle_250" data-name="Rectangle 250" width="25.267" height="16.689" fill="none"/>
    </clipPath>
  </defs>
  <g id="Group_356" data-name="Group 356" transform="translate(0)">
    <g id="Group_316" data-name="Group 316" transform="translate(0 0)" clip-path="url(#clip-path)">
      <path id="Path_908" data-name="Path 908" d="M11.854,37.417a3.392,3.392,0,0,1,.906-.092l.314-.014a3.2,3.2,0,0,1,.357-.014c.126.042.259-.079.4-.013a1.955,1.955,0,0,0,.438-.013,3.156,3.156,0,0,0,.477-.012c.165-.083.336.092.513-.012a3.572,3.572,0,0,1,.548-.011,1.533,1.533,0,0,0,.582-.011.993.993,0,0,0,.614-.01.72.72,0,0,0,.645-.01,3.56,3.56,0,0,0,.674-.008,6.4,6.4,0,0,1,.7-.008,1.381,1.381,0,0,1,.728-.007,1.674,1.674,0,0,1,.752-.007c.254.042.513-.066.775-.005.262,0,.528-.018.8-.005a2.229,2.229,0,0,0,.817,0,3.926,3.926,0,0,1,.835,0,2.008,2.008,0,0,1,.853,0,7.973,7.973,0,0,0,.867,0c.292.012.586-.035.882,0a3.682,3.682,0,0,0,.882,0,8.059,8.059,0,0,1,.868,0,4.979,4.979,0,0,0,.852,0,7.071,7.071,0,0,0,.836,0,4.8,4.8,0,0,1,.816,0c.27-.116.535.03.8.005a5.591,5.591,0,0,0,.775.005,7.493,7.493,0,0,0,.752.007H33l.023,0,.037-.009a.105.105,0,0,1,0-.035.053.053,0,0,1,.006-.016l.005-.009s0,0,0,0l0-.01,0-.021c-.057-.238.048-.472.008-.7,0-.229,0-.454.009-.674a1.465,1.465,0,0,0,.009-.645,2.453,2.453,0,0,1,.01-.615,2.59,2.59,0,0,0,.01-.582c-.013-.188.132-.371.011-.548-.021-.178.093-.349.012-.513s.009-.324.012-.477.009-.3.013-.439a10.787,10.787,0,0,1,.133-1.976,14.6,14.6,0,0,1,.146,2.414,1.286,1.286,0,0,1,.012.477,2.434,2.434,0,0,1,.012.513,1.152,1.152,0,0,1,.011.548,3.953,3.953,0,0,0,.01.582c.049.2-.024.4.01.615a1.418,1.418,0,0,0,.01.645,3.144,3.144,0,0,0,.009.674,1.537,1.537,0,0,0,.008.7l0,.021v.027l0,.075c0,.05,0,.1,0,.151,0,.1,0,.2,0,.3l-.35-.006h-.231l-.05,0c-.246-.015-.5.019-.752.006a2.494,2.494,0,0,1-.775.006c-.262.025-.527,0-.8.005-.269.03-.541,0-.816,0a3.378,3.378,0,0,0-.836,0c-.281.011-.565-.013-.852,0a7.363,7.363,0,0,0-.868,0,2.232,2.232,0,0,0-.882,0,7.1,7.1,0,0,1-.882,0c-.292.008-.581,0-.867,0-.287.025-.571-.036-.853,0s-.56-.039-.835,0a3.385,3.385,0,0,1-.817,0,2.962,2.962,0,0,0-.8-.005,1.518,1.518,0,0,1-.775-.006c-.255.029-.505-.056-.752-.006a2.141,2.141,0,0,0-.728-.007,3.034,3.034,0,0,0-.7-.008,5.467,5.467,0,0,1-.674-.009c-.22.049-.435-.064-.645-.009-.21-.011-.415.007-.614-.01-.2.116-.393,0-.582-.011s-.371.077-.548-.011a.808.808,0,0,1-.513-.012c-.165-.025-.324.037-.477-.012-.153.061-.3-.034-.438-.013a1.82,1.82,0,0,0-.4-.013,1.147,1.147,0,0,1-.357-.014l-.314-.014a3.4,3.4,0,0,1-.906-.092" transform="translate(-8.334 -21.027)"/>
      <path id="Path_909" data-name="Path 909" d="M6.436,54.469v-.26c0-.08,0-.044,0,0h0v0c0-.007,0,.043,0,0v.512c0,.016,0-.082,0,0v0h0c0,.025,0-.036,0,0v-.259Z" transform="translate(-4.525 -38.079)"/>
      <path id="Path_910" data-name="Path 910" d="M1.021,54.573v-.211s0,0,0-.008v-.042h0s0,0,0,0v.521s0,0,0,0h0v-.262Z" transform="translate(-0.718 -38.183)"/>
      <path id="Path_911" data-name="Path 911" d="M5.665.433a1.913,1.913,0,0,1-.671.092L4.76.539A1.76,1.76,0,0,1,4.5.553C4.4.51,4.3.632,4.2.567a1.075,1.075,0,0,0-.325.012,1.76,1.76,0,0,0-.353.012C3.4.674,3.274.5,3.143.6a1.965,1.965,0,0,1-.407.011c-.139-.063-.283,0-.431.011a.555.555,0,0,0-.455.01.413.413,0,0,0-.477.01,1.961,1.961,0,0,0-.5.008L.616.667H.577A.182.182,0,0,1,.54.661.16.16,0,0,0,.545.679C.57.721.582.728.579.735l0,.006C.573.761.569.782.566.8A.932.932,0,0,1,.534.926a.931.931,0,0,1,.007.557c-.042.189.066.38.006.574-.005.194.017.391,0,.59a1.231,1.231,0,0,0,0,.6,2.181,2.181,0,0,1,0,.619,1.11,1.11,0,0,1,0,.632,4.379,4.379,0,0,0,0,.643,6.225,6.225,0,0,1,0,.653,2.026,2.026,0,0,0,0,.653,4.345,4.345,0,0,1,0,.643c-.075.212.025.423,0,.631a3.877,3.877,0,0,0,0,.619,2.623,2.623,0,0,1,0,.6c.116.2-.029.4,0,.59a3.1,3.1,0,0,0-.006.574,3.929,3.929,0,0,0-.007.557,2.811,2.811,0,0,1-.007.539c.058.176-.048.35-.008.52,0,.17,0,.336-.009.5-.091.163-.015.322-.01.477-.01.156.051.307-.01.455a1.435,1.435,0,0,0-.011.431c.013.14-.131.275-.011.407.021.131-.093.258-.012.38s-.009.24-.012.353-.009.222-.013.325A6.021,6.021,0,0,1,.3,16.521a8.066,8.066,0,0,1-.146-1.789c0-.113-.067-.23-.013-.353A1.35,1.35,0,0,1,.129,14c-.083-.131-.015-.267-.011-.407a2.066,2.066,0,0,0-.01-.431c-.048-.148.025-.3-.01-.455a.791.791,0,0,0-.009-.477,1.76,1.76,0,0,0-.009-.5.853.853,0,0,0-.008-.52c-.028-.177.012-.356-.007-.539.015-.183-.02-.369-.007-.557A1.386,1.386,0,0,1,.052,9.54a4.71,4.71,0,0,1,0-.59,5.4,5.4,0,0,1,0-.6c-.016-.2.082-.411,0-.619-.011-.209.013-.419,0-.631a4.081,4.081,0,0,0,0-.643,1.25,1.25,0,0,0,0-.653,3.87,3.87,0,0,1,0-.653c-.008-.216,0-.43,0-.643-.025-.213.036-.423,0-.632s.038-.415,0-.619a1.829,1.829,0,0,1,0-.6,1.629,1.629,0,0,0,0-.59c-.016-.194-.111-.386.006-.574C.029,1.294.115,1.108.065.926A.419.419,0,0,0,.1.8.524.524,0,0,0,.1.741C.1.707.1.673.1.639.095.5.078.354.073.207H.161L.4.219.513.226l.1,0A.956.956,0,0,0,.874.214a3.007,3.007,0,0,1,.5.009c.163-.049.322.064.477.009.155.011.307-.007.455.01.148-.116.292,0,.431.011s.275-.077.407.011c.131-.088.257-.012.38.012s.24-.037.353.012C3.989.226,4.1.322,4.2.3c.1.041.2,0,.3.013A.643.643,0,0,1,4.76.327l.233.014a1.918,1.918,0,0,1,.671.092" transform="translate(0 -0.134)"/>
      <path id="Path_912" data-name="Path 912" d="M24.491.357V.619h0c0-.024,0-.047,0,0h0V.6c0-.049,0,.007,0-.006V.116c0-.036,0-.05,0-.006V.093c0,.085,0,.033,0,0h0V.357Z" transform="translate(-17.218 -0.058)"/>
      <path id="Path_913" data-name="Path 913" d="M29.907.383V.645h0V.63a.023.023,0,0,1,0-.006.044.044,0,0,1,0-.006v-.5h0V.383Z" transform="translate(-21.026 -0.084)"/>
      <path id="Path_914" data-name="Path 914" d="M45.994,5.664a1.9,1.9,0,0,1-.092-.671c0-.072-.009-.15-.014-.233a1.757,1.757,0,0,1-.014-.264c.043-.094-.079-.192-.013-.3a1.083,1.083,0,0,0-.013-.324,1.735,1.735,0,0,0-.012-.353c-.083-.122.092-.249-.012-.38a1.984,1.984,0,0,1-.011-.406c.064-.14,0-.283-.01-.431a.558.558,0,0,0-.01-.455.413.413,0,0,0-.009-.477,1.973,1.973,0,0,0-.009-.5c0-.085-.009-.171-.013-.257a.052.052,0,0,0,0-.015V.593a.144.144,0,0,1,0-.016A.171.171,0,0,1,45.767.54a.07.07,0,0,0-.018.005c-.042.026-.049.036-.056.034l-.005,0L45.626.566A1.025,1.025,0,0,1,45.5.534a.924.924,0,0,1-.557.006c-.189-.042-.38.066-.575.006-.194,0-.391.017-.59,0a1.227,1.227,0,0,0-.6,0,2.192,2.192,0,0,1-.619,0,1.114,1.114,0,0,1-.631,0,4.425,4.425,0,0,0-.643,0,6.3,6.3,0,0,1-.653,0,2.018,2.018,0,0,0-.653,0,4.341,4.341,0,0,1-.643,0c-.212-.075-.423.024-.631,0a3.81,3.81,0,0,0-.619,0,2.642,2.642,0,0,1-.605,0c-.2.116-.4-.03-.59,0A3.1,3.1,0,0,0,36.313.54a4.061,4.061,0,0,0-.557-.006,2.763,2.763,0,0,1-.539-.008c-.177.058-.35-.048-.52-.008-.17,0-.336,0-.5-.008-.163-.09-.322-.016-.477-.01-.155-.009-.307.051-.455-.01a1.433,1.433,0,0,0-.431-.01c-.14.013-.275-.131-.407-.011-.131.021-.258-.092-.38-.012S31.809.448,31.7.444L31.371.432A6.026,6.026,0,0,1,29.907.3,8.062,8.062,0,0,1,31.7.153c.113,0,.23-.067.352-.012a1.317,1.317,0,0,1,.38-.012c.132-.084.267-.015.407-.011a2.106,2.106,0,0,0,.431-.011c.148-.049.3.024.455-.01A.788.788,0,0,0,34.2.088a1.719,1.719,0,0,0,.5-.009.851.851,0,0,0,.52-.008c.176-.029.356.012.539-.007.183.015.369-.02.557-.007a1.372,1.372,0,0,1,.575-.005,4.594,4.594,0,0,1,.59-.005,5.336,5.336,0,0,1,.605,0c.2-.016.41.082.619,0,.208-.011.419.013.631,0a4.042,4.042,0,0,0,.643,0,1.238,1.238,0,0,0,.653,0,3.9,3.9,0,0,1,.653,0c.216-.008.431,0,.643,0,.213-.025.423.036.631,0s.415.038.619,0a1.853,1.853,0,0,1,.6,0,1.636,1.636,0,0,0,.59.005c.194-.017.386-.112.575.005.189-.029.375.057.557.007A.42.42,0,0,0,45.626.1l.061,0,.1,0c.136-.007.285-.024.433-.029,0,.029,0,.058,0,.088,0,.079-.009.159-.014.238,0,.038,0,.076-.007.113s0,.069,0,.1a.958.958,0,0,0,.016.257,3.036,3.036,0,0,1-.009.5c.049.163-.064.322-.009.477-.011.156.007.307-.01.455.116.148,0,.292-.011.431s.077.275-.011.406c.087.131.012.258-.012.38s.037.24-.012.353c.061.113-.034.221-.013.324a1,1,0,0,0-.013.3.642.642,0,0,1-.014.264c0,.083-.01.161-.014.233a1.913,1.913,0,0,1-.092.671" transform="translate(-21.026 0)"/>
      <path id="Path_915" data-name="Path 915" d="M83.46,24.489h-.2c.1,0,.089,0-.009,0h0c.09,0,.015,0,.009,0h.4c-.052,0-.038,0,.009,0h.041s-.077,0-.005,0h-.036c.049,0-.064,0-.009,0h-.2Z" transform="translate(-58.492 -17.217)"/>
      <path id="Path_916" data-name="Path 916" d="M83.46,29.906h0" transform="translate(-58.492 -21.025)"/>
      <path id="Path_917" data-name="Path 917" d="M7.879,23.11a4.018,4.018,0,0,1,.092.982c0,.106.009.219.014.341A3.773,3.773,0,0,1,8,24.821a.4.4,0,0,0,.015.211.606.606,0,0,1,.018.11.1.1,0,0,1,0,.039.129.129,0,0,1-.016.034A.44.44,0,0,0,8,25.285a.351.351,0,0,0,0,.035v.013h.025c.054,0,.108-.006.156-.011a.216.216,0,0,1,.055,0l.065.01.132.026.067.012.067.016a.905.905,0,0,0,.139.019.383.383,0,0,1,.273.091c.041.028.086.049.129.072a.314.314,0,0,0,.15.034,1.038,1.038,0,0,1,.143.059q.068.037.136.078a1.992,1.992,0,0,1,.26.187.68.68,0,0,0,.053.063c.018.02.036.042.056.06a1.273,1.273,0,0,0,.124.108,1.638,1.638,0,0,1,.13.107c.043.037.086.075.126.116a1.226,1.226,0,0,0,.075.161c.028.051.064.1.1.144a1.749,1.749,0,0,0,.108.14c.019.023.039.046.06.069s.037.048.057.072a.919.919,0,0,0,.028.188c.009.029.016.059.023.088a.862.862,0,0,0,.029.086,1.448,1.448,0,0,0,.083.167,1.364,1.364,0,0,0,.1.167c.008.031.015.062.023.093l.012.1.021.193,0,.024v.03a.311.311,0,0,0,0,.038.134.134,0,0,0,.009.033.072.072,0,0,0,.006.013.062.062,0,0,0,.02-.007l.055-.006.013,0h.039l.095,0a3.69,3.69,0,0,1,.384.006,1.619,1.619,0,0,1,.789-.007,1.962,1.962,0,0,1,.816-.006c.276.042.556-.066.84-.006.284.005.572-.017.864,0a2.616,2.616,0,0,0,.885,0,4.639,4.639,0,0,1,.906,0,2.344,2.344,0,0,1,.924,0,9.293,9.293,0,0,0,.941,0c.317.012.635-.036.956,0a4.287,4.287,0,0,0,.956,0c.316-.051.63.022.941,0a5.964,5.964,0,0,0,.924,0,8.227,8.227,0,0,0,.905,0,5.611,5.611,0,0,1,.885,0,.849.849,0,0,1,.435-.031c.072.009.144.022.216.03.036,0,.071.007.107.009h.1a.106.106,0,0,0,.057.02h.015s0,0,0-.006V28.16c0-.012,0-.025,0-.037l0-.035v-.012a.025.025,0,0,1,0-.008l.007-.056c.008-.075.018-.149.033-.222a1.167,1.167,0,0,1,.051-.217l.034-.105c.012-.035.029-.068.043-.1.03-.067.059-.134.085-.2a1.353,1.353,0,0,0,.08-.2c.018-.031.031-.065.05-.1l.054-.093c.036-.061.067-.126.107-.185a1.287,1.287,0,0,1,.276-.318.8.8,0,0,1,.059-.087l.033-.04.038-.035c.052-.045.107-.087.163-.127a.77.77,0,0,1,.085-.056c.029-.018.058-.036.086-.055s.055-.038.081-.059l.039-.032.039-.031.17-.1.042-.026.045-.022.088-.042c.06-.027.117-.058.178-.08s.122-.041.183-.06c.034,0,.066,0,.1-.007a.756.756,0,0,0,.1-.01,1.2,1.2,0,0,0,.18-.046l.178-.047.09-.022.045-.01.015,0h.008a.262.262,0,0,0,.068-.007l.028-.007c.007,0,0-.007,0-.012l0-.015a.151.151,0,0,1,0-.05s.011-.077.026-.126a3.087,3.087,0,0,0,.01-.631c-.013-.2.131-.4.011-.594-.022-.192.092-.377.012-.557s.009-.351.012-.517.009-.324.013-.475a12.728,12.728,0,0,1,.133-2.142,17.147,17.147,0,0,1,.146,2.618,1.5,1.5,0,0,1,.012.517,2.839,2.839,0,0,1,.012.557,1.352,1.352,0,0,1,.011.594,4.6,4.6,0,0,0,.01.631.827.827,0,0,1,.018.2c0,.093,0,.186-.007.276l0,.068v.042s-.005,0-.007,0h-.018l-.137,0a2.451,2.451,0,0,0-.267.023l-.063,0h-.122a1.071,1.071,0,0,0-.162.02,1.606,1.606,0,0,0-.157.054l-.077.032c-.025.012-.049.029-.073.043a.881.881,0,0,0-.164.039.925.925,0,0,0-.151.076l-.074.043-.037.022-.035.026a1.66,1.66,0,0,1-.143.1l-.044.012a.382.382,0,0,0-.041.018.843.843,0,0,0-.077.042c-.025.015-.05.033-.073.05a.409.409,0,0,0-.067.059c-.041.043-.08.088-.119.134l-.029.034L26.3,26.5l-.051.075c-.074.094-.143.191-.22.285-.038.048-.067.1-.1.152l-.047.078a.714.714,0,0,0-.037.084c-.029.054-.057.109-.084.165s-.039.118-.058.178c-.009.029-.02.059-.028.089l-.02.091c-.013.061-.034.121-.047.183s0,.128-.006.191l0,.047,0,.091-.006.192c0,.064-.007.128-.01.193l0,.047v.033h-.016l-.1,0c-.137,0-.275-.012-.405-.023l-.119.008-.107,0c-.072,0-.143,0-.216,0-.144,0-.289-.007-.435-.007-.291.031-.587,0-.885,0a3.947,3.947,0,0,0-.905,0c-.305.011-.613-.013-.924,0a8.582,8.582,0,0,0-.941,0,2.625,2.625,0,0,0-.956,0,8.35,8.35,0,0,1-.956,0c-.316.009-.63,0-.941,0-.311.025-.619-.037-.924,0s-.607-.039-.906,0a3.957,3.957,0,0,1-.885,0,3.491,3.491,0,0,0-.864-.005,1.79,1.79,0,0,1-.84-.005c-.276.029-.548-.057-.816-.007a2.5,2.5,0,0,0-.789-.007c-.129-.008-.257-.02-.384-.024l-.095,0h-.133c-.107,0-.214.007-.329.017l-.044,0h-.032s0,0-.005,0v0l-.008-.075c-.005-.05-.009-.1-.011-.155s0-.106-.006-.158l0-.079v-.038l0-.021c0-.056-.008-.112-.012-.168,0-.028-.005-.056-.009-.083s-.015-.053-.023-.08a.6.6,0,0,1-.052-.156c-.012-.053-.026-.105-.037-.159-.006-.027-.012-.053-.018-.08a.342.342,0,0,0-.025-.077.555.555,0,0,0-.083-.138c-.01-.024-.02-.049-.032-.072l-.04-.068-.082-.133c-.028-.043-.062-.082-.091-.124s-.057-.084-.087-.126a.376.376,0,0,1-.137-.078,1.126,1.126,0,0,1-.1-.11c-.03-.038-.058-.079-.087-.12-.015-.02-.029-.041-.045-.059s-.034-.034-.053-.049a.855.855,0,0,0-.243-.144.682.682,0,0,1-.119-.068.519.519,0,0,1-.1-.094.4.4,0,0,1-.136-.023.912.912,0,0,1-.12-.049,2.232,2.232,0,0,0-.228-.125.68.68,0,0,0-.121-.037l-.061-.012-.061,0a1.054,1.054,0,0,1-.12-.014.505.505,0,0,1-.058-.015l-.029-.01-.007,0-.011,0-.022-.005a1,1,0,0,1-.359-.01L7.739,25.6s-.007,0-.008,0V25.58l0-.024c0-.031.006-.063.01-.093a.964.964,0,0,0,0-.168c.005-.029.009-.057.012-.083s0-.055.006-.07a1.037,1.037,0,0,0,0-.11,1.8,1.8,0,0,1,0-.211,1.339,1.339,0,0,1,.014-.388q.007-.182.014-.341a3.958,3.958,0,0,1,.092-.982" transform="translate(-5.435 -14.156)"/>
      <path id="Path_918" data-name="Path 918" d="M7.6,24.737h.259c.08,0,.045,0,0,0h0c-.075,0,.024,0,0,0H7.336c-.01,0,.014,0,0,0h0c-.025,0,.036,0,0,0H7.6Z" transform="translate(-5.152 -17.392)"/>
      <path id="Path_919" data-name="Path 919" d="M7.606,19.322h.263c-.024,0-.048,0,0,0H7.342c.084,0,.032,0,0,0h.264Z" transform="translate(-5.162 -13.585)"/>
      <path id="Path_920" data-name="Path 920" d="M26.153,9.371c-.013.01-.06-.027-.142-.111a1.391,1.391,0,0,1-.136-.166,1.287,1.287,0,0,1-.08-.113l-.082-.135a2.161,2.161,0,0,1-.109-.215,1.109,1.109,0,0,1-.1-.256A.135.135,0,0,0,25.49,8.3a.54.54,0,0,0-.038-.069.178.178,0,0,1-.032-.155.845.845,0,0,0-.017-.165c-.006-.028-.012-.056-.02-.084l-.005-.021c0-.011,0,0,0-.009l-.006-.021a.272.272,0,0,1,0-.1V7.67s0-.01,0-.008h-.025a.177.177,0,0,0-.058.017c-.025.02-.037.025-.049.022l-.02-.01-.044-.015a.186.186,0,0,0-.194.014,2.024,2.024,0,0,1-.406.011c-.14-.064-.283,0-.431.01a.558.558,0,0,0-.455.01.414.414,0,0,0-.478.01,1.941,1.941,0,0,0-.5.009,3.6,3.6,0,0,1-.52.008.771.771,0,0,1-.539.007.928.928,0,0,1-.557.006c-.189-.042-.38.066-.574.006-.194,0-.391.017-.59,0a1.234,1.234,0,0,0-.6,0,2.149,2.149,0,0,1-.619,0,1.1,1.1,0,0,1-.631,0,4.384,4.384,0,0,0-.643,0,6.385,6.385,0,0,1-.653,0,2.024,2.024,0,0,0-.653,0,4.3,4.3,0,0,1-.643,0c-.213-.075-.423.025-.631,0a3.886,3.886,0,0,0-.619,0,2.626,2.626,0,0,1-.605,0c-.2.116-.4-.03-.59,0a3.116,3.116,0,0,0-.574-.006,4.115,4.115,0,0,0-.557-.006,2.818,2.818,0,0,1-.54-.007l-.033.009-.017,0,0,0a.02.02,0,0,1-.013,0,.189.189,0,0,1-.037-.015l-.026-.01c-.006,0-.006,0-.008,0a.035.035,0,0,0,0,.01.071.071,0,0,0,0,.052v.039s0,0,0,.01l-.02.134a1.37,1.37,0,0,1-.057.258.484.484,0,0,0-.106.237c-.021.081-.031.167-.057.246-.077.145-.091.325-.23.426a1.381,1.381,0,0,1-.146.181.764.764,0,0,0-.127.186.62.62,0,0,1-.18.13.227.227,0,0,0-.126.17.3.3,0,0,1-.079.066c-.014.009-.03.018-.045.026L10,9.935a.242.242,0,0,0-.147.13.228.228,0,0,1-.147.122,1.6,1.6,0,0,0-.174.063l-.159.069a1.166,1.166,0,0,1-.154.061,2.627,2.627,0,0,1-.33.095,2.145,2.145,0,0,1-.3.05l-.135.013-.063.005a.384.384,0,0,1-.046,0l-.172-.008h-.03s-.008,0-.007,0,0,.022,0,.032l-.008.059c-.006.038-.012.071-.018.1-.012.056-.024.089-.036.089s-.027-.042-.04-.135c-.007-.047-.013-.106-.019-.179,0-.019,0-.038,0-.058s0-.02,0-.031,0-.005.009-.007l.014,0,.126-.015.148-.017.041,0a.191.191,0,0,0,.037-.005l.065-.014.139-.03c.024-.006.049-.009.073-.017l.075-.024.157-.049c.054-.017.107-.044.163-.066a3.106,3.106,0,0,0,.342-.169.959.959,0,0,0,.126-.109.336.336,0,0,1,.151-.078A1.448,1.448,0,0,0,9.8,9.686l.033-.031c.01-.01.021-.021.032-.031a.348.348,0,0,1,.077-.051c.037-.139.163-.187.257-.282.039-.053.083-.1.125-.156a.5.5,0,0,0,.1-.179.641.641,0,0,1,.094-.187.568.568,0,0,0,.092-.194.584.584,0,0,0,.106-.2.7.7,0,0,0,.019-.229.4.4,0,0,0,.056-.223c0-.039,0-.078,0-.117v-.1c0-.035,0-.071,0-.106a.882.882,0,0,0,.045-.183c0-.016,0-.031.005-.047l0-.024V7.342s0,0,.005,0h.013c.035,0,.068,0,.1,0,.067,0,.134-.011.206-.019l.11-.013.027,0,.017,0,.033-.006c.177-.028.357.012.54-.007.182.015.368-.02.557-.007a1.383,1.383,0,0,1,.574-.005,4.547,4.547,0,0,1,.59-.005,5.337,5.337,0,0,1,.605,0c.2-.016.41.082.619,0,.208-.011.419.013.631,0a4.042,4.042,0,0,0,.643,0,1.24,1.24,0,0,0,.653,0,3.866,3.866,0,0,1,.653,0c.216-.009.431,0,.643,0,.212-.025.423.036.631,0s.415.038.619,0a1.845,1.845,0,0,1,.6,0,1.638,1.638,0,0,0,.59.005c.194-.016.385-.111.574.005.189-.029.375.057.557.007.183.086.363,0,.539.007a1.67,1.67,0,0,0,.52.008,3,3,0,0,1,.5.009c.163-.05.322.064.478.009.156.011.307-.008.455.01.148-.116.291,0,.431.011s.275-.077.406.011a.25.25,0,0,1,.194-.035l.05.01.075.013c.049.009.094.018.138.024a.725.725,0,0,0,.135.006l.072,0h.013v0l0,.016,0,.032a.81.81,0,0,1,0,.271.324.324,0,0,1,.019.06c0,.006,0,.033.006.034s0,.013,0,.019a.289.289,0,0,1,0,.078.308.308,0,0,0,0,.152.311.311,0,0,0,.014.145l.02.067c.007.022.015.043.019.065a.793.793,0,0,1,.068.245c.027.075.046.149.077.212l.058.137c.018.044.04.081.058.118.036.073.065.137.094.184.054.1.077.156.064.166" transform="translate(-5.628 -5.078)"/>
      <path id="Path_921" data-name="Path 921" d="M73.22,16.9l-.031.086,0,.013-.005.013,0,.012,0,.011c0,.015.009-.025,0,.012l0,.011,0,.01c.021-.059,0,0,0,.01.026-.072.015-.04,0,.01.036-.1.03-.084,0,.009l0,.008c0,.007-.009.025,0,.008-.024.065-.023.062,0,.006-.026.071-.015.043,0,.007s-.023.062,0,.005l0,0c.01-.03.022-.062,0,0-.006.017-.015.041,0,0-.028.076-.015.042,0,0,0,.012.015-.041,0,0,0-.012-.012.033,0,0s.016-.045,0,0,.008-.02,0,0c.026-.071-.008.023,0,0,0,.007.015-.041,0,0-.005.013-.01.026,0,0-.04.108.01-.028,0-.005.016-.046,0,.007,0-.005-.008.02.018-.05,0-.006,0-.009-.013.035,0-.007l0-.007,0-.008c.031-.085.005-.015,0-.009,0-.01-.018.048,0-.01,0-.007.016-.044,0-.01,0,.012.045-.123,0-.01l0-.011c-.026.069,0-.009,0-.012l0-.012.045-.125.05-.137s.023-.063,0-.012c0,0,.016-.045,0-.011.029-.078.005-.014,0-.01s-.007.022,0-.01-.009.023,0-.009c-.018.048-.013.035,0-.009-.017.047,0-.01,0-.008-.026.072-.008.021,0-.008s0,.011,0-.007c-.005.014.007-.018,0-.006.012-.034.017-.047,0-.005.008-.023,0,0,0,0,.01-.029,0,0,0,0s-.028.077,0,0c0-.01,0,.012,0,0,0,.01-.008.021,0,0-.029.079-.011.031,0,0s0-.012,0,0h0c.008-.023-.012.034,0,0s-.013.036,0,0,.013-.036,0,0c0,0-.026.072,0,0,.006-.015.038-.105,0,.006.01-.027-.019.053,0,.006-.029.081,0,0,0,.007s-.016.043,0,.008-.007.021,0,.008l0,.009a.076.076,0,0,0,0,.01c.039-.109,0,0,0,.01s.026-.072,0,.011c.03-.082,0-.011,0,.011s.012-.035,0,.011l0,.012,0,.012,0,.013-.005.014-.031.086" transform="translate(-51.404 -11.685)"/>
      <path id="Path_922" data-name="Path 922" d="M76.207,20.134h-.263c.012,0-.035,0,0,0h.528c.024,0,.012,0,0,0h-.264Z" transform="translate(-53.384 -14.155)"/>
      <path id="Path_923" data-name="Path 923" d="M36.186,16.7c-.031.02-.173-.173-.479-.467-.051-.049-.11-.1-.17-.152a2.283,2.283,0,0,1-.2-.16c-.022-.044-.072-.058-.12-.074a.268.268,0,0,1-.067-.03.115.115,0,0,1-.049-.058.568.568,0,0,0-.123-.091c-.047-.024-.1-.045-.147-.066a1.478,1.478,0,0,1-.145-.082.355.355,0,0,0-.162-.063c-.071.014-.114-.032-.163-.074a.173.173,0,0,0-.179-.051,3.544,3.544,0,0,1-.376-.094.275.275,0,0,0-.093-.048.508.508,0,0,0-.1-.012c-.035,0-.07,0-.105,0s-.071.005-.106,0a.449.449,0,0,0-.431-.01.322.322,0,0,0-.229-.061.416.416,0,0,0-.221.1c-.076.012-.154.018-.232.029a.6.6,0,0,0-.227.077c-.153.049-.3.123-.457.172a.833.833,0,0,1-.444.243,1.056,1.056,0,0,1-.417.314.388.388,0,0,0-.106.081c-.03.033-.057.07-.085.106a.66.66,0,0,1-.186.2,4.476,4.476,0,0,0-.323.447.839.839,0,0,0-.254.5,4.139,4.139,0,0,1-.173.549,1.318,1.318,0,0,1-.082.582,1.889,1.889,0,0,0,.016.6c.009.2.1.391.12.6a1.179,1.179,0,0,0,.22.565.718.718,0,0,1,.086.125,1.37,1.37,0,0,1,.068.133c.023.044.045.089.069.133a.738.738,0,0,0,.086.121.389.389,0,0,0,.068.136.675.675,0,0,0,.1.108c.037.034.075.065.112.1a.825.825,0,0,1,.1.1,1.69,1.69,0,0,0,.442.37c.165.1.332.178.485.289a.29.29,0,0,1,.145.016.558.558,0,0,1,.122.063c.039.026.078.052.118.075a.35.35,0,0,0,.128.048,1.514,1.514,0,0,0,.523.118,1.769,1.769,0,0,0,.521.039c.174.01.336-.056.505-.034a.548.548,0,0,1,.241-.05.5.5,0,0,0,.237-.052c.153-.048.3-.1.443-.158a.33.33,0,0,0,.224-.065c.062-.045.118-.1.178-.14a.974.974,0,0,0,.173-.132.478.478,0,0,1,.185-.108l.173-.118a.516.516,0,0,0,.139-.148.614.614,0,0,1,.168-.113.169.169,0,0,0,.1-.169.521.521,0,0,1,.134-.131.353.353,0,0,0,.063-.067.158.158,0,0,0,.024-.091.187.187,0,0,1,.022-.089.3.3,0,0,1,.048-.07.665.665,0,0,0,.11-.129c.055-.094.1-.188.143-.278a3.744,3.744,0,0,0,.21-.564c.027-.084.043-.164.063-.237l.043-.2c.01-.06.02-.114.029-.161s.015-.086.022-.118c.013-.063.026-.1.038-.1s.026.041.037.122a1.112,1.112,0,0,1,.011.15,2.032,2.032,0,0,1,0,.207,3.139,3.139,0,0,1-.079.572,3.614,3.614,0,0,1-.257.74c-.024.053-.039.113-.062.172a.426.426,0,0,1-.042.084.272.272,0,0,1-.07.068.87.87,0,0,0-.047.085l-.047.088a.456.456,0,0,1-.128.157c-.02.162-.17.225-.274.326-.05.053-.108.1-.165.15a1.271,1.271,0,0,0-.165.161.5.5,0,0,1-.182.151,1.011,1.011,0,0,0-.2.134,1.125,1.125,0,0,0-.44.246,3.83,3.83,0,0,0-.491.2,1.221,1.221,0,0,0-.535.131,3.054,3.054,0,0,1-.57.054,4.152,4.152,0,0,1-.592-.03,1.125,1.125,0,0,1-.6-.123,2.349,2.349,0,0,1-.589-.221,2.477,2.477,0,0,1-.559-.323.733.733,0,0,1-.13-.1l-.117-.117a1,1,0,0,0-.12-.113.611.611,0,0,0-.145-.089,4.8,4.8,0,0,1-.444-.508c-.126-.19-.235-.39-.358-.587a2.139,2.139,0,0,0-.254-.651,2.093,2.093,0,0,1-.137-.685,3.062,3.062,0,0,1-.015-.687,1.2,1.2,0,0,1,.008-.17c.009-.056.02-.112.031-.167a2.468,2.468,0,0,0,.061-.33.686.686,0,0,1,.031-.165,1.592,1.592,0,0,1,.058-.156c.022-.051.044-.1.064-.152a.841.841,0,0,0,.051-.156,1.419,1.419,0,0,1,.3-.573,1.281,1.281,0,0,1,.1-.127l.106-.118a.868.868,0,0,0,.176-.258c.06-.084.113-.177.177-.259a.623.623,0,0,1,.112-.107.382.382,0,0,1,.149-.061.567.567,0,0,1,.113-.1,1.476,1.476,0,0,1,.128-.078c.044-.024.086-.048.127-.076a.564.564,0,0,0,.114-.092.584.584,0,0,0,.143-.042,1.185,1.185,0,0,0,.124-.071c.04-.026.079-.053.118-.08a1,1,0,0,1,.124-.067,3.646,3.646,0,0,0,.521-.178.671.671,0,0,1,.258-.07,2.168,2.168,0,0,0,.26-.03.481.481,0,0,1,.255-.021.565.565,0,0,0,.249-.009,2.925,2.925,0,0,1,.477.033.231.231,0,0,1,.122-.036.354.354,0,0,1,.113.025c.036.014.072.032.106.048a.639.639,0,0,0,.1.046,1.2,1.2,0,0,0,.216.032.76.76,0,0,0,.395.13c.058.036.107.086.161.122a.848.848,0,0,0,.169.08.311.311,0,0,1,.151.1.235.235,0,0,1,.153.082.419.419,0,0,0,.124.111.292.292,0,0,0,.055.059.615.615,0,0,0,.061.048.89.89,0,0,1,.12.088.623.623,0,0,1,.195.192c.057.064.111.123.158.18.278.35.367.578.344.592" transform="translate(-20.387 -10.381)"/>
      <path id="Path_924" data-name="Path 924" d="M54.354,26.231l-.091.013-.014,0-.013,0-.013,0H54.21l-.012,0-.012,0h-.022c.076-.01.043-.006-.01,0,.1-.014.088-.012-.009,0h-.017c-.069.01-.066.01-.007,0-.075.011-.045.007-.006,0s-.065.01-.006,0h0c.031,0,.065-.009,0,0-.018,0-.044.007,0,0-.08.011-.045.007,0,0-.013,0,.043-.006,0,0,.012,0-.035,0,0,0s.047-.007,0,0,.021,0,0,0c.074-.01-.024,0,0,0-.007,0,.043-.006,0,0h0c-.115.016.029,0,0,0h.006c-.021,0,.053-.007.007,0,.01,0-.037.005.007,0-.056.008.048-.007.008,0h.008c.089-.012.015,0,.01,0h.02c-.013,0,.13-.018.011,0-.021,0,.091-.012.012,0s.009,0,.012,0l.012,0,.132-.018.145-.02h.012l.012,0h.031c-.051.007-.037.005.01,0-.05.007.01,0,.008,0h.022c.036-.005.049-.007.005,0H54.6c.03,0,0,0,0,0s-.081.012,0,0h0c-.01,0-.022,0,0,0-.083.012-.032,0,0,0s.012,0,0,0c.008,0,0,0,0,0,.025,0-.036.005,0,0s-.038.005,0,0,.037-.005,0,0c0,0-.076.011-.005,0,.016,0,.11-.015-.005,0h-.007c-.085.012,0,0-.007,0s-.045.006-.008,0h-.017l-.01,0h-.01c-.016,0,.076-.01-.011,0,.087-.012.012,0-.011,0l-.012,0h-.013l-.013,0-.013,0-.014,0-.091.013" transform="translate(-38 -18.412)"/>
      <path id="Path_925" data-name="Path 925" d="M39.806,23.994a.811.811,0,0,1-.634-.335,1.232,1.232,0,0,1-.237-.764c0-.016,0-.041,0-.075h.388q.032.667.48.741V22.34a.972.972,0,0,1-.814-1.034,1.16,1.16,0,0,1,.217-.725.828.828,0,0,1,.6-.323V19.8h.416v.46a.811.811,0,0,1,.5.272,1.228,1.228,0,0,1,.221.837v.064h-.376a1.21,1.21,0,0,0-.081-.508.405.405,0,0,0-.266-.22V21.86a1.2,1.2,0,0,1,.685.393,1.086,1.086,0,0,1,.172.632,1.214,1.214,0,0,1-.224.771.92.92,0,0,1-.634.338v.413h-.416Zm0-2.223V20.681a.485.485,0,0,0-.387.545.5.5,0,0,0,.387.544m.416.65v1.136a.543.543,0,0,0,.448-.595.612.612,0,0,0-.087-.336.582.582,0,0,0-.361-.2" transform="translate(-27.374 -13.919)"/>
    </g>
  </g>
</svg>
