<svg xmlns="http://www.w3.org/2000/svg" xmlns:xlink="http://www.w3.org/1999/xlink" width="25.552" height="25.566" viewBox="0 0 25.552 25.566">
  <defs>
    <clipPath id="clip-path">
      <rect id="Rectangle_242" data-name="Rectangle 242" width="25.552" height="25.566"/>
    </clipPath>
  </defs>
  <g id="Group_359" data-name="Group 359" transform="translate(0)">
    <g id="Group_299" data-name="Group 299" transform="translate(0 0)" clip-path="url(#clip-path)">
      <path id="Path_884" data-name="Path 884" d="M46.723,18.307c-.032,0-.066-.2-.1-.561-.005-.06-.011-.125-.019-.195a1.261,1.261,0,0,1-.024-.22c.039-.08-.086-.156-.024-.246a.687.687,0,0,0-.031-.27c-.022-.093.012-.194-.035-.293-.045-.047-.027-.1-.01-.155a.135.135,0,0,0-.031-.159,1.406,1.406,0,0,1-.048-.335c.052-.123-.028-.234-.056-.354a.394.394,0,0,0-.063-.373.3.3,0,0,0-.077-.39c-.014-.066-.015-.135-.024-.2a.559.559,0,0,0-.063-.2,3.042,3.042,0,0,1-.1-.419.552.552,0,0,1-.064-.1l-.012-.025-.005-.013,0-.006,0-.012q-.016-.051-.029-.1a1.516,1.516,0,0,1-.05-.392c-.009-.019-.02-.04-.026-.058l.04-.018a.894.894,0,0,1,.091-.032,1.764,1.764,0,0,1,.212-.048c.073-.012.152-.021.221-.027.04,0,.079,0,.12,0,.163.015.295-.129.465-.1.159-.028.312-.089.474-.118a1.7,1.7,0,0,0,.251-.027.578.578,0,0,0,.232-.107c.079-.032.157-.066.238-.093a.942.942,0,0,1,.25-.059.557.557,0,0,1,.232-.124,1.428,1.428,0,0,1,.26-.046,2.3,2.3,0,0,0,.493-.191,1.326,1.326,0,0,0,.124-.05c.04-.02.079-.042.119-.063l.06-.031.031-.015.059-.026c.08-.035.161-.067.238-.093l.057-.021.029-.01.014-.005s.007.008.01.012l.074.106c.049.07.1.136.146.2l.031.04.022.027c.014.018.03.035.046.052a.859.859,0,0,0,.105.1.62.62,0,0,1,.173.218,1.359,1.359,0,0,0,.148.233.447.447,0,0,0,.054.129.9.9,0,0,0,.078.111.956.956,0,0,1,.157.222,1.2,1.2,0,0,1,.067.116c.021.04.037.082.055.122l.028.06.025.049.027.051a2.191,2.191,0,0,0,.127.2l.125.212.061.107.007.013,0,.007s0,.005,0,0l-.028.007-.056.013a4.269,4.269,0,0,1-.464.085.463.463,0,0,1-.1.055l-.055.021-.014,0-.007,0-.014.006a.373.373,0,0,1-.116.022.621.621,0,0,0-.235.034.589.589,0,0,0-.222.069c-.069.035-.138.069-.207.1-.126.086-.3.079-.4.2a1.6,1.6,0,0,0-.185.117.6.6,0,0,1-.187.106.4.4,0,0,1-.171.123.428.428,0,0,0-.169.12c-.111.081-.2.18-.308.258a.247.247,0,0,0-.1.037.351.351,0,0,0-.068.071c-.039.053-.068.113-.109.161A.439.439,0,0,0,48.43,16l-.05.079a.313.313,0,0,1-.134.125c-.02.022-.042.043-.064.063s-.04.043-.06.065a.408.408,0,0,0-.09.148c-.026.051-.089.076-.132.114a.135.135,0,0,0-.055.158.337.337,0,0,1-.105.122.147.147,0,0,0-.055.143.162.162,0,0,1-.045.141.492.492,0,0,0-.092.112l-.112.241-.03.064c-.009.022-.017.043-.025.064l-.048.123-.045.116a1.045,1.045,0,0,0-.04.109l-.07.222-.035.107-.016.048,0,.012s-.008,0-.012,0l-.026,0c-.275-.022-.362-.046-.367-.07s.035-.027.1-.039l.1-.019.057-.009.03,0a.268.268,0,0,0,.005-.037c0-.024.006-.05.009-.077s0-.026.005-.039l0-.02,0-.028c.006-.04.014-.081.021-.124s.021-.087.032-.133c.024-.091.049-.191.08-.3s.076-.211.116-.326c.015-.047.024-.1.038-.147a.23.23,0,0,1,.084-.132,1.5,1.5,0,0,0,.056-.154.373.373,0,0,1,.093-.14c-.013-.141.1-.21.179-.3.033-.051.073-.1.111-.148.019-.025.037-.051.053-.077a.521.521,0,0,0,.048-.084.414.414,0,0,1,.116-.158c.024-.023.048-.046.07-.071a.394.394,0,0,0,.062-.08.513.513,0,0,0,.164-.127.731.731,0,0,0,.062-.085.864.864,0,0,0,.058-.092c.14-.058.2-.205.323-.293a.384.384,0,0,0,.2-.11c.053-.053.107-.11.162-.167a.97.97,0,0,1,.19-.137,1.365,1.365,0,0,0,.207-.119c.143-.071.278-.166.432-.228a.909.909,0,0,1,.219-.127.881.881,0,0,1,.247-.067,1.545,1.545,0,0,1,.243-.087l.126-.034.016,0,.008,0h.008l.012,0c.006-.017.015-.018.034-.018h.007s.005,0,0,0a.016.016,0,0,0,0-.006.025.025,0,0,0-.008-.015c-.007-.005-.006-.009,0-.017l0-.006v0s0,0,0-.006l-.021-.061a.472.472,0,0,0-.055-.114.339.339,0,0,0-.1-.091c-.049-.07-.091-.144-.134-.219-.022-.037-.043-.075-.066-.111a.922.922,0,0,0-.078-.1c-.045-.074-.091-.149-.14-.221a1.189,1.189,0,0,0-.166-.205.448.448,0,0,0-.051-.128.469.469,0,0,0-.037-.056l-.021-.026-.009-.011,0,0A.045.045,0,0,0,50,12.54a.029.029,0,0,0-.013,0,.1.1,0,0,0-.011.017l-.011.018,0,0-.032.015-.064.029c-.043.018-.086.036-.13.052l-.132.044a4.347,4.347,0,0,1-.515.2,1.21,1.21,0,0,1-.257.088,1.041,1.041,0,0,0-.255.084.857.857,0,0,1-.253.08.837.837,0,0,0-.253.07,2.246,2.246,0,0,1-.244.092.965.965,0,0,1-.256.037c-.165.042-.344.009-.49.111-.158.05-.3.182-.48.1a.489.489,0,0,1-.117.026.271.271,0,0,1-.031-.01.1.1,0,0,0-.037,0,.016.016,0,0,0-.011.005.008.008,0,0,0,0,.006l.011.012c-.047-.012-.039.027-.024.049l.013.016a.027.027,0,0,1,0,.009l.006.013.011.027a.622.622,0,0,1,.036.107,1.343,1.343,0,0,0,.086.434.533.533,0,0,1,.049.209,1.018,1.018,0,0,0,.023.209c.072.128-.016.28.06.4.008.132.044.257.044.384.131.109.035.245.037.364s.1.224.026.343a.188.188,0,0,1,.053.159c-.007.055-.027.109-.035.162-.017.105.052.2.011.3.068.091-.018.188.006.275-.037.089.006.171,0,.25a.461.461,0,0,1,0,.224c0,.07,0,.136-.009.2-.022.367-.051.566-.083.566" transform="translate(-32.302 -8.405)"/>
      <path id="Path_885" data-name="Path 885" d="M5.922,32.977a1.878,1.878,0,0,1,.1.662q.012.107.024.229a1.779,1.779,0,0,1,.026.26c-.039.1.087.184.03.29a1.041,1.041,0,0,0,.037.317.875.875,0,0,1,.01.17.452.452,0,0,0,.034.174c.095.111-.065.253.052.37a2.255,2.255,0,0,1,.064.394.765.765,0,0,0,.073.417.54.54,0,0,0,.086.438.4.4,0,0,0,.1.456c.009.039.015.079.021.119s.014.08.021.12a1.05,1.05,0,0,0,.03.119,1.835,1.835,0,0,0,.07.2q.03.107.06.215l.031.11s0,.005,0,.007H6.793l-.013,0-.027.006-.053.011c-.143.03-.3.06-.449.078a.715.715,0,0,1-.246.1.821.821,0,0,1-.269.013.633.633,0,0,1-.253.1,1.583,1.583,0,0,1-.275.029.715.715,0,0,0-.267.078.614.614,0,0,1-.273.073c-.184.045-.36.126-.549.173a1.786,1.786,0,0,0-.289.062.8.8,0,0,0-.265.138c-.089.044-.177.092-.269.133a1.7,1.7,0,0,1-.286.1.665.665,0,0,1-.059.054l-.031.023,0,0-.008,0-.017.009-.034.018c-.091.049-.188.094-.282.135l-.071.029c-.007.006-.01,0-.014-.009l-.012-.017-.023-.032c-.032-.043-.063-.087-.092-.13L2.276,39.1l-.041-.062L2.215,39a1.14,1.14,0,0,1-.1-.127l-.088-.137a1.5,1.5,0,0,0-.2-.259,3.132,3.132,0,0,0-.192-.27,1.57,1.57,0,0,1-.168-.288c-.049-.1-.09-.205-.142-.3-.025-.049-.053-.1-.083-.143a1.283,1.283,0,0,0-.095-.137,3.2,3.2,0,0,1-.277-.592c-.01-.229-.186-.389-.228-.6-.081-.2-.088-.414-.187-.6a2.189,2.189,0,0,1-.139-.6.4.4,0,0,1-.089-.291.984.984,0,0,0-.012-.3,1.114,1.114,0,0,0-.019-.293,1.514,1.514,0,0,1-.04-.287,1.3,1.3,0,0,1-.007-.285c0-.048,0-.095,0-.141v-.035l0-.046c0-.039-.008-.079-.015-.121,0-.079,0-.158-.006-.24l-.007-.123,0-.031v-.008s0,0,.006,0H.135l.058,0a2.745,2.745,0,0,1,.473.017c.175-.057.346.048.515.008.168,0,.333,0,.494.009.161.089.319.015.473.009.154.009.3-.051.45.01a1.44,1.44,0,0,0,.428.01c.138-.013.272.13.4.011.13-.021.256.092.377.012s.238.009.349.012l.322.012a5.938,5.938,0,0,1,1.45.133,8.02,8.02,0,0,1-1.772.145c-.112,0-.228.067-.349.012a1.3,1.3,0,0,1-.377.012c-.13.083-.264.016-.4.011a2.109,2.109,0,0,0-.428.011c-.146.048-.3-.024-.45.01a.777.777,0,0,0-.473.009,1.706,1.706,0,0,0-.494.008.844.844,0,0,0-.515.008.069.069,0,0,1-.058.007c-.015-.006-.013.006-.014.014a.074.074,0,0,0,.006.032.057.057,0,0,0,0,.014v.054a1.131,1.131,0,0,0,.012.134,2.053,2.053,0,0,1,.022.27,2.483,2.483,0,0,1,.06.27,1.374,1.374,0,0,1,.007.279,1.84,1.84,0,0,1,.056.277c.012.094.031.188.048.282.065.182.085.377.139.566.073.183.032.406.183.567.072.187.13.382.219.567a2.76,2.76,0,0,0,.265.559.645.645,0,0,0,.035.158.8.8,0,0,0,.073.139,2.448,2.448,0,0,0,.2.253,2.5,2.5,0,0,1,.177.261c.056.088.11.177.163.268s.125.166.185.25l.09.125c.03.042.062.082.093.123l.027.027,0,0a.015.015,0,0,1,.005.006l0,.011,0,.007h0a.035.035,0,0,0,.022,0h0l.007,0,.035-.018c.024-.012.047-.026.069-.04a1,1,0,0,1,.291-.12,1.26,1.26,0,0,0,.289-.114,2.876,2.876,0,0,1,.282-.125,1.142,1.142,0,0,1,.3-.073,1.906,1.906,0,0,0,.57-.17c.092-.034.178-.088.267-.125a.416.416,0,0,1,.292-.019,1.043,1.043,0,0,1,.276-.058.716.716,0,0,0,.27-.063.5.5,0,0,0,.274-.024,2.085,2.085,0,0,1,.258-.077.39.39,0,0,0,.087.009.061.061,0,0,0,.021,0,.186.186,0,0,0-.007-.021.12.12,0,0,0-.028-.042.057.057,0,0,1-.021-.03,1.05,1.05,0,0,1-.022-.124c-.006-.042-.011-.083-.017-.124a.75.75,0,0,0-.024-.121c-.081-.15,0-.329-.089-.471-.016-.156-.06-.3-.068-.451-.141-.127-.044-.289-.054-.428s-.116-.263-.042-.4c-.1-.12-.04-.255-.03-.379a.583.583,0,0,0-.021-.179.329.329,0,0,1,0-.173c-.07-.107.016-.223-.012-.324a1.2,1.2,0,0,0,0-.295.64.64,0,0,1,0-.264c0-.082,0-.16,0-.232a1.894,1.894,0,0,1,.081-.668" transform="translate(-0.08 -23.076)"/>
      <path id="Path_886" data-name="Path 886" d="M6.441,13.666c.016,0,.017.065.005.178-.006.056-.015.125-.028.207s-.03.175-.043.282c-.01.07-.022.146-.033.228a1.783,1.783,0,0,1-.04.257c-.058.084.045.2-.037.289a1,1,0,0,0-.041.317,1.685,1.685,0,0,0-.036.345c.065.13-.126.231-.036.372a1.932,1.932,0,0,1-.032.4c-.078.13-.023.278-.024.423a.518.518,0,0,0-.019.446.4.4,0,0,0-.012.469c0,.08-.01.16-.017.242a1.076,1.076,0,0,0,0,.123c0,.03,0,.059.006.089s.006.071.012.11c0,.073,0,.148,0,.223,0,.038,0,.076,0,.114,0,0,0,.006,0,.007H6.019l-.055,0c-.074,0-.15,0-.226,0l-.115,0-.057,0H5.542l-.017,0a.758.758,0,0,1-.534.007.918.918,0,0,1-.552.006c-.187-.042-.377.066-.569.006-.192,0-.387.017-.585,0a1.217,1.217,0,0,0-.6,0,2.132,2.132,0,0,1-.613,0,1.092,1.092,0,0,1-.625,0,4.332,4.332,0,0,0-.637,0c-.053,0-.107,0-.161,0l-.093,0-.152.005c-.1,0-.207.005-.309,0H0c-.005,0,0,0,0-.007v-.01l0-.04c0-.053.007-.107.013-.16q.019-.251.038-.5a1.413,1.413,0,0,0,0-.331.877.877,0,0,1,.022-.328,3.019,3.019,0,0,0,.054-.321.733.733,0,0,0,.07-.315A1.348,1.348,0,0,1,.244,16.5a2.077,2.077,0,0,1,.087-.3,1.582,1.582,0,0,0,.071-.3c.023-.1.046-.2.075-.3A1.711,1.711,0,0,1,.6,15.307a.391.391,0,0,1,.078-.294A1.114,1.114,0,0,0,.82,14.75a.962.962,0,0,0,.135-.261,1.606,1.606,0,0,1,.118-.264c.064-.184.225-.31.274-.495.049-.078.092-.16.135-.241a.792.792,0,0,1,.159-.22c.053-.181.237-.267.309-.427.052-.068.1-.139.153-.2l.081-.1.127-.148a.661.661,0,0,0,.14-.109l0,0,0,0h0l.011.005.021.011.042.02c.027.012.055.023.083.034.055.021.113.039.173.058a.986.986,0,0,1,.11.034.775.775,0,0,0,.1.044l.108.031a.446.446,0,0,1,.194.1,1.2,1.2,0,0,0,.391.157.56.56,0,0,1,.175.111.183.183,0,0,0,.2.027c.129.018.213.167.352.123s.224.073.33.106.208.064.305.093l.312.093.277.076.238.068.2.055c.238.067.364.114.36.138s-.169.022-.473-.01c-.152-.014-.337-.047-.555-.081-.109-.017-.224-.042-.348-.067s-.256-.05-.392-.085c-.11-.027-.241,0-.343-.085a1.234,1.234,0,0,1-.367-.1.3.3,0,0,1-.2-.025c-.062-.03-.121-.07-.186-.1a2.922,2.922,0,0,0-.41-.142.538.538,0,0,1-.213-.075c-.034-.017-.068-.036-.1-.052a.468.468,0,0,0-.11-.039.676.676,0,0,0-.1-.073.132.132,0,0,0-.044-.025c-.015,0-.031-.01-.042,0a.2.2,0,0,0-.013.062.041.041,0,0,0-.021,0l-.009.006,0,0L2.5,12.8a.98.98,0,0,0-.071.1c-.043.068-.078.144-.129.209-.162.086-.212.259-.282.416a1.627,1.627,0,0,1-.132.222,1.39,1.39,0,0,0-.136.224c-.1.147-.16.319-.25.477a2.2,2.2,0,0,1-.092.261,1.091,1.091,0,0,1-.139.242,2.307,2.307,0,0,1-.1.266c-.037.087-.077.174-.107.266a1.564,1.564,0,0,1-.086.277c-.031.092-.066.183-.091.279a2.155,2.155,0,0,1-.1.28.515.515,0,0,0-.043.3c-.015.1-.039.2-.062.3a2.707,2.707,0,0,0-.045.3,2.919,2.919,0,0,0-.052.3,1.788,1.788,0,0,0-.017.311.706.706,0,0,0-.064.31c0,.027,0,.053.005.079l0,.04c0,.009,0,.006,0,.009l0,0a.042.042,0,0,0,.025.016c.009.006.023-.006.029,0l.006,0H.651l.161.009c.214-.009.426,0,.637,0,.21-.025.419.036.625,0s.411.038.613,0a1.817,1.817,0,0,1,.6,0,1.6,1.6,0,0,0,.585,0c.192-.016.382-.11.569.006.187-.03.371.056.552.006.181.085.359,0,.534.007l.017,0h.01l.009,0,.019.007a.343.343,0,0,0,.045.01c.007,0,.016,0,.021,0a.18.18,0,0,0,0-.022.13.13,0,0,0-.016-.047.089.089,0,0,1-.011-.017l0-.007v-.025a1.254,1.254,0,0,1,.01-.125,1.435,1.435,0,0,0,.019-.247c-.041-.165.078-.319.031-.477.016-.155.012-.307.04-.454-.1-.156.02-.292.046-.429s-.046-.282.055-.4c-.074-.141.02-.258.06-.375s0-.243.061-.347c-.043-.122.071-.213.068-.318.057-.095.037-.2.063-.288a.629.629,0,0,1,.067-.256c.022-.08.042-.155.061-.225.028-.1.06-.2.086-.274s.051-.145.072-.2c.042-.105.071-.158.086-.154" transform="translate(0 -8.656)"/>
      <path id="Path_887" data-name="Path 887" d="M46.919,34.279c.016,0,.033.046.052.135.009.044.019.1.028.162l.015.1.024.117c.011.055.022.114.034.177.008.031.015.063.023.1a.708.708,0,0,1,.021.1c-.028.079.1.13.055.22a.277.277,0,0,0,.022.12c.014.039.033.078.051.118.038.079.016.18.087.255.109.061-.024.211.107.269a1.163,1.163,0,0,1,.133.279.2.2,0,0,0,.05.155c.034.045.076.085.106.132-.018.138.078.22.182.292a.229.229,0,0,0,.038.19.33.33,0,0,0,.173.1c.039.048.064.107.1.156a.469.469,0,0,0,.138.133,3.839,3.839,0,0,1,.27.282.483.483,0,0,1,.1.044.437.437,0,0,1,.084.058.5.5,0,0,1,.121.169.456.456,0,0,1,.189.1.958.958,0,0,1,.142.161.437.437,0,0,0,.183.111.426.426,0,0,1,.18.12c.125.075.26.135.391.206a1.537,1.537,0,0,0,.19.131l.251.136-.172.191a.587.587,0,0,0-.094.137l-.048.1-.221-.039a.477.477,0,0,0-.078-.007c-.075-.024-.151-.046-.225-.075a1.023,1.023,0,0,1-.211-.113.477.477,0,0,1-.241-.046.794.794,0,0,1-.107-.06c-.035-.022-.071-.044-.105-.068a1.491,1.491,0,0,1-.228-.094,1.11,1.11,0,0,0-.115-.047.539.539,0,0,0-.124-.022,1.774,1.774,0,0,0-.241-.068c-.041-.01-.082-.021-.122-.034a.678.678,0,0,1-.118-.047,2.407,2.407,0,0,0-.236-.095.717.717,0,0,0-.25-.04c-.175.01-.317-.1-.482-.119-.145-.107-.325-.046-.477-.105a.988.988,0,0,1-.118-.025l-.058-.016-.029-.009-.008,0-.013,0-.026-.006a2.475,2.475,0,0,0-.437-.071l-.057-.008-.029,0-.014,0s0,0,0,0V38.3l.021-.1c.014-.071.03-.142.047-.215s.035-.145.056-.215l.008-.027,0-.014.01-.027c.007-.018.015-.036.023-.053-.073-.175.1-.292.1-.445a.55.55,0,0,0,.062-.216,1.491,1.491,0,0,1,.029-.219c0-.148.1-.277.079-.424a1.7,1.7,0,0,1,.066-.413c-.035-.142.082-.263.056-.4.014-.131.025-.26.05-.385.1-.118.035-.249.038-.369s-.03-.241.034-.352a.871.871,0,0,0,.026-.335c-.008-.109.142-.21.022-.315a.3.3,0,0,1,.03-.151.215.215,0,0,0,.014-.073.148.148,0,0,0-.006-.037.3.3,0,0,0-.021-.055.369.369,0,0,1-.019-.227c.006-.033.015-.063.023-.091s.007-.028.01-.042v-.019h0l.025,0,.358.012.1,0,.158.006-.036.143a8.884,8.884,0,0,1-.232,1.041,2.137,2.137,0,0,1-.019-1.092l.129.158-.192.017h-.009s0,.007,0,.01a.218.218,0,0,0,.007.023l.016.042c.009.025.011.038-.017.056a.052.052,0,0,0,0,.017c0,.012,0,.024,0,.036s.008.05.012.075a.307.307,0,0,1-.01.153c.083.106.009.212,0,.322a1.342,1.342,0,0,0-.005.341c.044.12-.04.235-.014.36a.507.507,0,0,0-.02.378c-.063.124-.017.261-.034.395-.091.125-.051.267-.042.41s-.051.279-.053.425c-.038.141-.031.292-.069.438a1.014,1.014,0,0,1-.008.23.757.757,0,0,1-.074.22,2.31,2.31,0,0,1-.1.46c0,.02,0,.04-.006.06l0,.03,0,.014h0a.029.029,0,0,1-.005.014c0,.005-.007.011-.011.018a.025.025,0,0,0,0,.009s.005,0,.009,0,.011.015.028.03l0,0h0l.006,0,.03.009a.6.6,0,0,0,.061.011.321.321,0,0,0,.128-.011c.165.023.323.084.492.1a2.875,2.875,0,0,0,.5.12.538.538,0,0,0,.239.109,2.459,2.459,0,0,0,.263.029q.065.01.129.025c.042.012.084.024.125.038.082.028.163.06.243.093.042.011.083.023.125.035l.121.043c.081.03.16.061.239.092a.64.64,0,0,1,.122.038c.039.017.076.037.114.056a.855.855,0,0,0,.234.092.642.642,0,0,1,.229.1.744.744,0,0,0,.225.1l.075.022-.321.07a1.35,1.35,0,0,1,.091-.129l.106.435a.928.928,0,0,1-.214-.132c-.151-.067-.249-.219-.424-.235-.074-.031-.153-.055-.226-.089a.292.292,0,0,1-.165-.175.689.689,0,0,1-.175-.15.572.572,0,0,0-.178-.139.341.341,0,0,0-.142-.174c-.03-.022-.063-.04-.094-.06a.617.617,0,0,1-.082-.071,1.516,1.516,0,0,0-.282-.318.478.478,0,0,1-.137-.155,1.407,1.407,0,0,0-.109-.17.331.331,0,0,1-.109-.164.342.342,0,0,0-.1-.163,2.588,2.588,0,0,1-.179-.324.171.171,0,0,1-.119-.139c-.014-.059-.012-.124-.028-.178-.03-.11-.16-.176-.121-.307-.116-.07-.08-.195-.09-.295s-.091-.176-.069-.277a.144.144,0,0,1-.043-.127.3.3,0,0,0-.009-.129c.024-.09-.028-.16-.031-.235a.441.441,0,0,1-.027-.107A.384.384,0,0,1,46.864,35c0-.066-.005-.129-.007-.187,0-.043,0-.084,0-.122s.005-.074.007-.107c0-.067.01-.123.017-.168.012-.09.026-.137.042-.137" transform="translate(-32.263 -23.312)"/>
      <path id="Path_888" data-name="Path 888" d="M23.453,16.711c.032,0,.063.194.092.548,0,.059.009.122.014.191a1.184,1.184,0,0,1,.013.216c-.042.076.079.157.013.241a.739.739,0,0,0,.013.265c.015.092-.027.189.012.288.083.1-.091.2.012.31a1.335,1.335,0,0,1,.011.332c-.063.114,0,.231.011.352a.382.382,0,0,0,.01.372.289.289,0,0,0,.01.39,1.319,1.319,0,0,0,.008.408q.007.1.013.21c0,.035,0,.071,0,.107,0,.018,0,.036,0,.054s0,.062-.005.092a1.789,1.789,0,0,1,.051.484,2.221,2.221,0,0,1-.381-.045.98.98,0,0,1-.2.038.485.485,0,0,1-.113.008,1.133,1.133,0,0,1-.23-.039c-.154-.042-.31.066-.469.006-.158,0-.319.017-.482,0a.83.83,0,0,0-.494,0,1.452,1.452,0,0,1-.505,0,.751.751,0,0,1-.516,0,2.947,2.947,0,0,0-.525,0,2,2,0,0,0-.266.009l-.066,0h-.119c-.085,0-.169,0-.246-.013L19,21.547l-.057,0h-.022s0,0,0-.007l0-.032c.006-.085.011-.166.014-.245s0-.157,0-.235v-.029c0-.009,0-.012,0-.019l0-.033a.675.675,0,0,0-.013-.067.681.681,0,0,1-.006-.267,1.244,1.244,0,0,0,.024-.263c.084-.172-.012-.351.031-.521a2.759,2.759,0,0,0,.042-.51,1.792,1.792,0,0,1,.058-.5.241.241,0,0,1-.031-.128.418.418,0,0,1,.03-.12.681.681,0,0,0,.07-.235.648.648,0,0,0,.049-.235,1.346,1.346,0,0,1,.029-.234c.006-.157.1-.3.088-.453a1.912,1.912,0,0,1,.1-.435.352.352,0,0,1,.047-.212c.016-.034.031-.066.043-.1,0-.008.006-.017.008-.025l0-.013,0-.021a.712.712,0,0,0,.013-.089l.084-.342c0-.011.011,0,.017,0l.022,0,.043.006.086.015.171.032a.717.717,0,0,0,.081.039l.038.014.024.01a.333.333,0,0,0,.1.014c.065,0,.131-.009.193,0,.124.026.252-.012.363.061a.959.959,0,0,0,.346.047c.113,0,.209.153.326.045a.33.33,0,0,1,.153.044.15.15,0,0,0,.153-.006c.1-.068.193.021.285.03l.263.029c.094.01.183.023.267.03l.236.02c.147.013.272.027.373.04.2.026.312.052.312.076s-.134.05-.386.069c-.126.009-.28.018-.462.026-.045,0-.092,0-.141,0h-.15l-.33-.005c-.093,0-.194.055-.29-.006a1.126,1.126,0,0,0-.156.01.339.339,0,0,1-.158-.024c-.115.072-.22-.008-.334-.024a1.457,1.457,0,0,0-.355-.027c-.127.036-.241-.058-.372-.042a.478.478,0,0,0-.188-.06.627.627,0,0,0-.1,0l-.024,0L20,16.641a.058.058,0,0,0-.015.014.055.055,0,0,0-.066-.023.409.409,0,0,1,0,.077.051.051,0,0,0-.025.007.012.012,0,0,0-.005,0l-.006.012-.011.024a.4.4,0,0,0-.026.1,1.494,1.494,0,0,0-.005.216c0,.145-.07.279-.081.427-.045.141-.033.3-.073.443a1.235,1.235,0,0,1-.006.231.762.762,0,0,1-.06.227,1.278,1.278,0,0,1-.021.235c-.007.04-.014.079-.02.118s-.012.079-.016.119a3.542,3.542,0,0,1-.049.486c0,.165-.107.324-.035.5-.005.168-.032.337-.025.509-.009.085-.019.171-.024.257a1.612,1.612,0,0,0,.009.261.447.447,0,0,0-.027.065c0,.011-.006.022-.009.033s0,.013,0,.015l0,0a.046.046,0,0,0,0,.035.024.024,0,0,0,.018.019s.014-.006.021-.009l.019-.013.018-.012h.08c.089,0,.178.007.266.014.177-.009.352,0,.525,0,.174-.024.345.036.516,0s.338.038.505,0a1.237,1.237,0,0,1,.494,0c.163,0,.324.076.482,0,.159-.016.315-.11.469.006a.684.684,0,0,1,.23.011.853.853,0,0,0,.113.012.023.023,0,0,0,.026-.016.08.08,0,0,0,.078.038.215.215,0,0,0-.018-.052.1.1,0,0,1-.012-.037.1.1,0,0,0,.007-.014l.006-.054c0-.036.009-.071.011-.107a.644.644,0,0,0-.016-.21c-.041-.139.022-.275.009-.408-.049-.133.064-.263.009-.39.011-.127-.007-.251.01-.372-.115-.121,0-.238.011-.352s-.076-.225.012-.332c-.087-.107-.012-.211.011-.31s-.037-.2.012-.288c-.061-.092.034-.181.013-.265.04-.084,0-.165.013-.241a.434.434,0,0,1,.014-.216c.005-.068.009-.131.014-.191.028-.354.06-.548.091-.548" transform="translate(-13.326 -11.396)"/>
      <path id="Path_889" data-name="Path 889" d="M33.683,37.422c-.032,0-.063-.194-.092-.548,0-.059-.009-.122-.014-.19a1.189,1.189,0,0,1-.013-.216c.042-.076-.079-.157-.014-.241a.726.726,0,0,0-.013-.265c-.015-.092.027-.189-.012-.288-.083-.1.091-.2-.012-.31a1.335,1.335,0,0,1-.011-.332c.063-.114,0-.232-.01-.352a.383.383,0,0,0-.01-.372.29.29,0,0,0-.01-.39,1.317,1.317,0,0,0-.009-.408l-.013-.21c0-.035,0-.071,0-.107,0-.018,0-.036,0-.054s0-.062.005-.092a1.79,1.79,0,0,1-.051-.484,2.218,2.218,0,0,1,.381.045.979.979,0,0,1,.2-.038.5.5,0,0,1,.113-.008,1.154,1.154,0,0,1,.23.039c.154.042.31-.065.469-.005.159,0,.319-.017.482-.005a.831.831,0,0,0,.494,0,1.467,1.467,0,0,1,.505,0,.751.751,0,0,1,.516,0,2.92,2.92,0,0,0,.525,0,1.822,1.822,0,0,0,.266-.008l.066,0h.119c.084,0,.169,0,.246.013l.117.009.057,0h.021s0,0,0,.006l0,.032c-.006.085-.011.166-.014.246s0,.156,0,.235v.029c0,.009,0,.012,0,.019l0,.034c0,.022.008.045.013.067a.668.668,0,0,1,.006.267,1.231,1.231,0,0,0-.024.264c-.084.172.012.351-.031.521a2.76,2.76,0,0,0-.042.51,1.838,1.838,0,0,1-.058.5.243.243,0,0,1,.03.128.413.413,0,0,1-.03.12A.68.68,0,0,0,38,35.8a.64.64,0,0,0-.05.234,1.347,1.347,0,0,1-.029.234c-.007.158-.1.3-.088.453a1.944,1.944,0,0,1-.1.435.353.353,0,0,1-.047.212,1.011,1.011,0,0,0-.043.1.251.251,0,0,0-.008.025l0,.013,0,.021a.771.771,0,0,0-.013.089c-.029.115-.056.229-.084.342,0,.011-.011,0-.017,0l-.022,0-.043-.007-.086-.014-.17-.032a.74.74,0,0,0-.081-.039l-.038-.014-.024-.009a.335.335,0,0,0-.1-.014c-.065,0-.131.009-.194,0-.123-.026-.252.012-.363-.06a.945.945,0,0,0-.346-.047c-.114,0-.21-.153-.327-.045a.329.329,0,0,1-.153-.044.151.151,0,0,0-.153.006c-.1.068-.194-.021-.285-.03l-.263-.029c-.094-.01-.183-.023-.267-.03l-.236-.02c-.147-.014-.272-.027-.373-.04-.2-.026-.312-.052-.312-.076s.134-.05.386-.069c.125-.009.28-.018.462-.026.045,0,.092,0,.141,0h.151l.33,0c.093,0,.194-.055.29.006a1.079,1.079,0,0,0,.155-.01.338.338,0,0,1,.158.024c.115-.072.22.008.334.024a1.456,1.456,0,0,0,.355.027c.127-.036.241.058.372.042A.468.468,0,0,0,37,37.5a.627.627,0,0,0,.1,0l.024,0,.009-.005a.085.085,0,0,0,.015-.014.055.055,0,0,0,.066.022.389.389,0,0,1,0-.077.054.054,0,0,0,.025-.007.011.011,0,0,0,.006,0l.006-.012c0-.008.008-.016.011-.024a.4.4,0,0,0,.026-.1,1.53,1.53,0,0,0,.005-.215c0-.145.07-.279.082-.427.044-.141.033-.3.073-.443a1.234,1.234,0,0,1,.006-.231.777.777,0,0,1,.059-.227,1.317,1.317,0,0,1,.022-.235c.006-.039.014-.078.021-.117s.011-.079.016-.119a3.489,3.489,0,0,1,.048-.485c0-.165.107-.324.035-.5,0-.168.032-.337.025-.509.009-.085.019-.171.024-.257a1.68,1.68,0,0,0-.009-.261.565.565,0,0,0,.027-.065l.009-.033s0-.013,0-.014l0,0a.046.046,0,0,0,0-.035.025.025,0,0,0-.018-.018s-.014.005-.021.009l-.019.013-.018.012h-.08c-.089,0-.178-.008-.266-.014-.176.008-.351,0-.525,0-.174.025-.345-.036-.516,0s-.338-.038-.505,0a1.249,1.249,0,0,1-.494,0c-.163,0-.323-.076-.482-.005-.159.016-.315.111-.469-.006a.684.684,0,0,1-.23-.011.924.924,0,0,0-.113-.012.023.023,0,0,0-.026.016.079.079,0,0,0-.078-.038.233.233,0,0,0,.018.053.1.1,0,0,1,.012.036.063.063,0,0,0-.007.014l-.007.054c0,.036-.009.071-.011.107a.648.648,0,0,0,.016.21c.041.139-.022.274-.009.408.049.133-.064.264-.009.39-.011.127.007.251-.01.372.115.12,0,.238-.011.352s.076.225-.011.332c.087.107.012.21-.012.31s.037.2-.012.288c.061.092-.034.181-.013.265-.04.084,0,.165-.013.241a.432.432,0,0,1-.014.216l-.014.19c-.028.354-.059.548-.091.548" transform="translate(-23.547 -22.933)"/>
      <path id="Path_890" data-name="Path 890" d="M33.756,16.769c0-.032.193-.067.546-.1l.189-.018a1.211,1.211,0,0,1,.215-.018c.078.038.152-.088.238-.028a.729.729,0,0,0,.263-.029c.09-.02.189.015.285-.03.046-.044.1-.024.151-.007a.13.13,0,0,0,.155-.03,1.3,1.3,0,0,1,.326-.045c.12.051.229-.023.346-.047a.365.365,0,0,0,.364-.061.276.276,0,0,0,.2.042.283.283,0,0,0,.093-.037l.024-.015.037-.019.081-.045c.055-.009.111-.015.166-.021l.081-.008.04,0,.02,0c.006,0,.016-.006.015.005a1.392,1.392,0,0,0,.1.32l.024.085.006.022,0,.013.008.025.032.1a.988.988,0,0,1,.044.213.535.535,0,0,1,.1.435.625.625,0,0,1,.088.453.557.557,0,0,0,.049.231.445.445,0,0,1,.03.238c.009.08.024.159.039.239.007.04.015.081.02.121s.008.082.01.123a.854.854,0,0,0,.058.5,1.491,1.491,0,0,1,.042.51.735.735,0,0,1,.031.521,1.761,1.761,0,0,1,0,.265.854.854,0,0,0,.017.266c0,.022,0,.044,0,.067l0,.083c0,.084.008.167.013.251s.008.171.009.256v.031s0,.006,0,.006H38.29l-.065,0-.133-.009-.252-.017-.18-.01a.9.9,0,0,0-.266.026,2.888,2.888,0,0,1-.525,0c-.174-.075-.345.024-.516,0a2.582,2.582,0,0,0-.505,0,1.767,1.767,0,0,1-.495,0c-.163.115-.323-.029-.482,0a2.06,2.06,0,0,0-.469-.006.856.856,0,0,1-.23-.013.921.921,0,0,0-.113-.009,1.2,1.2,0,0,0-.2.016c-.111,0-.225,0-.344.007a2.108,2.108,0,0,1,.014-.446.717.717,0,0,1-.014-.093.329.329,0,0,1,0-.054.689.689,0,0,1,.014-.107.43.43,0,0,0,.01-.21c0-.139,0-.275.009-.408.09-.133.015-.263.009-.39.009-.127-.051-.251.01-.372a.954.954,0,0,0,.01-.352c-.013-.114.131-.224.011-.332-.022-.107.092-.211.012-.31s.009-.2.012-.288.009-.181.013-.266a4.053,4.053,0,0,1,.132-1.2,5.533,5.533,0,0,1,.145,1.461c0,.092.067.188.012.288a.894.894,0,0,1,.012.31c.083.107.016.218.011.332a1.478,1.478,0,0,0,.011.352c.049.12-.024.244.01.372a.539.539,0,0,0,.009.39c-.05.133.011.269.009.408a.338.338,0,0,0-.036.21.973.973,0,0,0,.019.107l.013.054a.049.049,0,0,0,.012.014c.016.015.01.029.005.053a.054.054,0,0,0,.042,0,.042.042,0,0,0,.026,0c.037,0,.075,0,.113-.006a1.488,1.488,0,0,1,.23,0,.937.937,0,0,1,.469-.006,3.165,3.165,0,0,1,.482,0,3.682,3.682,0,0,1,.495,0c.166-.016.335.082.505,0,.17-.011.342.013.516,0a2.714,2.714,0,0,0,.525,0,.512.512,0,0,0,.266.043.634.634,0,0,0,.066-.007h.011l0,0,.006-.006a.039.039,0,0,0,.011-.026c0-.006,0-.008,0-.013a.017.017,0,0,1,0-.012.039.039,0,0,1,0-.009v0s0-.01,0-.014l0-.032,0-.066c-.006-.087-.008-.174-.009-.26s0-.173-.006-.258c-.034-.17.024-.343-.025-.509s.012-.337-.035-.5a1.217,1.217,0,0,1-.048-.485.784.784,0,0,1,0-.121c0-.04,0-.081,0-.121a.414.414,0,0,0-.058-.231c-.019-.076-.057-.149-.078-.224A.287.287,0,0,1,37.522,18c-.055-.144.006-.308-.073-.443.053-.161-.056-.287-.082-.426-.006-.072-.013-.142-.025-.211a.838.838,0,0,0-.024-.1l-.008-.025,0-.012a.006.006,0,0,0,0,0,.045.045,0,0,0-.014-.011c-.023-.007-.02-.019-.017-.046a.035.035,0,0,0-.045-.008.055.055,0,0,1-.013.013l-.006,0-.023,0a.721.721,0,0,1-.1,0,.3.3,0,0,0-.193.026c-.128.006-.249.048-.372.042-.108.127-.24.025-.355.027s-.218.1-.334.024a.181.181,0,0,1-.156.052c-.053-.008-.106-.03-.157-.038-.1-.019-.194.049-.29.006-.089.067-.184-.022-.267,0-.087-.035-.165.008-.243,0a.443.443,0,0,1-.218-.009l-.192-.01c-.356-.021-.55-.048-.55-.08" transform="translate(-23.625 -11.45)"/>
      <path id="Path_891" data-name="Path 891" d="M19.531,33.01c0-.032.194-.063.548-.091l.191-.014a1.159,1.159,0,0,1,.216-.014c.077.042.157-.079.242-.014a.737.737,0,0,0,.265-.012c.092-.015.188.027.289-.012.1-.083.2.091.31-.012a1.321,1.321,0,0,1,.332-.011c.114.063.232,0,.352-.01a.382.382,0,0,0,.372-.01.289.289,0,0,0,.39-.009,1.326,1.326,0,0,0,.408-.008l.046,0,.023,0,.039,0,.163-.006c.11,0,.223-.005.329,0,0,.031,0,.064-.005.1a1.164,1.164,0,0,1,.052.374V33.3a.251.251,0,0,1,0,.031.429.429,0,0,1-.008.055.629.629,0,0,1-.034.112.629.629,0,0,1,.006.455c-.042.154.066.31.006.469,0,.159.017.319,0,.482a.832.832,0,0,0,0,.495,1.452,1.452,0,0,1,0,.505.753.753,0,0,1,0,.516,2.916,2.916,0,0,0,0,.525,1.864,1.864,0,0,0,.009.266l0,.067v.109a2.3,2.3,0,0,1-.013.247l-.009.117,0,.058v.021s0,0-.007,0h-.032c-.085,0-.166-.005-.246-.005s-.157,0-.236.009h-.023l-.017,0-.032.006a.641.641,0,0,0-.066.016,2.882,2.882,0,0,1-.519.009c-.175-.065-.34.045-.509.029a2.261,2.261,0,0,0-.5.031,1.728,1.728,0,0,1-.486.047.27.27,0,0,1-.235.056c-.04-.005-.081-.014-.122-.017a.32.32,0,0,0-.117.011,2.007,2.007,0,0,0-.459.063.772.772,0,0,1-.088.017l-.1.012c-.067.007-.132.011-.2.015l-.093.007s-.009,0-.01,0l0-.012-.005-.025-.011-.047a.972.972,0,0,0-.06-.177c-.013-.065-.03-.128-.048-.19l-.035-.107a.553.553,0,0,1-.035-.219c-.086-.131-.012-.293-.081-.422a3.23,3.23,0,0,1-.066-.407c.066-.148-.033-.264-.056-.391s-.086-.244-.042-.373c0-.061,0-.122,0-.181a.427.427,0,0,0-.03-.173c-.025-.113.106-.238-.025-.333-.034-.106.073-.22-.016-.313s-.006-.2-.01-.29c0-.046,0-.092,0-.137s0-.088,0-.13c0-.192,0-.362.006-.511s.017-.275.026-.377c.019-.2.041-.314.065-.314s.055.135.083.383l.113,1.067c.011.091.081.181.034.284a1,1,0,0,1,.038.305c.094.1.039.213.047.326.008.056.008.114.013.172a.553.553,0,0,0,.04.173c.065.112.01.243.061.363a.5.5,0,0,0,.073.379,1.026,1.026,0,0,0,.081.394.561.561,0,0,0,.094.408.984.984,0,0,1,.057.208c.006.036.013.071.021.107a.039.039,0,0,0,.011.022.054.054,0,0,0,0,.026s0,.008.006.008l.014-.006.024-.01.009,0a.085.085,0,0,0,.025,0,.955.955,0,0,1,.469-.076,1.149,1.149,0,0,1,.118-.029c.04-.006.08-.01.121-.014.081-.006.163-.01.245-.019a3.682,3.682,0,0,1,.5-.056c.166-.032.344.059.51-.038.171-.021.346-.009.52-.034a2.811,2.811,0,0,0,.531-.012.415.415,0,0,0,.067.024l.033.008.017,0h.011a.044.044,0,0,0,.035,0,.024.024,0,0,0,.017-.019s-.005-.014-.009-.02a.169.169,0,0,0-.013-.018l-.012-.018v-.09c0-.089.008-.177.014-.266-.008-.176,0-.351,0-.525-.025-.173.036-.345,0-.516s.038-.339,0-.505a1.251,1.251,0,0,1,0-.495c0-.163.076-.323,0-.482-.016-.158-.111-.315.006-.469-.029-.154.057-.306.006-.455a.294.294,0,0,0,.037-.112.381.381,0,0,0,0-.055c0-.008,0-.02,0-.025a.045.045,0,0,0,0-.009c-.009-.025-.029-.032-.027-.048l.007-.019a.073.073,0,0,0-.041-.019.075.075,0,0,0-.03,0l-.009,0-.023,0-.046.009c-.138.041-.275-.022-.408-.008-.133.049-.263-.064-.39-.009-.127-.011-.251.007-.372-.01-.121.114-.238,0-.352-.011s-.225.076-.332-.011c-.107.087-.21.012-.31-.012s-.2.037-.289-.012c-.092.061-.181-.034-.265-.013-.084-.04-.165,0-.242-.014a.428.428,0,0,1-.216-.013l-.191-.014c-.354-.029-.548-.06-.548-.091" transform="translate(-13.685 -23.104)"/>
      <path id="Path_892" data-name="Path 892" d="M15.073.887c0,.038-.215.045-.565.178-.057.025-.119.048-.182.082s-.126.076-.2.108c-.045,0-.072.039-.1.074s-.055.071-.11.068a.365.365,0,0,0-.115.073c-.017.015-.035.031-.052.048l-.05.054a.979.979,0,0,1-.115.094.313.313,0,0,0-.1.116c-.008.067-.063.086-.114.112s-.1.055-.1.132a1.131,1.131,0,0,1-.1.141c-.036.046-.075.091-.114.137a.286.286,0,0,0-.127.135c-.028.056-.049.119-.081.175a.319.319,0,0,0-.142.141.7.7,0,0,0-.058.2.3.3,0,0,0-.163.145.4.4,0,0,0-.029.224,1.314,1.314,0,0,0-.182.4,3.7,3.7,0,0,1-.172.421.63.63,0,0,1-.161.444.768.768,0,0,1-.149.466.566.566,0,0,0-.064.242c0,.021-.005.042-.008.063l-.006.031,0,.019-.007.029a1.072,1.072,0,0,1-.079.219l-.032.112-.015.058-.008.028c0,.009,0,.024-.015.018l-.232-.038-.237-.041-.072-.014-.066-.015a1.083,1.083,0,0,0-.537-.107,1.59,1.59,0,0,1-.546-.127.869.869,0,0,1-.553-.149,1.531,1.531,0,0,1-.275-.1A1,1,0,0,0,8.751,5.2,4.359,4.359,0,0,1,8.192,5c-.089-.049-.177-.1-.267-.136a1.378,1.378,0,0,0-.139-.052l-.113-.041c-.04-.014-.081-.027-.125-.04a2.671,2.671,0,0,1-.482-.2L7.013,4.5s0,0,0,0l.006-.006.011-.012.023-.024.089-.091A2.379,2.379,0,0,0,7.3,4.185a1.4,1.4,0,0,0,.185-.166c.026-.028.05-.056.074-.086L7.6,3.889l.033-.043a1.1,1.1,0,0,1,.19-.216,2.05,2.05,0,0,1,.212-.191.982.982,0,0,0,.2-.2,2.6,2.6,0,0,1,.2-.2,1.443,1.443,0,0,1,.226-.159.281.281,0,0,1,.078-.121.384.384,0,0,1,.116-.073.828.828,0,0,0,.239-.129.918.918,0,0,0,.224-.14,1.776,1.776,0,0,1,.213-.151.968.968,0,0,1,.223-.127.642.642,0,0,0,.215-.131,2.165,2.165,0,0,0,.211-.132.707.707,0,0,1,.225-.1c.119-.123.3-.1.43-.2a4.033,4.033,0,0,1,.422-.172c.171.031.279-.089.41-.144.068-.022.131-.052.195-.079a.389.389,0,0,1,.2-.038c.066-.017.132-.025.2-.039a.514.514,0,0,0,.184-.058c.121-.044.272.066.36-.08.113-.044.248.045.341-.055s.215-.035.316-.044L13.753.85l.153-.014c.05,0,.1,0,.145-.006l.263-.007c.082,0,.157-.005.226,0l.188.011c.225.016.344.036.344.06s-.147.057-.417.089c-.135.012-.3.041-.493.068s-.413.069-.657.113c-.1.015-.188.1-.3.066a1.038,1.038,0,0,1-.325.076c-.093.109-.223.072-.343.1-.06.017-.121.027-.182.041a.662.662,0,0,0-.178.073.411.411,0,0,1-.184.069.466.466,0,0,0-.192.063.613.613,0,0,0-.388.155c-.152.006-.261.124-.4.18-.17-.014-.281.109-.4.2a1.082,1.082,0,0,1-.2.112,1.4,1.4,0,0,0-.205.118,1.692,1.692,0,0,0-.208.122,1.939,1.939,0,0,1-.2.135,1.327,1.327,0,0,1-.19.162,1.039,1.039,0,0,1-.22.123,1.48,1.48,0,0,1-.2.159c-.036.024-.071.049-.1.076s-.068.052-.1.08a1.232,1.232,0,0,1-.2.173,1.843,1.843,0,0,0-.2.171,1.226,1.226,0,0,1-.215.162.445.445,0,0,0-.173.211c-.06.068-.126.13-.193.193L7.973,4.2a.141.141,0,0,0-.016.017.144.144,0,0,0-.023.034l-.039.033-.02.018-.009.009.007,0a.171.171,0,0,0,.076.019.038.038,0,0,0,0,.027.026.026,0,0,0,.005.012l0,.006a.017.017,0,0,0,.008.006.689.689,0,0,0,.131.057,2.792,2.792,0,0,0,.283.066,3.564,3.564,0,0,1,.539.193c.091.025.181.053.271.083s.177.06.266.087c.187.026.347.14.534.149s.345.128.529.13a1.624,1.624,0,0,1,.521.112c.022,0,.043.009.065.015l.031.009.016.005.008,0,0,0a.144.144,0,0,0,.03.024.064.064,0,0,0,.036.012.08.08,0,0,0-.014-.054.05.05,0,0,0-.016-.029l0,0s0-.01,0-.014l0-.033c0-.022,0-.044.008-.066a.341.341,0,0,1,.126-.233c.024-.173.158-.306.167-.479.136-.127.118-.307.181-.457a1.6,1.6,0,0,0,.194-.433c.028-.158.152-.269.207-.406a.412.412,0,0,1,.11-.192.387.387,0,0,0,.109-.187c.041-.058.076-.12.111-.179a1.447,1.447,0,0,1,.118-.17.213.213,0,0,1,.081-.19,1.524,1.524,0,0,0,.159-.127.7.7,0,0,0,.1-.163.225.225,0,0,1,.145-.12c.017-.149.155-.186.252-.247a.6.6,0,0,0,.121-.116.261.261,0,0,1,.133-.093.154.154,0,0,1,.048-.066.312.312,0,0,1,.07-.036.38.38,0,0,0,.133-.068.323.323,0,0,0,.129-.061.746.746,0,0,1,.114-.071.47.47,0,0,1,.23-.092,2.07,2.07,0,0,1,.209-.062,1.678,1.678,0,0,1,.46-.044c.105.01.158.025.158.041" transform="translate(-4.942 -0.579)"/>
      <path id="Path_893" data-name="Path 893" d="M38.023,5.145c-.032.009-.113-.189-.253-.549L37.694,4.4a1.391,1.391,0,0,1-.088-.218c.012-.092-.131-.133-.1-.241a.816.816,0,0,0-.115-.263c-.052-.086-.052-.2-.132-.282-.117-.065-.006-.238-.149-.3a1.833,1.833,0,0,1-.17-.313.279.279,0,0,0-.069-.174c-.04-.05-.085-.1-.124-.149a.407.407,0,0,0-.22-.328.306.306,0,0,0-.251-.327c-.022-.027-.043-.055-.063-.085L36.15,1.64a.512.512,0,0,0-.16-.145c-.051-.051-.109-.1-.163-.144a1.871,1.871,0,0,1-.162-.148A.652.652,0,0,1,35.3.954a.85.85,0,0,1-.411-.179.232.232,0,0,0-.106-.04.524.524,0,0,0-.114-.008.5.5,0,0,1-.224-.034c-.036,0-.073,0-.109,0V.206c.135,0,.274-.006.412.006A1.193,1.193,0,0,0,35.3.245a1.466,1.466,0,0,1,.562.064.845.845,0,0,1,.57.1c.2.021.371.129.573.133a1.387,1.387,0,0,0,.144.037c.049.01.1.023.145.035a1.289,1.289,0,0,1,.284.1l.138.062c.045.022.091.043.137.062a1.136,1.136,0,0,0,.288.08.721.721,0,0,1,.277.1,1.506,1.506,0,0,0,.264.129.642.642,0,0,0,.252.145,1.1,1.1,0,0,1,.264.114,3.569,3.569,0,0,0,.49.284,2.191,2.191,0,0,1,.463.3c.215.013.277.238.434.321.108.15.278.217.4.336.143.1.218.269.374.346a2.107,2.107,0,0,1,.343.353.3.3,0,0,1,.053.033l.023.02c.009.009.022.023.031.035.041.048.078.1.112.148a1.213,1.213,0,0,0,.229.273l.118.133.029.033.007.009s.008.006,0,.007l-.021.009-.084.037c-.112.05-.225.1-.338.142a.856.856,0,0,0-.182.038.711.711,0,0,0-.075.029l-.028.013-.024.012c-.064.034-.122.08-.187.109a1.314,1.314,0,0,0-.189.091.376.376,0,0,1-.2.047,1.3,1.3,0,0,0-.371.12c-.117.051-.276-.049-.353.1-.107.057-.249-.024-.332.084s-.211.052-.31.073L39.33,5c-.205.044-.39.07-.551.1s-.3.04-.41.05c-.224.019-.345.017-.349-.006a9.53,9.53,0,0,1,1.524-.477c.1-.028.179-.12.3-.1a1.18,1.18,0,0,1,.319-.105c.086-.114.219-.086.338-.12a1.478,1.478,0,0,0,.354-.136.433.433,0,0,1,.182-.078.566.566,0,0,0,.188-.074.529.529,0,0,0,.2-.048L41.451,4a.082.082,0,0,0,.019-.011.13.13,0,0,0,.018-.018.081.081,0,0,0,.02-.04A.1.1,0,0,0,41.6,3.9a.063.063,0,0,0,.009-.012l0,0s0,0-.006-.005l-.014-.01a.266.266,0,0,1-.043-.037c.032-.022.006-.06-.027-.086a.288.288,0,0,0-.054-.032l-.015-.006L41.428,3.7l-.049-.032c-.129-.088-.209-.23-.337-.326-.109-.118-.251-.2-.365-.32a1.056,1.056,0,0,1-.392-.311,3.492,3.492,0,0,1-.418-.3,4.176,4.176,0,0,1-.444-.283c-.161-.073-.269-.25-.469-.264-.167-.07-.318-.178-.493-.242-.082-.042-.165-.084-.25-.122a1.371,1.371,0,0,0-.264-.1.582.582,0,0,0-.25-.14,1.332,1.332,0,0,0-.14-.033c-.048-.009-.1-.012-.144-.019a2.016,2.016,0,0,1-.276-.072c-.045-.014-.089-.032-.134-.046l-.134-.043c-.185-.037-.363-.093-.544-.129a4.394,4.394,0,0,0-.54-.1c-.184.01-.352-.092-.534-.068a1.748,1.748,0,0,1-.525-.038c-.132,0-.261-.051-.392-.045V.227A.521.521,0,0,0,34.474.2a2.928,2.928,0,0,1,.3-.008.4.4,0,0,1,.143.033.307.307,0,0,1,.122.091.718.718,0,0,1,.254.11.845.845,0,0,0,.241.121A.4.4,0,0,0,35.576.6a.392.392,0,0,0,.048.046.792.792,0,0,0,.109.07,1.345,1.345,0,0,1,.219.133c.061.058.113.124.171.181a1,1,0,0,0,.183.159.568.568,0,0,1,.163.171l.065.1a.669.669,0,0,0,.07.089c.134.09.129.276.254.362a3.987,3.987,0,0,1,.215.359.2.2,0,0,1,.136.153c.02.066.022.138.048.2.046.119.183.19.157.335.129.071.11.208.132.319s.119.186.112.3c.1.073.041.2.094.278-.006.1.06.172.078.256a.522.522,0,0,1,.063.23q.027.109.05.2c.087.381.109.595.079.6" transform="translate(-24.201 -0.136)"/>
      <path id="Path_894" data-name="Path 894" d="M37.3,5.131c.006.032-.154.087-.453.16l-.161.038a.91.91,0,0,1-.183.041c-.07-.031-.125.1-.205.038a.544.544,0,0,0-.227.037c-.078.023-.165-.01-.247.038-.078.091-.183-.073-.266.04a.926.926,0,0,1-.286.03c-.1-.057-.2.012-.3.03a.294.294,0,0,0-.321.03.231.231,0,0,0-.338.019,1,1,0,0,0-.354.017l-.134.009-.16.01c-.054,0-.109,0-.162.005h-.107s0-.006,0-.009l0-.043a.788.788,0,0,1-.052-.31,1.255,1.255,0,0,1,.011-.179.525.525,0,0,1,.034-.1.472.472,0,0,1-.006-.391c.042-.133-.066-.267-.006-.4,0-.137-.017-.275,0-.415a.619.619,0,0,0,0-.425,1.092,1.092,0,0,1,0-.435.559.559,0,0,1,0-.443,2.179,2.179,0,0,0,0-.451,3.179,3.179,0,0,1,0-.459,1,1,0,0,0,0-.459.5.5,0,0,1-.011-.227c0-.038.01-.075.013-.113l0-.028V.747c0-.034,0-.067,0-.1a1.01,1.01,0,0,0,.028-.385l0-.053V.188s0-.005,0,0h.022L33.5.177a.985.985,0,0,1,.2.011c.065,0,.131.009.2.017.032.006.065.013.1.02l.024.006.016,0,.03.008c.039.01.077.024.116.032a.854.854,0,0,0,.12.018,1.026,1.026,0,0,1,.431.186.236.236,0,0,1,.213.089c.027.029.051.059.078.086A.29.29,0,0,0,35.1.726c.088.125.231.175.327.28a.661.661,0,0,1,.14.156.445.445,0,0,0,.143.146c.081.107.2.18.245.31a.29.29,0,0,1,.115.153.346.346,0,0,0,.1.16,2.478,2.478,0,0,1,.184.311.226.226,0,0,0,.053.171,1.58,1.58,0,0,1,.11.133c.044.1.148.172.14.3.042.1.047.208.123.283.053.086-.04.231.106.27.055.079-.014.2.091.256s.054.163.078.239.046.151.066.221A2.519,2.519,0,0,1,37.3,5.136c-.027.007-.081-.1-.162-.3s-.2-.49-.35-.851c-.03-.073-.119-.125-.1-.224-.03-.08-.109-.142-.109-.24-.112-.051-.087-.162-.122-.253a.921.921,0,0,0-.137-.264c-.087-.07-.071-.195-.152-.273a.309.309,0,0,0-.05-.157.425.425,0,0,0-.119-.122c-.014-.122-.127-.186-.188-.283a.241.241,0,0,0-.069-.165,1.441,1.441,0,0,0-.141-.117c-.094-.076-.139-.2-.235-.274a.806.806,0,0,0-.126-.133,1.123,1.123,0,0,1-.135-.127.722.722,0,0,1-.291-.235c-.114-.057-.21-.137-.321-.2-.125-.029-.225-.113-.349-.143a.409.409,0,0,1-.09-.03.923.923,0,0,0-.089-.04L33.939.7l-.011,0,0,0a.02.02,0,0,0-.014,0c-.009,0-.016.012-.013.033a.019.019,0,0,1-.012,0s-.013,0-.012,0a.032.032,0,0,0,0,.03l0,.007s0,0,0,0V.783l0,.028c0,.037,0,.075,0,.113a1.366,1.366,0,0,0,.014.227.623.623,0,0,0,0,.459,1.959,1.959,0,0,1,0,.459c.009.152,0,.3,0,.451.025.149-.036.3,0,.443s-.038.292,0,.435a.927.927,0,0,1,0,.425c0,.14-.076.278-.005.415.017.136.111.271-.005.4.029.132-.056.263-.006.391a.229.229,0,0,0-.037.1.041.041,0,0,0,0,.033c.009.019.029.021.027.036s0,.014.005.02a.048.048,0,0,0,.021.01.062.062,0,0,0,.029,0,.44.44,0,0,1,.049-.018c.118-.043.235.017.348,0,.111-.052.227.062.333,0,.109,0,.213-.021.317-.01.1-.121.2-.012.3-.008s.185-.086.283-.008c.084-.1.178-.03.265-.016s.162-.054.246-.014c.071-.069.157.018.227-.011.077.032.14-.011.206-.011a.317.317,0,0,1,.185-.014l.163-.01c.3-.016.474-.01.48.021" transform="translate(-23.481 -0.124)"/>
      <path id="Path_895" data-name="Path 895" d="M21.815,5.012c-.016,0-.02-.048-.013-.129a2.9,2.9,0,0,1,.055-.35c.009-.051.022-.1.035-.162a.9.9,0,0,1,.044-.183c.061-.049-.03-.154.055-.2a.567.567,0,0,0,.066-.221c.013-.081.084-.144.078-.239-.045-.112.152-.13.091-.255A.944.944,0,0,1,22.33,3c.1-.064.084-.184.123-.283a.312.312,0,0,0,.141-.3.233.233,0,0,0,.144-.114.323.323,0,0,0,.018-.19c.057-.1.156-.182.185-.31l.1-.162a.884.884,0,0,1,.117-.151.4.4,0,0,1,.245-.31A.36.36,0,0,1,23.5,1a.873.873,0,0,1,.177-.12.474.474,0,0,0,.154-.148A.331.331,0,0,1,24.009.6a2.306,2.306,0,0,1,.377-.246A1.025,1.025,0,0,0,24.817.17c.036-.019.075-.032.113-.047a.729.729,0,0,1,.117-.037l.03-.007.015,0,.025,0c.034-.005.068-.01.1-.013a1.825,1.825,0,0,1,.195.005,1.154,1.154,0,0,1,.226-.05c.038-.005.076-.009.112-.012h.027s0,0,0,0V.079a3.811,3.811,0,0,1-.033.442c0,.034,0,.068,0,.1V.688c0,.037-.007.075-.011.113a.589.589,0,0,0,.013.227,3.138,3.138,0,0,1,0,.459,1,1,0,0,0,0,.459c.051.152-.021.3,0,.452-.075.15.024.3,0,.443a1.916,1.916,0,0,0,0,.435,1.317,1.317,0,0,1,0,.425c.115.14-.03.278,0,.415-.049.136.007.271-.006.4.022.132-.053.263-.006.391a.615.615,0,0,0,0,.1c0,.056.005.112.008.168a1.2,1.2,0,0,1-.017.321c0,.017.007.033.009.049V5.55s0,0,0,0h-.009l-.018,0a.514.514,0,0,1-.08,0c-.056,0-.114-.01-.171-.018s-.11-.017-.161-.021a.372.372,0,0,0-.131.005,3.4,3.4,0,0,1-.354-.016c-.112-.093-.228-.017-.338-.019s-.22.037-.321-.03a.739.739,0,0,0-.3-.03c-.1.007-.184-.14-.286-.03-.095.012-.173-.11-.266-.04s-.168-.027-.247-.038l-.227-.037c-.163-.024-.306-.061-.431-.089s-.231-.056-.316-.079c-.171-.048-.259-.085-.255-.109s.123-.035.338-.027.526.038.922.052c.079,0,.167-.05.246.014.085.009.177-.03.264.016.1-.074.186,0,.283.008a1.041,1.041,0,0,0,.3.008c.105-.042.207.037.317.01a.381.381,0,0,0,.333,0c.112.052.23-.006.348,0,.038.019.037.031.052.037a.048.048,0,0,0,.035,0,.034.034,0,0,0,.02-.019c0-.009.008-.013,0-.031s-.011-.033-.007-.047a.069.069,0,0,0,0-.022.586.586,0,0,0-.005-.1c.015-.128-.02-.259-.006-.391a.7.7,0,0,1-.006-.4,2.341,2.341,0,0,1,0-.415,2.654,2.654,0,0,1,0-.425c-.016-.143.081-.288,0-.435-.011-.146.013-.294,0-.443a2.012,2.012,0,0,0,0-.452.623.623,0,0,0,0-.459,1.943,1.943,0,0,1,0-.459c0-.076-.005-.151,0-.227l0-.113V.646c0-.006,0,0,0,0l0-.007c-.012-.005,0-.013,0-.031s0-.014,0-.014A.029.029,0,0,0,25.212.6C25.2.61,25.2.613,25.2.612l-.007,0h-.037a.441.441,0,0,0-.094.011.246.246,0,0,0-.089.034A1.079,1.079,0,0,1,24.621.8c-.054.033-.12.043-.178.071a.388.388,0,0,0-.082.048A.222.222,0,0,0,24.3,1c-.094.088-.121.239-.291.235a.466.466,0,0,1-.14.123.3.3,0,0,0-.121.138c-.146.036-.161.183-.235.275-.042.043-.086.083-.125.128a.451.451,0,0,0-.086.153c-.029.118-.143.179-.188.283a.251.251,0,0,1-.089.139.2.2,0,0,0-.08.14c-.06.089-.092.19-.152.273.057.14-.086.18-.137.264s-.007.2-.122.252c.047.118-.058.169-.109.24s-.027.167-.1.224c.031.095-.084.133-.088.208-.061.055-.047.132-.078.19a.318.318,0,0,1-.069.171l-.061.151c-.057.141-.1.25-.138.322s-.063.109-.078.1" transform="translate(-15.366 -0.001)"/>
      <path id="Path_896" data-name="Path 896" d="M11.581,50.093c.032-.008.113.189.253.549l.076.193a1.4,1.4,0,0,1,.088.218c-.012.093.131.133.1.241a.817.817,0,0,0,.115.263c.052.086.052.2.132.282.117.065.006.238.149.3a1.856,1.856,0,0,1,.17.313.277.277,0,0,0,.069.174c.039.05.085.1.124.149a.406.406,0,0,0,.22.328.306.306,0,0,0,.251.327c.022.027.042.055.063.085s.041.057.063.086a.51.51,0,0,0,.16.146c.051.05.109.095.163.143a1.973,1.973,0,0,1,.162.149.65.65,0,0,1,.369.248.855.855,0,0,1,.411.179.234.234,0,0,0,.106.04.489.489,0,0,0,.114.008.507.507,0,0,1,.224.034l.109,0v.484c-.136,0-.274.006-.412-.007a1.189,1.189,0,0,0-.552-.033,1.474,1.474,0,0,1-.563-.064.845.845,0,0,1-.57-.1c-.2-.021-.37-.129-.573-.133a1.41,1.41,0,0,0-.144-.037c-.049-.011-.1-.024-.145-.035a1.281,1.281,0,0,1-.284-.1l-.138-.062c-.045-.022-.091-.043-.137-.062a1.138,1.138,0,0,0-.288-.079.713.713,0,0,1-.277-.1,1.474,1.474,0,0,0-.264-.129.634.634,0,0,0-.252-.145,1.109,1.109,0,0,1-.264-.115,3.486,3.486,0,0,0-.491-.284,2.2,2.2,0,0,1-.462-.3c-.214-.013-.277-.238-.434-.322-.108-.15-.278-.216-.4-.336-.144-.1-.218-.269-.374-.346a2.121,2.121,0,0,1-.344-.353.29.29,0,0,1-.053-.033l-.023-.02c-.009-.009-.021-.023-.031-.034-.042-.049-.078-.1-.112-.148a1.22,1.22,0,0,0-.229-.273l-.118-.133-.03-.033L7.3,51.207s-.008-.006,0-.007l.021-.009.084-.037c.112-.05.225-.1.338-.142a.854.854,0,0,0,.182-.038.793.793,0,0,0,.075-.029l.028-.013.024-.012c.063-.035.122-.08.187-.109a1.311,1.311,0,0,0,.189-.091.38.38,0,0,1,.2-.047,1.291,1.291,0,0,0,.371-.12c.117-.051.276.049.353-.1.107-.058.249.023.332-.085s.211-.053.31-.073l.287-.058c.205-.044.391-.07.551-.1s.3-.04.411-.049c.224-.019.345-.018.349.006a9.465,9.465,0,0,1-1.524.477c-.1.028-.179.119-.3.1a1.154,1.154,0,0,1-.319.105c-.085.115-.219.086-.338.12a1.475,1.475,0,0,0-.355.136.428.428,0,0,1-.182.078.549.549,0,0,0-.188.075.523.523,0,0,0-.2.048l-.024.012a.078.078,0,0,0-.019.011.115.115,0,0,0-.018.017.082.082,0,0,0-.02.04A.1.1,0,0,0,8,51.336a.063.063,0,0,0-.009.012l0,0,.005,0,.014.01a.24.24,0,0,1,.043.037c-.032.022-.006.06.027.085a.258.258,0,0,0,.054.032l.015.006.024.016.05.032c.129.089.209.23.338.327.109.117.251.2.365.32a1.054,1.054,0,0,1,.391.311,3.465,3.465,0,0,1,.419.3,4.213,4.213,0,0,1,.444.283c.161.073.269.25.469.264.167.071.318.179.492.243.082.042.165.084.25.123a1.351,1.351,0,0,0,.264.1.579.579,0,0,0,.25.14,1.312,1.312,0,0,0,.14.033c.048.009.1.012.144.019a2,2,0,0,1,.276.072c.045.014.089.032.134.046l.134.043c.185.037.363.092.544.129a4.369,4.369,0,0,0,.54.1c.184-.011.352.092.534.067a1.747,1.747,0,0,1,.525.039c.132,0,.262.051.392.045v.441a.522.522,0,0,0-.141.024c-.1,0-.2.017-.3.008a.394.394,0,0,1-.143-.033.3.3,0,0,1-.122-.091.723.723,0,0,1-.254-.11.86.86,0,0,0-.241-.121.418.418,0,0,0-.045-.054.446.446,0,0,0-.048-.046.82.82,0,0,0-.109-.069,1.3,1.3,0,0,1-.219-.133c-.062-.058-.114-.124-.171-.181a1.015,1.015,0,0,0-.184-.159.568.568,0,0,1-.163-.171l-.066-.1a.638.638,0,0,0-.07-.09c-.134-.09-.129-.276-.254-.362a3.851,3.851,0,0,1-.215-.358.2.2,0,0,1-.136-.153,1.861,1.861,0,0,0-.047-.2c-.046-.12-.183-.19-.157-.336-.129-.071-.111-.208-.132-.319s-.119-.186-.113-.3c-.1-.072-.041-.2-.094-.278.007-.1-.06-.172-.078-.255a.53.53,0,0,1-.063-.231c-.018-.073-.035-.14-.05-.2-.088-.381-.109-.6-.079-.6" transform="translate(-5.14 -35.3)"/>
      <path id="Path_897" data-name="Path 897" d="M34.333,54.167c0-.038.215-.045.564-.178.057-.025.119-.048.182-.081s.126-.077.2-.108c.045,0,.071-.04.1-.074s.055-.071.11-.068a.367.367,0,0,0,.115-.073c.017-.015.035-.031.052-.048l.05-.053a.959.959,0,0,1,.115-.094.314.314,0,0,0,.1-.116c.008-.067.063-.086.115-.113s.1-.054.1-.132a1.133,1.133,0,0,1,.1-.141c.036-.046.076-.09.114-.136a.29.29,0,0,0,.128-.135c.028-.057.049-.12.081-.175A.319.319,0,0,0,36.7,52.3a.7.7,0,0,0,.058-.2.3.3,0,0,0,.163-.145.4.4,0,0,0,.029-.225,1.315,1.315,0,0,0,.182-.4,3.688,3.688,0,0,1,.172-.42.628.628,0,0,1,.161-.444.764.764,0,0,1,.149-.466.566.566,0,0,0,.063-.242c0-.021.005-.042.009-.063l.006-.031,0-.018.008-.029a1.083,1.083,0,0,1,.079-.219l.032-.112.015-.057.008-.028c0-.009,0-.024.015-.017l.231.038.237.041.073.014.066.016A1.09,1.09,0,0,0,39,49.4a1.59,1.59,0,0,1,.546.127.87.87,0,0,1,.553.149,1.552,1.552,0,0,1,.275.1.972.972,0,0,0,.283.078,4.3,4.3,0,0,1,.559.2c.089.048.176.1.267.136a1.311,1.311,0,0,0,.139.052l.114.041c.04.014.081.027.125.04a2.677,2.677,0,0,1,.482.2l.053.028s0,0,0,.005l-.006.006-.012.012-.023.023-.089.091a2.3,2.3,0,0,0-.157.179,1.352,1.352,0,0,0-.186.166c-.026.028-.05.056-.074.086l-.035.044-.033.043a1.11,1.11,0,0,1-.191.216,2.058,2.058,0,0,1-.212.191.98.98,0,0,0-.2.2,2.647,2.647,0,0,1-.2.2,1.464,1.464,0,0,1-.226.159.293.293,0,0,1-.078.121.4.4,0,0,1-.116.073.824.824,0,0,0-.239.129.9.9,0,0,0-.225.14,1.749,1.749,0,0,1-.213.15.954.954,0,0,1-.223.128.644.644,0,0,0-.216.131,2.053,2.053,0,0,0-.211.132.7.7,0,0,1-.225.1c-.119.123-.3.1-.431.2a4.028,4.028,0,0,1-.421.172c-.171-.031-.279.089-.411.144-.067.022-.131.052-.194.079a.387.387,0,0,1-.2.038c-.065.017-.132.025-.2.039a.515.515,0,0,0-.184.059c-.12.044-.272-.066-.36.08-.112.044-.247-.045-.341.055s-.215.036-.317.044l-.292.028-.153.014c-.05,0-.1,0-.145.005l-.263.007c-.082,0-.157.005-.226,0l-.188-.011c-.225-.016-.344-.036-.344-.06s.147-.057.417-.089c.135-.012.3-.041.493-.068s.413-.069.658-.112c.1-.016.188-.1.3-.067a1.038,1.038,0,0,1,.325-.076c.093-.109.223-.072.343-.1.059-.017.12-.027.182-.04a.662.662,0,0,0,.178-.073.414.414,0,0,1,.184-.069.472.472,0,0,0,.192-.063A.614.614,0,0,0,38,53.248c.152-.006.26-.124.4-.18.17.014.282-.109.4-.2a1.08,1.08,0,0,1,.2-.112,1.4,1.4,0,0,0,.206-.118,1.538,1.538,0,0,0,.208-.122,2,2,0,0,1,.2-.135,1.325,1.325,0,0,1,.19-.162,1.065,1.065,0,0,1,.22-.123,1.49,1.49,0,0,1,.2-.16c.036-.023.07-.049.1-.075s.069-.052.1-.08a1.2,1.2,0,0,1,.2-.173,1.788,1.788,0,0,0,.2-.171,1.228,1.228,0,0,1,.215-.162.447.447,0,0,0,.173-.21c.06-.068.126-.13.193-.194l.019-.018.015-.017a.131.131,0,0,0,.023-.034l.04-.033.02-.018.009-.009-.007,0a.167.167,0,0,0-.076-.019.047.047,0,0,0,0-.028.067.067,0,0,0-.005-.012l0-.006a.02.02,0,0,0-.008-.006.736.736,0,0,0-.131-.057c-.091-.029-.188-.045-.283-.066a3.52,3.52,0,0,1-.539-.194c-.091-.025-.182-.053-.271-.082s-.178-.06-.267-.087c-.187-.026-.347-.14-.534-.149s-.344-.128-.529-.13a1.608,1.608,0,0,1-.521-.113.546.546,0,0,1-.064-.015l-.032-.009-.016,0-.008,0,0,0a.165.165,0,0,0-.03-.024.071.071,0,0,0-.036-.012.083.083,0,0,0,.014.054.051.051,0,0,0,.015.029l0,0s0,.009,0,.014l0,.033c0,.022-.005.045-.008.066a.347.347,0,0,1-.126.233c-.023.173-.158.306-.167.479-.135.127-.117.307-.181.456a1.6,1.6,0,0,0-.194.433c-.028.158-.151.269-.207.406a.416.416,0,0,1-.11.192.38.38,0,0,0-.109.187c-.042.059-.076.12-.111.18a1.38,1.38,0,0,1-.118.17.212.212,0,0,1-.08.19,1.464,1.464,0,0,0-.159.127.7.7,0,0,0-.1.163.225.225,0,0,1-.145.12c-.017.149-.155.186-.253.247a.627.627,0,0,0-.121.116.26.26,0,0,1-.133.093.148.148,0,0,1-.048.066.305.305,0,0,1-.07.036.379.379,0,0,0-.134.068.334.334,0,0,0-.128.061.74.74,0,0,1-.115.071.471.471,0,0,1-.23.092,2.159,2.159,0,0,1-.21.062,1.686,1.686,0,0,1-.46.044c-.105-.01-.158-.025-.158-.041" transform="translate(-24.201 -34.671)"/>
      <path id="Path_898" data-name="Path 898" d="M37.32,48.82c.016,0,.019.048.013.129a2.875,2.875,0,0,1-.054.35c-.01.05-.022.1-.035.162a.873.873,0,0,1-.045.183c-.061.049.032.154-.054.2a.551.551,0,0,0-.066.221c-.013.081-.084.144-.078.239.046.113-.151.13-.091.256a.942.942,0,0,1-.105.271c-.1.064-.084.184-.123.283a.31.31,0,0,0-.141.295.235.235,0,0,0-.144.114.325.325,0,0,0-.018.19c-.057.1-.156.182-.184.31l-.1.162a.871.871,0,0,1-.118.151.4.4,0,0,1-.245.31.363.363,0,0,1-.106.182.88.88,0,0,1-.177.119.476.476,0,0,0-.154.148.331.331,0,0,1-.173.132,2.318,2.318,0,0,1-.377.246,1.021,1.021,0,0,0-.431.187c-.036.018-.074.031-.112.046a.786.786,0,0,1-.117.037l-.03.007-.015,0-.026,0c-.034.005-.068.01-.1.013a1.746,1.746,0,0,1-.194-.005,1.152,1.152,0,0,1-.226.05c-.038.005-.076.009-.112.012h-.028s0,0,0,0v-.074a3.811,3.811,0,0,1,.033-.442c0-.033,0-.067,0-.1v-.037l0-.028c0-.038.008-.075.011-.113a.578.578,0,0,0-.013-.227,3.176,3.176,0,0,1,0-.459.992.992,0,0,0,0-.459c-.051-.152.022-.3,0-.452.074-.149-.024-.3,0-.444a1.893,1.893,0,0,0,0-.434,1.324,1.324,0,0,1,0-.425c-.115-.14.029-.278,0-.415.049-.136-.007-.271.006-.4-.022-.132.053-.263.006-.391a.615.615,0,0,0,0-.1c0-.056,0-.112-.008-.168a1.234,1.234,0,0,1,.017-.321l-.009-.05v-.006s0,0,0,0h.009l.018,0a.6.6,0,0,1,.08,0c.055,0,.115.01.171.018s.11.017.161.021a.379.379,0,0,0,.131,0,3.314,3.314,0,0,1,.354.016c.112.093.228.017.338.019.109.017.22-.037.321.03a.74.74,0,0,0,.3.03c.1-.007.183.14.285.03.095-.011.174.111.266.04s.168.027.248.038l.226.037c.163.024.307.06.431.088s.23.056.316.08c.171.048.26.085.256.108s-.123.035-.339.027-.526-.038-.922-.052c-.079,0-.167.05-.247-.014-.084-.009-.176.03-.264-.016-.1.074-.186,0-.283-.008a1.051,1.051,0,0,0-.3-.009c-.105.042-.207-.037-.316-.01a.381.381,0,0,0-.333,0c-.112-.053-.229.006-.348,0-.038-.019-.037-.031-.052-.036a.047.047,0,0,0-.035,0,.035.035,0,0,0-.02.019c0,.009-.007.013,0,.031s.011.033.006.046a.108.108,0,0,0-.005.022.529.529,0,0,0,.006.1c-.015.128.019.259.006.391a.693.693,0,0,1,.006.4,2.316,2.316,0,0,1,0,.415,2.616,2.616,0,0,1,0,.425c.017.143-.081.288,0,.434.011.147-.013.295,0,.444a2.012,2.012,0,0,0,0,.452.626.626,0,0,0,0,.459,1.972,1.972,0,0,1,0,.459c0,.076.005.151.005.227l0,.113v.046l0,.007c.012.006,0,.013,0,.032s0,.014,0,.014a.028.028,0,0,0,.022-.012c.009-.01.012-.012.015-.012l.007,0h.037a.423.423,0,0,0,.095-.011.236.236,0,0,0,.089-.035,1.086,1.086,0,0,1,.349-.143c.054-.033.12-.043.179-.071a.408.408,0,0,0,.082-.048.221.221,0,0,0,.06-.08c.094-.088.121-.238.291-.235a.476.476,0,0,1,.14-.122.3.3,0,0,0,.121-.138c.146-.036.161-.183.235-.275.042-.043.086-.084.125-.128a.457.457,0,0,0,.086-.153c.029-.119.143-.179.188-.283a.253.253,0,0,1,.089-.139.2.2,0,0,0,.08-.14c.06-.089.092-.189.152-.273-.057-.14.086-.18.137-.264s.006-.2.122-.252c-.046-.118.058-.169.11-.24s.027-.168.1-.224c-.031-.1.084-.133.088-.208.062-.055.047-.133.078-.19a.323.323,0,0,1,.069-.172q.032-.081.061-.151c.057-.141.1-.25.138-.322s.062-.109.078-.1" transform="translate(-23.506 -34.028)"/>
      <path id="Path_899" data-name="Path 899" d="M21.812,48.851c-.006-.032.154-.086.453-.159l.161-.038a.938.938,0,0,1,.184-.041c.07.032.125-.094.205-.037a.545.545,0,0,0,.227-.037c.078-.023.165.01.247-.038.078-.091.183.073.266-.04a.928.928,0,0,1,.286-.03c.1.057.2-.012.3-.03a.294.294,0,0,0,.321-.03.231.231,0,0,0,.338-.019,1.011,1.011,0,0,0,.354-.016l.134-.009.161-.01c.054,0,.108-.005.162-.005h.108s0,.006,0,.009l0,.043a.787.787,0,0,1,.052.31,1.3,1.3,0,0,1-.011.179.526.526,0,0,1-.034.1.472.472,0,0,1,.006.391c-.042.133.066.267.006.4,0,.137.017.275,0,.415a.616.616,0,0,0,0,.425,1.09,1.09,0,0,1,0,.435.562.562,0,0,1,0,.444,2.179,2.179,0,0,0,0,.451,3.137,3.137,0,0,1,0,.459,1.013,1.013,0,0,0,0,.459.5.5,0,0,1,.011.227c0,.038-.01.075-.013.113v.064c0,.034,0,.067,0,.1a1,1,0,0,0-.028.385l0,.053v.02s0,.005,0,0H25.7l-.091,0a.947.947,0,0,1-.2-.011c-.065,0-.131-.009-.2-.017-.032-.006-.065-.014-.1-.02l-.024-.005-.016,0-.029-.009c-.04-.009-.077-.023-.116-.032a.86.86,0,0,0-.12-.018,1.024,1.024,0,0,1-.432-.186.235.235,0,0,1-.213-.089c-.027-.029-.052-.059-.078-.086a.293.293,0,0,0-.086-.071c-.089-.125-.231-.175-.327-.28a.657.657,0,0,1-.14-.156.446.446,0,0,0-.143-.145c-.081-.107-.2-.18-.245-.31a.288.288,0,0,1-.115-.153.348.348,0,0,0-.1-.16,2.494,2.494,0,0,1-.185-.311.224.224,0,0,0-.053-.171,1.534,1.534,0,0,1-.109-.133c-.044-.1-.149-.172-.141-.295-.042-.1-.047-.208-.122-.283-.053-.087.04-.232-.106-.271-.055-.079.014-.2-.091-.256s-.054-.162-.078-.239-.046-.15-.066-.221a2.521,2.521,0,0,1-.174-1.027c.026-.007.08.1.163.3s.2.49.35.851c.03.073.119.125.1.225.03.079.109.141.109.239.112.05.087.163.122.253a.918.918,0,0,0,.137.264c.087.07.071.195.152.273A.308.308,0,0,0,23,51.4a.435.435,0,0,0,.119.122c.014.122.127.186.188.283a.244.244,0,0,0,.069.165,1.4,1.4,0,0,0,.141.117c.094.077.139.2.235.275a.828.828,0,0,0,.126.133,1.057,1.057,0,0,1,.135.127.719.719,0,0,1,.292.235c.114.056.21.136.32.2.125.029.225.113.349.143a.423.423,0,0,1,.09.03c.029.013.058.03.089.041l.023.008.011,0,0,0a.021.021,0,0,0,.013,0c.009,0,.017-.011.013-.033a.016.016,0,0,1,.012,0s.013,0,.012,0a.033.033,0,0,0,0-.03.027.027,0,0,0,0-.006s0,0,0,0V53.2l0-.027c0-.038,0-.075,0-.113a1.334,1.334,0,0,0-.014-.227.625.625,0,0,0,0-.459,1.943,1.943,0,0,1,0-.459c-.009-.152,0-.3,0-.451-.025-.149.036-.3,0-.444s.038-.292,0-.435a.917.917,0,0,1,0-.425c0-.14.076-.279,0-.415-.016-.136-.111-.271.006-.4-.029-.132.056-.263.006-.391a.229.229,0,0,0,.037-.1.042.042,0,0,0,0-.033c-.009-.019-.029-.021-.027-.036s0-.014-.005-.02a.058.058,0,0,0-.021-.01.067.067,0,0,0-.029,0,.489.489,0,0,1-.049.018c-.117.043-.235-.017-.348,0-.111.052-.227-.062-.333,0-.109,0-.213.021-.317.01-.1.121-.2.012-.3.008s-.185.086-.284.008c-.083.1-.177.031-.265.016s-.162.054-.246.014c-.071.069-.157-.018-.227.011-.077-.032-.141.011-.206.011a.317.317,0,0,1-.185.014l-.163.01c-.3.016-.474.01-.48-.022" transform="translate(-15.366 -34.055)"/>
      <path id="Path_900" data-name="Path 900" d="M58.326,27.349c.012.01-.032.082-.13.212-.049.065-.117.139-.2.228-.04.044-.087.088-.135.137L57.789,28l-.085.076-.122.106c-.043.036-.09.071-.136.107a2.237,2.237,0,0,1-.31.223.418.418,0,0,0-.172.117.554.554,0,0,1-.086.069.24.24,0,0,1-.108.032,1.806,1.806,0,0,0-.209.1c-.07.034-.14.074-.212.113a1.776,1.776,0,0,1-.236.085,1.218,1.218,0,0,0-.243.095.373.373,0,0,1-.263.069.425.425,0,0,0-.272.073,1.4,1.4,0,0,1-.14.039q-.072.014-.145.024c-.049.007-.1.014-.148.019l-.151.009a.659.659,0,0,0-.155-.014,1.054,1.054,0,0,0-.155.009c-.052.006-.1.015-.158.021s-.107.01-.161.011a1.458,1.458,0,0,0-.663-.05.849.849,0,0,0-.325-.132,1.215,1.215,0,0,0-.36-.009q-.086-.024-.171-.055l-.17-.068L52.261,29a1.358,1.358,0,0,0-.18-.052l-.347-.152a3.234,3.234,0,0,1-.333-.2,1.379,1.379,0,0,1-.358-.175,1.612,1.612,0,0,1-.291-.28,1.279,1.279,0,0,1-.336-.238,3.148,3.148,0,0,1-.261-.325,1.812,1.812,0,0,0-.276-.317,1.237,1.237,0,0,1-.244-.351c-.037-.062-.075-.122-.114-.183s-.08-.121-.113-.185-.07-.128-.1-.192c-.017-.033-.035-.065-.05-.1l-.041-.1c-.044-.142-.091-.282-.132-.424A2.079,2.079,0,0,0,49,25.524a2.17,2.17,0,0,0-.092-.207c-.024-.072-.05-.143-.071-.216s-.037-.148-.052-.223a1.824,1.824,0,0,1-.044-.459,1.708,1.708,0,0,1-.017-.932c.009-.316.107-.621.145-.939.023-.076.038-.156.059-.233L49,22.082a2,2,0,0,1,.181-.45c.034-.074.079-.142.119-.212s.08-.14.117-.212.082-.137.12-.208.069-.145.107-.216a1.615,1.615,0,0,1,.123-.207c.023-.033.045-.066.071-.1l.08-.089c.054-.058.108-.117.161-.176s.11-.113.159-.174a1.268,1.268,0,0,0,.182-.149c.058-.051.112-.107.166-.164a1.78,1.78,0,0,1,.346-.308,1.049,1.049,0,0,1,.091-.071l.1-.062.2-.12a3.254,3.254,0,0,0,.387-.238c.133-.071.264-.146.4-.206.069-.028.139-.054.209-.078a1.38,1.38,0,0,1,.214-.06.661.661,0,0,1,.2-.107.92.92,0,0,1,.106-.031.854.854,0,0,1,.11-.015c.073-.007.147-.012.219-.019.036,0,.072-.009.107-.015a1.062,1.062,0,0,0,.106-.019c.288,0,.562-.081.843-.071.28-.024.548.063.818.055l.4.056a1.452,1.452,0,0,1,.378.111.98.98,0,0,1,.369.114c.058.027.113.06.171.085a1.312,1.312,0,0,0,.176.065l.17.076.164.084.081.042.078.047c.051.031.1.063.153.1a.682.682,0,0,0,.128.129c.023.018.047.035.071.051s.048.032.073.048c.05.03.1.058.152.086s.1.061.143.095c.088.073.178.14.267.207a.876.876,0,0,1,.22.245q.108.122.2.248c.032.042.064.082.1.121a1.146,1.146,0,0,0,.107.111.924.924,0,0,1,.142.267.4.4,0,0,0,.188.223.873.873,0,0,1,.119.256.476.476,0,0,0,.139.233.459.459,0,0,1,.13.228c.024.083.032.17.062.246s.05.155.074.229.042.149.06.222a4.862,4.862,0,0,1,.142,1.543q-.012.134-.023.235c-.01.068-.021.124-.031.169-.019.09-.035.135-.047.134s-.022-.06-.025-.172c0-.056,0-.125-.006-.207,0-.04,0-.085-.006-.132s0-.1-.008-.151-.009-.109-.014-.168-.014-.121-.021-.185-.015-.132-.028-.2-.022-.143-.039-.217a5.25,5.25,0,0,0-.3-1,1.823,1.823,0,0,0-.115-.209.623.623,0,0,1-.089-.23,1.988,1.988,0,0,0-.135-.217,1.09,1.09,0,0,1-.127-.231.6.6,0,0,1-.182-.206,2.185,2.185,0,0,0-.145-.241c-.03-.037-.059-.076-.089-.114l-.092-.113a1.22,1.22,0,0,0-.214-.207,1.147,1.147,0,0,1-.228-.2,1.05,1.05,0,0,0-.239-.2,1.108,1.108,0,0,0-.109-.12,1.269,1.269,0,0,0-.129-.1l-.069-.044c-.024-.013-.049-.025-.074-.037-.05-.024-.1-.045-.154-.065a.808.808,0,0,0-.135-.1c-.024-.015-.048-.028-.073-.041l-.078-.034-.158-.064c-.054-.019-.107-.04-.16-.064a.581.581,0,0,0-.147-.1.911.911,0,0,0-.164-.064,2.687,2.687,0,0,0-.352-.065c-.118-.022-.235-.048-.352-.08-.059-.014-.119-.026-.179-.038-.03-.005-.06-.012-.091-.015l-.092-.007a4.773,4.773,0,0,0-.75-.037,5.206,5.206,0,0,1-.769.075l-.1.023-.1.026q-.1.024-.192.044c-.032.007-.065.012-.1.021l-.1.027-.192.056c-.063.025-.122.056-.185.081s-.125.049-.189.072c-.126.05-.25.107-.372.168a3.655,3.655,0,0,1-.37.188,1.556,1.556,0,0,0-.177.112.881.881,0,0,0-.081.067.5.5,0,0,0-.069.083c-.105.092-.223.171-.325.269l-.158.141c-.051.05-.1.1-.144.158s-.1.1-.151.153l-.14.164-.069.084c-.022.029-.041.06-.061.089-.04.06-.078.122-.115.184a.8.8,0,0,0-.149.165,1.588,1.588,0,0,0-.116.188c-.03.067-.057.137-.083.206s-.053.138-.071.211c-.043.142-.1.274-.145.414-.023.069-.047.138-.072.206s-.04.139-.062.209a5.958,5.958,0,0,0-.135.85c0,.071,0,.143,0,.213s-.011.141-.011.212,0,.142,0,.212c0,.035,0,.071.006.105s.012.07.02.1c.034.137.036.276.057.413.008.069.017.138.028.206a1.15,1.15,0,0,0,.061.2c.025.064.045.129.069.193s.052.125.074.189c.042.128.092.252.126.384.013.031.025.062.037.094l.039.092c.025.062.051.124.076.185a1.015,1.015,0,0,0,.224.327c.078.105.18.191.262.289a.751.751,0,0,1,.2.328,2.012,2.012,0,0,1,.256.279,1.175,1.175,0,0,0,.281.245.836.836,0,0,0,.271.252c.107.06.216.113.317.177s.2.136.3.2a1.747,1.747,0,0,0,.321.137,1,1,0,0,1,.164.052l.078.034.078.033.154.068a1.336,1.336,0,0,0,.159.048,1.1,1.1,0,0,1,.316.087.733.733,0,0,0,.314.061c.208.04.415.044.615.065a.378.378,0,0,1,.15-.044.609.609,0,0,1,.147,0c.049.007.1.017.146.026a.8.8,0,0,0,.145.01.7.7,0,0,0,.141-.015c.046-.01.091-.025.136-.036a.679.679,0,0,1,.135-.023.4.4,0,0,1,.139.011.517.517,0,0,1,.25-.091c.086-.012.175-.005.258-.021a.914.914,0,0,0,.233-.078.626.626,0,0,1,.228-.07.4.4,0,0,1,.205-.1.588.588,0,0,0,.2-.076.491.491,0,0,0,.1-.032.859.859,0,0,0,.09-.051c.057-.037.113-.073.17-.1a1.6,1.6,0,0,1,.312-.191l.139-.092.126-.092.089-.064.081-.065c.052-.042.1-.08.146-.117.087-.077.164-.138.223-.192.118-.107.186-.158.2-.148" transform="translate(-34.308 -12.903)"/>
      <path id="Path_901" data-name="Path 901" d="M83.618,44.108l.084.037.013.006.012.005.012.005.012.005.011.005.011,0,.01,0c-.058-.025,0,0,.01,0-.07-.031-.039-.017.009,0l.008,0,.008,0,.007,0c.064.028.061.026.007,0,.068.03.041.018.006,0l.005,0,0,0c-.028-.012-.06-.026,0,0,.017.007.04.017,0,0,.073.032.041.018,0,0,.012.005-.04-.017,0,0-.012,0,.032.014,0,0s-.043-.019,0,0-.02-.008,0,0c-.069-.03.022.01,0,0,.007,0-.04-.017,0,0h0c.105.046-.027-.012,0,0l-.005,0c.02.009-.049-.021-.006,0-.009,0,.034.015-.007,0,.053.023-.044-.019-.007,0l-.008,0-.008,0c-.009,0,.047.021-.009,0l-.01,0c.012.005-.12-.053-.01,0,.019.009-.084-.037-.011,0s-.008,0-.011-.005l-.012-.005-.121-.053-.132-.058-.011,0s-.044-.019-.011-.005c-.076-.033-.014-.006-.01,0l-.01,0-.009,0-.008,0-.008,0c.07.031.021.009-.007,0s.011,0-.007,0l-.006,0-.005,0,0,0c-.028-.012,0,0,0,0h0c-.01,0,.012.006,0,0,.01,0,.02.009,0,0,.076.034.03.013,0,0s-.011,0,0,0c-.008,0,0,0,0,0-.022-.01.034.014,0,0s.035.015,0,0-.035-.015,0,0c0,0,.07.031,0,0l.005,0,.006,0c.078.034,0,0,.007,0s.041.018.007,0,.021.009.008,0c-.045-.02.058.026.008,0l.009,0c-.105-.046,0,0,.01,0s-.07-.031.01,0l.011,0,.011.005.012,0,.012.006.013.005.013.006.084.036" transform="translate(-58.751 -31.008)"/>
      <path id="Path_902" data-name="Path 902" d="M85.007,39.114l.091.01h.014l.013,0h.013l.013,0h.116c-.012,0,.035,0,0,0s-.047-.005,0,0h-.129l-.131-.014-.144-.016h-.116c.083.009.032,0,0,0s-.012,0,0,0H84.9l.014,0,.091.01" transform="translate(-59.728 -27.55)"/>
      <path id="Path_903" data-name="Path 903" d="M65.595,69.971c-.032,0-.063-.189-.091-.533,0-.057-.009-.12-.014-.185a1.124,1.124,0,0,1-.013-.21c.042-.074-.079-.153-.013-.235a.7.7,0,0,0-.013-.258c-.015-.09.027-.183-.012-.281-.083-.1.091-.2-.012-.3a1.237,1.237,0,0,1-.011-.323c.063-.111,0-.225-.01-.343a.364.364,0,0,0-.01-.361.276.276,0,0,0-.009-.38,1.247,1.247,0,0,0-.009-.4,2.267,2.267,0,0,1-.008-.413.5.5,0,0,1-.007-.428.6.6,0,0,1-.006-.443c.042-.15-.066-.3-.006-.456,0-.154-.017-.311-.005-.469l.009-.047,0-.024c0-.006,0,0,0-.008a.135.135,0,0,0,.014-.028c.006-.02.007-.044,0-.05a.16.16,0,0,0-.05.032.153.153,0,0,0-.023.014l-.008.006s-.011,0-.021,0h-.031a.869.869,0,0,1-.247-.021.709.709,0,0,1-.5,0,2.762,2.762,0,0,0-.511,0,1,1,0,0,0-.129,0l-.065,0H63.76l0,0c-.011.006-.01.009-.039-.008-.012,0-.024.014-.027.034V63.9c0,.022,0,.043,0,.064a.73.73,0,0,0,.023.129c.051.172-.022.342,0,.511-.075.169.024.337,0,.5a2.47,2.47,0,0,0,0,.492,1.672,1.672,0,0,1,0,.481c.115.158-.03.315,0,.469a1.958,1.958,0,0,0-.006.457c.022.15-.053.3-.006.443a1.764,1.764,0,0,1-.007.429c.057.14-.048.278-.008.413,0,.135,0,.268-.009.4-.089.13-.015.256-.009.379-.01.124.05.244-.01.362,0,.058-.015.116-.022.174,0,.014,0,.028,0,.043v.021s0,.007,0,.01a.055.055,0,0,0,.015.034c0,.012-.006.03-.019.054a.449.449,0,0,0-.036.083c.016.009.054,0,.1-.045.028-.01.039.012.068.028l.01.006.018,0a.143.143,0,0,0,.037,0,.116.116,0,0,0,.073-.029c.1-.074.19.009.28.012l.258.013a3.84,3.84,0,0,1,1.164.133,5.205,5.205,0,0,1-1.422.145c-.09,0-.184.067-.28.012a.482.482,0,0,0-.073.007l-.037.006-.02,0-.03,0a.766.766,0,0,1-.242-.007.632.632,0,0,1-.24.041c0-.114.027-.241.03-.347,0-.045,0-.09,0-.135v-.055l0-.043a.553.553,0,0,0-.016-.174c-.048-.118.024-.238-.01-.362a.508.508,0,0,0-.009-.379c.05-.129-.011-.262-.009-.4a.55.55,0,0,0-.008-.413c-.028-.141.011-.284-.007-.429.015-.145-.02-.293-.007-.443a.891.891,0,0,1-.005-.457,2.96,2.96,0,0,1-.005-.469,3.482,3.482,0,0,1,0-.481c-.016-.162.081-.326,0-.492-.011-.165.014-.333,0-.5a2.592,2.592,0,0,0,0-.511.423.423,0,0,0,.04-.129.469.469,0,0,0,.006-.064v-.039l0-.056c-.007-.15-.027-.315-.044-.5.153-.012.323-.015.489-.014h.1l.065,0,.129.009c.172-.009.342,0,.511,0,.169-.024.336.036.5,0a.748.748,0,0,1,.247,0l.031,0,.04,0,.112,0a1.742,1.742,0,0,0,.229-.009c.07-.005.141-.01.213-.014.007.113.01.233.008.355,0,.061,0,.121-.007.181,0,.014,0,.032,0,.041l0,.024c0,.016-.007.031-.011.047,0,.158-.076.315-.005.469.017.154.111.306-.005.456.029.151-.056.3-.007.443-.085.145,0,.288-.007.428a1.068,1.068,0,0,0-.008.413c.04.135-.022.267-.009.4.049.129-.064.256-.009.38-.011.123.007.244-.01.361.115.118,0,.232-.011.343s.076.219-.011.323c.087.1.012.205-.012.3s.037.191-.012.281c.061.089-.034.176-.013.258-.04.082,0,.161-.013.235a.408.408,0,0,1-.013.21c0,.066-.01.128-.014.186-.029.345-.06.533-.092.533" transform="translate(-44.538 -44.619)"/>
      <path id="Path_904" data-name="Path 904" d="M67.017,57.884c-.032,0-.063-.03-.091-.084,0-.009-.009-.019-.014-.029s-.018-.021-.014-.033c.042-.011-.079-.024-.013-.036.019-.013,0-.027-.013-.04s.027-.029-.012-.044c-.083-.015.091-.032-.012-.048-.022-.016-.016-.033-.011-.05.063-.017,0-.035-.011-.054.076-.018.043-.037-.01-.056.1-.019.088-.039-.009-.06,0-.02.037-.041-.008-.062-.007-.021-.027-.042-.008-.064-.07-.022-.067-.045-.007-.067-.075-.023-.045-.046-.007-.069s-.066-.048-.005-.072c0-.024-.017-.048-.005-.073.031-.025.065-.05,0-.075-.019-.025-.044-.051,0-.077-.08-.026-.044-.052,0-.078-.013-.026.043-.053,0-.08.012-.027-.035-.054,0-.081s.047-.054,0-.081.021-.053,0-.08c.075-.026-.024-.052,0-.078-.007-.026.043-.051,0-.077-.014-.025-.028-.05,0-.075-.115-.024.03-.049.005-.073.048-.024-.007-.048.005-.071-.021-.023.053-.046.007-.069.01-.023-.037-.045.007-.067-.057-.022.048-.044.008-.065a.112.112,0,0,1,.008-.062c.09-.02.015-.04.009-.06.01-.019-.051-.038.01-.056.008-.018.047-.036.011-.053-.013-.018.13-.034.011-.051-.022-.016.091-.032.012-.047s.009-.03.012-.044l.013-.04c.039-.116.084-.182.132-.182s.1.081.145.222c0,.014.067.029.012.044,0,.015.048.031.012.047.084.017.015.033.011.051s-.022.035.011.053c.048.018-.024.037.01.056-.051.019-.038.039.009.06-.05.02.01.041.009.062-.077.021-.023.043.008.065s-.012.044.007.067c-.015.023.019.046.006.069.036.024.05.047.006.071.025.024.005.049.005.073.03.025,0,.05,0,.075s-.081.051,0,.077c.011.026-.013.052,0,.078-.011.027-.022.053,0,.08-.084.027-.032.054,0,.081s.012.054,0,.081a.158.158,0,0,1,0,.08c.025.026-.036.053,0,.078s-.038.052,0,.077.037.05,0,.075c0,.025-.076.049-.005.073.017.024.111.048-.006.072.03.023-.056.046-.006.069-.085.023,0,.045-.007.067s-.045.043-.008.064-.022.042-.009.062c.049.02-.064.04-.009.06-.011.019.007.038-.01.056.115.018,0,.036-.011.054s.076.034-.011.05c.087.016.012.032-.012.048s.037.029-.012.044c.061.014-.034.027-.013.04-.04.013,0,.025-.013.036.014.012.009.023-.014.033,0,.01-.009.02-.014.029-.028.054-.06.084-.091.084" transform="translate(-47.026 -38.925)"/>
      <path id="Path_905" data-name="Path 905" d="M61.639,30.626c.037,0,.051.166.155.433.018.044.042.089.064.139a1.035,1.035,0,0,1,.086.148c0,.036.031.053.061.071s.06.035.053.08a.21.21,0,0,0,.057.084c.026.023.056.044.085.066a.447.447,0,0,1,.078.077.156.156,0,0,0,.1.06c.055-.01.071.031.1.068s.049.078.111.049a.554.554,0,0,1,.118.038c.039.014.078.031.117.048a.157.157,0,0,0,.122.054c.046,0,.094-.013.139-.011a.165.165,0,0,0,.136.052.324.324,0,0,0,.141-.058.18.18,0,0,0,.078.048.158.158,0,0,0,.077,0,.216.216,0,0,0,.127-.113c.047-.015.1-.026.145-.038a.28.28,0,0,0,.128-.084c.085-.058.158-.13.247-.187a.37.37,0,0,1,.031-.081.264.264,0,0,1,.042-.066.416.416,0,0,1,.134-.1.39.39,0,0,1,.011-.089.341.341,0,0,1,.034-.073.394.394,0,0,1,.047-.067l.029-.032.027-.034a.176.176,0,0,0,.037-.076.565.565,0,0,0,0-.086.267.267,0,0,1,.035-.166.458.458,0,0,0,.006-.086.83.83,0,0,0,0-.086c-.008-.055-.008-.113-.015-.166a.521.521,0,0,0,.005-.085.622.622,0,0,0-.012-.084.242.242,0,0,0-.039-.074.163.163,0,0,0-.029-.031.264.264,0,0,0-.04-.024,2.044,2.044,0,0,1-.234-.255.307.307,0,0,1-.051-.011.284.284,0,0,1-.048-.016.413.413,0,0,1-.082-.05,1.329,1.329,0,0,1-.148-.145c-.125-.059-.226-.177-.379-.206a2.784,2.784,0,0,1-.4-.214.927.927,0,0,0-.4-.21c-.158-.025-.258-.161-.4-.224a.425.425,0,0,0-.188-.143.6.6,0,0,1-.2-.136.516.516,0,0,1-.089-.086c-.027-.033-.055-.064-.079-.1s-.049-.07-.076-.1a.94.94,0,0,0-.083-.1.709.709,0,0,1-.069-.109.614.614,0,0,1-.056-.117c-.014-.04-.027-.081-.038-.122a.933.933,0,0,1-.01-.125.219.219,0,0,1-.043-.055.238.238,0,0,1-.019-.059.4.4,0,0,1,0-.122c.009-.041.022-.081.03-.121a.544.544,0,0,0,.012-.117.5.5,0,0,0,.033-.113c.006-.038.015-.076.02-.114a1.067,1.067,0,0,1,.019-.113.668.668,0,0,1,.037-.108.3.3,0,0,1,.043-.1c.019-.032.04-.064.061-.094a.925.925,0,0,0,.066-.09.6.6,0,0,0,.047-.1c.047-.055.083-.119.13-.174a.59.59,0,0,1,.072-.078.405.405,0,0,1,.091-.057.288.288,0,0,1,.161-.128.478.478,0,0,0,.178-.1c.059-.029.118-.059.178-.084a1.283,1.283,0,0,1,.185-.055.273.273,0,0,0,.191,0c.03-.009.058-.02.087-.031a.314.314,0,0,1,.089-.023c.06,0,.119-.017.179-.02a.263.263,0,0,1,.173.035c.056.013.11.031.162.048a.377.377,0,0,0,.161.03.34.34,0,0,1,.132.1.121.121,0,0,0,.152.033c.051.011.08.06.113.1a.144.144,0,0,0,.125.067.131.131,0,0,1,.121.069.917.917,0,0,0,.072.115l.079.1c.026.031.046.066.068.1l.035.054c.011.018.02.037.03.055.019.037.038.071.055.106a1.659,1.659,0,0,1,.074.2l.025.093c.007.03.01.06.015.087l.012.079c0,.024,0,.049,0,.072,0,.046,0,.085,0,.12s-.008.063-.013.086c-.009.046-.02.069-.032.069s-.028-.029-.043-.081c-.009-.026-.014-.059-.026-.1s-.025-.081-.039-.13-.037-.1-.061-.156a1.707,1.707,0,0,0-.091-.176,1.535,1.535,0,0,0-.3-.373.432.432,0,0,0-.1-.053.144.144,0,0,1-.076-.083A.356.356,0,0,0,64,26.23a.23.23,0,0,1-.1-.066.127.127,0,0,1-.126-.017,1.166,1.166,0,0,0-.108-.068,1.137,1.137,0,0,1-.125-.038.315.315,0,0,0-.134-.005.219.219,0,0,1-.137,0,.23.23,0,0,0-.14,0,.175.175,0,0,0-.074-.019.279.279,0,0,0-.073.006.325.325,0,0,0-.134.074.214.214,0,0,0-.146.036.994.994,0,0,1-.129.084.184.184,0,0,0-.151.051.632.632,0,0,0-.1.133.326.326,0,0,1-.052.06c-.019.018-.037.037-.057.055a.406.406,0,0,0-.1.123.252.252,0,0,0-.048.065c-.013.024-.025.048-.037.072s-.018.051-.029.076l-.035.074a.632.632,0,0,1-.006.083c0,.027,0,.055-.009.081s-.015.052-.021.078a.359.359,0,0,1-.032.079c0,.028.006.056.007.084a.79.79,0,0,1,0,.084c0,.028,0,.056,0,.085l0,.043c0,.014,0,.027.008.041a.342.342,0,0,1,.029.078.549.549,0,0,1,.025.077A.387.387,0,0,0,62,27.82a.243.243,0,0,0,.038.072.292.292,0,0,1,.041.073c.014.025.025.052.039.079a.25.25,0,0,0,.057.069.157.157,0,0,0,.091.037c.048.037.1.076.149.117a.956.956,0,0,0,.172.106,1.453,1.453,0,0,0,.377.207.628.628,0,0,0,.4.214,1.99,1.99,0,0,1,.4.21,3.255,3.255,0,0,1,.4.222c.148.057.247.2.393.274a.373.373,0,0,1,.1.075,1.226,1.226,0,0,1,.081.1,1.972,1.972,0,0,0,.154.209l.042.051c.013.017.024.037.035.056a.773.773,0,0,1,.06.119.922.922,0,0,1,.035.127.515.515,0,0,1,.005.13.89.89,0,0,1-.006.245.817.817,0,0,0-.009.116.46.46,0,0,0,.02.118c0,.077.015.16,0,.238a.332.332,0,0,1-.03.114.26.26,0,0,1-.089.091.356.356,0,0,1-.014.055.352.352,0,0,1-.025.05c-.019.032-.041.063-.062.093s-.046.058-.065.089a.447.447,0,0,0-.045.1.381.381,0,0,0-.16.146c-.02.029-.039.06-.058.09a.49.49,0,0,1-.071.078,2.437,2.437,0,0,0-.338.232.406.406,0,0,1-.176.092,1.1,1.1,0,0,0-.189.051.272.272,0,0,1-.186.037.6.6,0,0,0-.094,0,.245.245,0,0,0-.089.025c-.061,0-.12.005-.18,0a.739.739,0,0,1-.174-.019.154.154,0,0,1-.176.014,1.213,1.213,0,0,0-.148-.092.5.5,0,0,0-.158-.036.16.16,0,0,1-.127-.095.146.146,0,0,1-.147-.044.95.95,0,0,1-.092-.121.494.494,0,0,0-.108-.084.179.179,0,0,1-.086-.1.128.128,0,0,1-.091-.088c-.018-.039-.024-.083-.057-.107-.016-.084-.081-.127-.109-.193a.323.323,0,0,1-.073-.183c-.016-.06-.034-.114-.044-.166a1.347,1.347,0,0,1-.025-.21.776.776,0,0,1,0-.153c.011-.082.024-.124.041-.123" transform="translate(-43.253 -18.06)"/>
      <path id="Path_906" data-name="Path 906" d="M67.017,31.986c-.032,0-.063-.082-.091-.233,0-.025-.009-.052-.014-.081a.223.223,0,0,1-.014-.092c.042-.032-.079-.066-.013-.1.019-.036,0-.074-.013-.113s.027-.08-.012-.122c-.083-.043.091-.087-.012-.132a.245.245,0,0,1-.011-.141c.063-.048,0-.1-.011-.15.076-.051.043-.1-.01-.158.1-.054.088-.109-.009-.166,0-.056.037-.114-.008-.173a.436.436,0,0,1-.008-.181.115.115,0,0,1-.007-.187c-.075-.064-.045-.128-.007-.194s-.066-.132-.005-.2a1.813,1.813,0,0,1-.005-.2c.031-.07.065-.14,0-.211a.272.272,0,0,1,0-.215c-.08-.072-.044-.146,0-.22-.013-.074.043-.148,0-.224.012-.075-.035-.151,0-.227a.258.258,0,0,0,0-.227c-.051-.075.021-.15,0-.224.075-.074-.024-.147,0-.22-.007-.073.043-.144,0-.215a.329.329,0,0,1,0-.21c-.115-.069.03-.138.005-.205.048-.067-.007-.135.005-.2-.021-.066.053-.13.007-.194.01-.064-.037-.126.007-.188-.057-.061.048-.122.008-.181a.847.847,0,0,1,.008-.174c.09-.057.015-.112.009-.166.01-.054-.051-.107.01-.158.008-.051.047-.1.011-.15-.013-.048.13-.1.011-.142-.022-.045.091-.089.012-.132s.009-.084.012-.123.009-.077.013-.113c.039-.323.084-.509.132-.509s.1.229.145.622c0,.04.067.081.012.123,0,.042.048.086.012.132.084.046.015.093.011.142s-.022.1.011.15c.048.051-.024.1.01.158-.051.054-.038.109.009.166-.05.057.01.114.009.174-.077.059-.023.12.008.181s-.012.124.007.188c-.015.063.019.128.006.194a.181.181,0,0,1,.006.2.563.563,0,0,1,.005.205c.03.069,0,.14,0,.21s-.081.143,0,.215c.011.072-.013.145,0,.22a.494.494,0,0,0,0,.224c-.084.075-.032.151,0,.227a.485.485,0,0,1,0,.227,1.231,1.231,0,0,1,0,.224c.025.074-.036.147,0,.22s-.038.144,0,.215a.236.236,0,0,1,0,.211c0,.069-.076.138-.005.2.017.068.111.135-.006.2.03.066-.056.13-.006.194-.085.063,0,.126-.007.187s-.045.122-.008.181-.022.117-.009.173c.049.057-.064.112-.009.166-.011.055.007.107-.01.158.115.051,0,.1-.011.15s.076.1-.011.141c.087.045.012.09-.012.132s.037.084-.012.122c.061.039-.034.077-.013.113-.04.036,0,.07-.013.1a.086.086,0,0,1-.014.092c0,.029-.009.056-.014.081-.028.151-.06.233-.091.233" transform="translate(-47.026 -17.289)"/>
    </g>
  </g>
</svg>
