<svg xmlns="http://www.w3.org/2000/svg" xmlns:xlink="http://www.w3.org/1999/xlink" width="25.972" height="25.45" viewBox="0 0 25.972 25.45">
  <defs>
    <clipPath id="clip-path">
      <rect id="Rectangle_258" data-name="Rectangle 258" width="25.972" height="25.45" fill="none"/>
    </clipPath>
  </defs>
  <g id="Group_358" data-name="Group 358" transform="translate(0)">
    <g id="Group_326" data-name="Group 326" transform="translate(0 0)" clip-path="url(#clip-path)">
      <path id="Path_942" data-name="Path 942" d="M18.048,29.765c.009.038-.386.124-1.048.419-.109.052-.227.105-.348.171l-.092.051-.093.056c-.063.038-.13.071-.2.11a.484.484,0,0,0-.2.135.444.444,0,0,1-.211.135,1.517,1.517,0,0,0-.218.148c-.068.058-.138.119-.205.183a2.717,2.717,0,0,0-.426.4.34.34,0,0,1-.093.123,1.358,1.358,0,0,1-.123.1.449.449,0,0,0-.2.248c-.062.089-.123.18-.192.267q-.048.068-.1.136l-.051.068-.049.07a.794.794,0,0,0-.118.131,1.443,1.443,0,0,0-.088.154l-.038.08c-.012.028-.023.056-.035.083-.023.056-.047.111-.072.166a1.212,1.212,0,0,0-.291.686.912.912,0,0,0-.215.751,2.853,2.853,0,0,0-.123.806c-.018.277-.01.56-.016.847a2.947,2.947,0,0,1,.1.872c.031.07.056.141.081.211a2.221,2.221,0,0,1,.059.217c.038.145.06.3.094.447a.935.935,0,0,0,.071.22c.032.071.066.141.1.209s.077.136.11.207a1.491,1.491,0,0,1,.089.219,7.188,7.188,0,0,0,.511.811,2.172,2.172,0,0,0,.647.738c.249.221.521.412.773.639a5.234,5.234,0,0,1,.883.517,4.01,4.01,0,0,0,.975.365,9.816,9.816,0,0,0,1.039.2,2.933,2.933,0,0,0,1.058.018c.086-.02.173-.029.259-.041s.173-.02.26-.026.172-.02.258-.033a1.688,1.688,0,0,0,.252-.057.956.956,0,0,0,.257-.039,1.582,1.582,0,0,0,.244-.084l.278-.119c.073-.032.147-.062.221-.092l.11-.043.055-.02.027-.01.014,0h0v0l0,.008c.062.148.121.3.178.45l.021.055.011.029.021.06a1.2,1.2,0,0,0,.045.118c.034.077.069.152.107.227a1.213,1.213,0,0,0,.128.214l.135.208.066.1c.022.035.048.066.071.1.047.066.094.134.138.2l.065.1c.024.033.047.066.069.1a1.29,1.29,0,0,1,.337.345,1.605,1.605,0,0,0,.31.362,1.767,1.767,0,0,0,.162.174l.043.04.005.005.01.008.02.016.042.032.168.127.346.257.087.065.005,0,0,0h0l-.011.006-.021.011-.043.022c-.058.03-.117.058-.178.087-.108.06-.227.118-.345.174l-.176.081c-.056.025-.125.058-.154.066a2.326,2.326,0,0,0-.437.193l-.109.045-.11.041-.217.087c-.072.029-.145.056-.218.08a1.429,1.429,0,0,1-.226.048,1.582,1.582,0,0,1-.434.127,1.906,1.906,0,0,0-.436.087c-.072.014-.143.033-.214.046l-.214.033c-.142.021-.283.044-.422.056a1.117,1.117,0,0,0-.418,0c-.068.01-.135.024-.2.037s-.134.016-.2.02c-.134,0-.266.017-.4.027a1.209,1.209,0,0,1-.386-.029,7.183,7.183,0,0,0-.739-.06,1.325,1.325,0,0,1-.346-.087.847.847,0,0,0-.169-.036.4.4,0,0,0-.175.017.8.8,0,0,1-.164-.032c-.054-.016-.105-.038-.157-.056A.667.667,0,0,0,17,46.062a.665.665,0,0,1-.306-.053c-.094-.039-.183-.087-.275-.116s-.182-.062-.269-.092-.173-.061-.255-.095a8.892,8.892,0,0,1-1.641-.837c-.088-.059-.166-.112-.232-.158s-.119-.091-.162-.125c-.085-.069-.126-.11-.119-.12s.073.015.192.077.294.155.522.272a11.2,11.2,0,0,0,2.048.8c.091.025.188.035.284.053a.835.835,0,0,1,.286.088,2.675,2.675,0,0,0,.307.048c.052.007.1.017.157.026a1.05,1.05,0,0,1,.157.041.608.608,0,0,1,.168-.009,1.216,1.216,0,0,1,.166.022c.11.021.22.057.336.068a3.754,3.754,0,0,0,.714.038,1.684,1.684,0,0,1,.373-.007,1.986,1.986,0,0,0,.381-.011,1.743,1.743,0,0,0,.2.021,1.916,1.916,0,0,0,.2-.013,2.653,2.653,0,0,0,.394-.079,1.516,1.516,0,0,0,.406-.049l.2-.047c.068-.016.135-.037.2-.051a1.324,1.324,0,0,0,.424-.057c.136-.046.27-.108.405-.163.067-.028.138-.048.207-.073s.139-.049.21-.071l.212-.07.105-.038c.035-.014.068-.032.1-.048.141-.052.28-.117.419-.181a.348.348,0,0,0,.058-.03L23.606,45a.481.481,0,0,1,.077-.036l.016-.022s.007-.007,0-.009l-.015-.006a.311.311,0,0,1-.038-.017l-.01-.009,0,0h0l-.006-.006-.045-.045c-.06-.06-.118-.123-.174-.188a2.818,2.818,0,0,1-.372-.356c-.122-.123-.221-.267-.334-.4-.03-.032-.061-.064-.09-.1s-.053-.07-.079-.106c-.051-.071-.1-.145-.15-.219-.024-.037-.051-.073-.072-.112l-.066-.116c-.044-.078-.089-.155-.136-.231a1.383,1.383,0,0,1-.121-.241l-.1-.251c-.019-.041-.032-.085-.048-.127l-.024-.063-.013-.032,0-.009c-.011-.018-.027-.033-.043-.017s-.031.015-.046.02l-.217.071c-.087.03-.178.054-.267.079s-.179.053-.269.077-.183.04-.276.053l-.278.045c-.094.011-.187.024-.28.038s-.188.022-.282.036a8.148,8.148,0,0,0-1.147-.019,4.34,4.34,0,0,1-1.127-.219,5.522,5.522,0,0,1-1.057-.4,8.075,8.075,0,0,1-.955-.565,6.426,6.426,0,0,1-.833-.7,3.161,3.161,0,0,1-.694-.8c-.051-.071-.1-.145-.143-.219s-.083-.153-.125-.228-.081-.151-.127-.224c-.022-.036-.046-.072-.072-.106s-.049-.07-.077-.1c-.042-.074-.091-.145-.134-.218s-.087-.146-.127-.222a1.421,1.421,0,0,1-.094-.235.8.8,0,0,1-.036-.253,2.177,2.177,0,0,1-.132-.474c-.014-.08-.026-.161-.044-.239s-.037-.157-.063-.233a1.557,1.557,0,0,0,0-.241,2.133,2.133,0,0,0-.032-.234c-.016-.077-.025-.154-.038-.231a1.5,1.5,0,0,1-.024-.231c0-.31.044-.609.033-.908a1.679,1.679,0,0,1,.01-.222c.01-.073.026-.145.041-.216s.034-.141.052-.211.031-.14.046-.209a.987.987,0,0,1,.039-.209c.021-.067.049-.132.076-.2s.055-.128.079-.192a1.035,1.035,0,0,0,.054-.2,5.8,5.8,0,0,1,.328-.721.556.556,0,0,1,.049-.192.766.766,0,0,1,.044-.085c.017-.027.036-.052.056-.077.039-.05.081-.1.122-.145a1.52,1.52,0,0,0,.119-.142c.018-.024.035-.049.051-.075s.033-.05.049-.076l.09-.155a.7.7,0,0,1,.242-.252.639.639,0,0,1,.2-.276c.042-.037.085-.072.129-.1s.09-.063.131-.1c.167-.13.28-.311.463-.4a.6.6,0,0,1,.221-.183,1.133,1.133,0,0,0,.236-.141,1.085,1.085,0,0,0,.228-.127,1.882,1.882,0,0,1,.21-.131,1.421,1.421,0,0,1,.2-.118c.034-.017.068-.033.1-.046s.069-.025.1-.035c.13-.059.255-.106.371-.151a2.935,2.935,0,0,1,1.117-.249" transform="translate(-8.981 -20.952)"/>
      <path id="Path_943" data-name="Path 943" d="M36,28.615c0,.032,0,.063,0,.091v.014a.1.1,0,0,1,0,.014v.013c0-.019,0,0,0,.013s0-.027,0,.012c0,.083,0-.092,0,.012,0,.022,0,.017,0,.011,0-.063,0,0,0,.01,0-.076,0-.043,0,.01,0-.1,0-.088,0,.009,0,0,0-.037,0,.009,0,.007,0,.026,0,.008,0,.07,0,.067,0,.007,0,.075,0,.045,0,.006s0,.066,0,.006c0,0,0,.017,0,.005,0-.031,0-.065,0,0,0,.018,0,.044,0,0,0,.08,0,.045,0,0,0,.013,0-.043,0,0,0-.012,0,.035,0,0s0-.047,0,0,0-.021,0,0c0-.075,0,.025,0,0,0,.007,0-.043,0,0,0,.014,0,.028,0,0,0,.115,0-.03,0-.005,0-.049,0,.007,0-.006,0,.022,0-.053,0-.007,0-.009,0,.037,0-.007,0,.057,0-.048,0-.008,0,0,0,0,0-.009,0-.09,0-.016,0-.009,0-.01,0,.051,0-.01,0-.007,0-.046,0-.01,0,.013,0-.131,0-.011,0,.022,0-.092,0-.012s0-.009,0-.012v-.012c0-.039,0-.084.005-.133s0-.1.006-.145c0,0,0-.067,0-.012,0,0,0-.048,0-.012,0-.083,0-.015,0-.011s0,.023,0-.011,0,.024,0-.01c0,.051,0,.038,0-.009,0,.05,0-.011,0-.009,0,.077,0,.023,0-.008s0,.012,0-.007c0,.015,0-.02,0-.006,0-.036,0-.05,0-.006,0-.025,0,0,0,0,0-.03,0,0,0,0s0,.082,0,0c0-.011,0,.014,0,0,0,.01,0,.022,0,0,0,.083,0,.032,0,0s0-.012,0,0c0-.008,0,0,0,0,0-.025,0,.036,0,0s0,.038,0,0,0-.038,0,0c0,0,0,.076,0,0,0-.016,0-.111,0,.006,0-.03,0,.056,0,.006,0,.086,0,0,0,.007s0,.046,0,.008,0,.022,0,.009c0-.049,0,.065,0,.009,0,.009,0,0,0,.01,0-.115,0,0,0,.011s0-.076,0,.011c0-.087,0-.012,0,.012s0-.036,0,.012c0-.061,0,.034,0,.013,0,.018,0,.008,0,.013s0,0,0,.014v.014c0,.029,0,.059,0,.092" transform="translate(-25.341 -19.938)"/>
      <path id="Path_944" data-name="Path 944" d="M41.158,29.572l-.026.088,0,.013a.074.074,0,0,1,0,.013l0,.013,0,.012c0,.006,0,0,0,.012l0,.012,0,.011,0,.01,0,.009a.047.047,0,0,1,0,.009l0,.008s0,0,0,.007l0,.007,0,.006,0,.006v0l0,0v0c-.023.077-.013.043,0,0,0,.013.012-.042,0,0,0-.012-.01.034,0,0s.013-.046,0,0,.006-.02,0,0c.021-.072-.007.024,0,0,0,0,0,0,0,0l0,0v0l0-.006V29.8l0-.007,0-.008,0-.008c0-.01,0-.008,0-.009s0,0,0-.01l0-.01s0,0,0-.011l0-.011,0-.012,0-.012c.012-.038.024-.081.038-.127l.042-.139,0-.012,0-.011c0-.012,0-.01,0-.011l0-.01,0-.01,0-.009,0-.008,0-.008a.064.064,0,0,1,0-.007l0-.006v-.011c0-.006,0,0,0,0v0c0-.01,0,.012,0,0,0,.01-.007.021,0,0-.023.081-.009.031,0,0s0-.011,0,0c0-.008,0,0,0,0,.007-.023-.01.034,0,0v.012l0,.005,0,.006c0,.008,0,.007,0,.007a.025.025,0,0,1,0,.008l0,.008,0,.009c0,.009,0,0,0,.01l0,.01s0,0,0,.011l0,.011,0,.012,0,.012,0,.012,0,.013,0,.014c-.008.027-.017.057-.026.088" transform="translate(-28.918 -20.635)"/>
      <path id="Path_945" data-name="Path 945" d="M41.409,17.244c0-.016.064-.02.178-.012.057,0,.128.01.211.02l.286.048c.072.012.148.03.23.048a1.443,1.443,0,0,1,.26.062c.076.069.209-.015.287.079a1.114,1.114,0,0,0,.312.1c.113.026.207.112.336.121.148-.029.193.186.357.144a1.881,1.881,0,0,1,.375.17c.095.124.254.133.389.2a.611.611,0,0,0,.4.229.441.441,0,0,0,.41.26,2.3,2.3,0,0,1,.2.156.981.981,0,0,0,.217.137l.215.152a1.7,1.7,0,0,1,.2.176.657.657,0,0,1,.239.141.779.779,0,0,1,.173.221.688.688,0,0,1,.235.164,1.669,1.669,0,0,1,.17.234.917.917,0,0,0,.2.208,1.167,1.167,0,0,1,.109.1.462.462,0,0,1,.081.125c.125.153.265.3.379.468a2.87,2.87,0,0,0,.151.269.928.928,0,0,0,.207.234c.067.08.13.165.189.253a1.529,1.529,0,0,1,.082.136,1.114,1.114,0,0,1,.063.148.723.723,0,0,1,.2.258,1.685,1.685,0,0,1,.109.309,2.305,2.305,0,0,1,.131.3,1.243,1.243,0,0,0,.144.3,2.942,2.942,0,0,0,.131.306,1.478,1.478,0,0,1,.106.318c.014.054.025.109.037.164l.02.082.01.04.012.045c.054.181.107.358.189.566q.032.079.058.157l.025.077.012.038.005.018s0,0,0,0h-.014c-.1-.015-.2-.036-.305-.056s-.2-.043-.3-.061c-.05-.009-.1-.018-.148-.025l-.074-.01-.035,0H48.85a.476.476,0,0,0-.148-.046.932.932,0,0,0-.152,0c-.051,0-.1.006-.152.007a.725.725,0,0,1-.15-.005A1.475,1.475,0,0,1,48.1,24.8l-.149-.008a.845.845,0,0,0-.294.024,4.012,4.012,0,0,1-.576.062.384.384,0,0,1-.273.083,2.312,2.312,0,0,0-.552.089,2.36,2.36,0,0,1-.256.1,1.458,1.458,0,0,1-.256.085l-.065.019-.016,0h-.005l-.288-.126v0l0-.008-.011-.031a.519.519,0,0,0-.063-.118,4.35,4.35,0,0,1-.2-.478.548.548,0,0,1-.12-.222c-.013-.041-.026-.081-.043-.119a.324.324,0,0,0-.07-.1l-.127-.207c-.043-.067-.089-.133-.128-.2-.014-.184-.176-.259-.271-.373a1.111,1.111,0,0,0-.156-.158.474.474,0,0,1-.128-.177c-.048-.054-.089-.111-.134-.166a.911.911,0,0,0-.071-.076.413.413,0,0,0-.086-.058c-.109-.078-.112-.281-.291-.266-.112-.062-.139-.232-.286-.234s-.183-.144-.277-.2l-.134-.091c-.044-.029-.086-.059-.13-.084a9.069,9.069,0,0,0-.934-.5c-.226-.1-.346-.162-.339-.185s.047-.013.126,0c.04.006.089.016.147.028a1.858,1.858,0,0,1,.2.051l.246.079c.09.031.185.072.289.114s.212.1.328.152.234.124.36.195c.1.054.233.076.305.192a1.1,1.1,0,0,1,.316.227c.16.017.218.166.322.263.027.023.054.048.079.074l.074.081a.924.924,0,0,0,.17.148.511.511,0,0,1,.162.165.944.944,0,0,0,.155.179.95.95,0,0,0,.3.386.689.689,0,0,0,.133.217,2.3,2.3,0,0,1,.155.209.521.521,0,0,0,.037.131.629.629,0,0,0,.062.117c.047.075.112.143.164.218a4.158,4.158,0,0,1,.229.508c.014.045.03.089.049.133l.014.033,0,.008v0l-.315-.138h0l0,0,.017-.007.065-.03a1.8,1.8,0,0,1,.27-.108,1.7,1.7,0,0,1,.27-.125,1.24,1.24,0,0,1,.3-.056,2.1,2.1,0,0,1,.293-.081c.1-.02.2-.03.3-.049a3.118,3.118,0,0,1,.622-.075,1.267,1.267,0,0,1,.319.01,1.113,1.113,0,0,0,.16,0,.525.525,0,0,0,.162-.03c.054,0,.108,0,.163,0l.162.015.164.015c.054.006.109.012.164.015l.02,0h0l.005,0,.011.005.028.009a.057.057,0,0,0,.023,0,.106.106,0,0,0-.02-.032c.049.018.046-.025.03-.05l-.006-.014L49,24.244l-.016-.037c-.011-.024-.022-.048-.035-.072-.023-.048-.049-.1-.075-.143a2.985,2.985,0,0,1-.121-.294c-.037-.1-.07-.2-.1-.3s-.089-.19-.13-.285-.086-.189-.128-.283a1.914,1.914,0,0,1-.137-.276,1.062,1.062,0,0,0-.15-.265.729.729,0,0,1-.083-.126c-.025-.044-.048-.089-.07-.133a.948.948,0,0,0-.159-.253c-.066-.075-.127-.153-.184-.231a1.307,1.307,0,0,1-.149-.252c-.117-.152-.176-.353-.354-.451A1.161,1.161,0,0,0,47,20.75c-.038-.028-.077-.057-.112-.088a.419.419,0,0,1-.148-.24.967.967,0,0,1-.182-.2.67.67,0,0,0-.2-.184.439.439,0,0,0-.171-.2c-.071-.052-.148-.1-.214-.151s-.118-.126-.18-.183a.913.913,0,0,0-.207-.142.8.8,0,0,1-.2-.142,1.024,1.024,0,0,0-.187-.152c-.159-.049-.224-.231-.384-.265-.122-.092-.26-.149-.376-.236-.181.027-.249-.136-.365-.211s-.274-.051-.353-.184c-.154.028-.234-.094-.336-.161s-.231-.056-.317-.14c-.125.02-.192-.106-.3-.12-.084-.07-.188-.063-.272-.1a.7.7,0,0,1-.246-.086c-.078-.027-.15-.054-.218-.074-.1-.032-.193-.062-.271-.089s-.146-.045-.2-.065c-.107-.038-.162-.065-.159-.081" transform="translate(-29.125 -12.13)"/>
      <path id="Path_946" data-name="Path 946" d="M36.118,15.981c0-.032,0-.063,0-.092v-.041c0,.019,0,0,0-.013s0,.027,0-.012c0-.083,0,.092,0-.012,0-.022,0-.017,0-.011,0,.063,0,0,0-.01,0,.076,0,.043,0-.01,0,.1,0,.088,0-.009,0,0,0,.037,0-.009,0-.007,0-.026,0-.008,0-.07,0-.067,0-.007,0-.075,0-.045,0-.007s0-.066,0-.006c0,0,0-.017,0,0,0,.031,0,.065,0,0,0-.019,0-.044,0,0,0-.08,0-.045,0,0,0-.013,0,.043,0,0,0,.012,0-.035,0,0s0,.048,0,0,0,.021,0,0c0,.075,0-.025,0,0,0-.007,0,.043,0,0,0-.014,0-.028,0,0,0-.115,0,.029,0,0,0,.049,0-.007,0,.006,0-.022,0,.053,0,.007,0,.009,0-.037,0,.007,0-.057,0,.048,0,.008,0,0,0,0,0,.009,0,.09,0,.015,0,.009,0,.009,0-.051,0,.01,0,.007,0,.047,0,.01,0-.013,0,.131,0,.011,0-.022,0,.092,0,.012s0,.009,0,.012v.013c0,.039,0,.084,0,.133s0,.1,0,.145c0,0,0,.067,0,.012,0,0,0,.048,0,.012,0,.084,0,.016,0,.011s0-.023,0,.011,0-.024,0,.01c0-.051,0-.038,0,.009,0-.05,0,.01,0,.008,0-.077,0-.023,0,.009s0-.012,0,.007c0-.014,0,.02,0,.007,0,.036,0,.05,0,.006,0,.025,0,.005,0,.005,0,.03,0,0,0,0s0-.082,0,0c0,.011,0-.013,0,0,0-.011,0-.022,0,0,0-.084,0-.032,0,0s0,.012,0,0c0,.008,0,0,0,0,0,.025,0-.036,0,0s0-.038,0,0,0,.038,0,0c0,0,0-.077,0-.005,0,.016,0,.112,0-.006,0,.029,0-.056,0-.007,0-.085,0,0,0-.007s0-.046,0-.009,0-.022,0-.008c0,.049,0-.064,0-.009v-.01c0,.115,0,0,0-.011s0,.076,0-.011c0,.087,0,.012,0-.012s0,.037,0-.012c0,.062,0-.034,0-.013,0-.018,0-.008,0-.013v-.028c0-.028,0-.059,0-.091" transform="translate(-25.426 -11.036)"/>
      <path id="Path_947" data-name="Path 947" d="M30.644,16.258c0-.032-.009-.063-.012-.091l0-.014c0-.008,0-.01,0-.013a.124.124,0,0,0,0-.013l0-.013c0-.006,0,0,0-.012l0-.012a.073.073,0,0,0,0-.011c0-.01,0-.009,0-.01v-.01a.1.1,0,0,0,0-.01s0,0,0-.008v-.015a.038.038,0,0,1,0-.007V16c-.01-.079-.005-.044,0,0,0-.013.006.043,0,0,0,.012,0-.035,0,0s.006.047,0,0,0,.021,0,0c.01.074,0-.024,0,0,0,0,0,0,0,0v.009c0,.007,0,0,0,.005a.043.043,0,0,1,0,.007s0,0,0,.007v.008s0,0,0,.008,0,.009,0,.009,0,0,0,.01v.01s0,0,0,.011a.086.086,0,0,1,0,.012v.025l.017.131c.007.054.013.1.018.144l0,.012s0,0,0,.012,0,.011,0,.011,0,0,0,.01,0,0,0,.01a.078.078,0,0,0,0,.009v.016c0,.009,0,0,0,.007s0,0,0,.007,0,0,0,.006,0,0,0,0,0,0,0,0,0,0,0,0,0-.013,0,0c0-.011,0-.022,0,0-.011-.083,0-.032,0,0s0,.012,0,0c0,.009,0,0,0,0,0,.024,0-.036,0,0V16.49c0-.008,0-.007,0-.007a.038.038,0,0,1,0-.008v-.017a.1.1,0,0,1,0-.01.048.048,0,0,1,0-.01l0-.011v-.012a.074.074,0,0,1,0-.012V16.39c0-.018,0-.009,0-.013a.136.136,0,0,0,0-.014v-.014c0-.028-.008-.059-.012-.091" transform="translate(-21.549 -11.234)"/>
      <path id="Path_948" data-name="Path 948" d="M2.42,33.247c-.013.01-.061-.028-.141-.109-.04-.041-.088-.093-.145-.155s-.115-.139-.183-.225c-.045-.057-.095-.118-.142-.187a1.8,1.8,0,0,1-.154-.218c-.015-.1-.166-.127-.162-.249a1.389,1.389,0,0,0-.17-.281,2.271,2.271,0,0,0-.174-.312c-.128-.077-.026-.266-.174-.344a1.949,1.949,0,0,1-.17-.375c.01-.155-.1-.268-.162-.406a.592.592,0,0,0-.151-.437.4.4,0,0,0,0-.25.439.439,0,0,0-.055-.111.676.676,0,0,0-.084-.106C.336,29.4.325,29.32.31,29.237a.946.946,0,0,0-.071-.247c-.019-.084-.044-.169-.062-.255a1.825,1.825,0,0,1-.034-.265.729.729,0,0,1-.059-.129.7.7,0,0,1-.028-.135.893.893,0,0,1,.015-.281.644.644,0,0,1-.065-.278,1.308,1.308,0,0,1,.025-.288c.038-.193-.077-.388-.008-.586,0-.1,0-.2,0-.3s.009-.2.022-.3c.011-.05.023-.1.033-.151s.023-.1.031-.151a.863.863,0,0,0,0-.313c.005-.1.013-.21.027-.315a1.084,1.084,0,0,1,.077-.309.806.806,0,0,1,.021-.325,1.887,1.887,0,0,1,.124-.3A1.525,1.525,0,0,1,.4,24.148c.018-.051.039-.1.058-.154a1.259,1.259,0,0,0,.086-.319,4.25,4.25,0,0,1,.235-.625c.055-.1.1-.2.155-.3a1.428,1.428,0,0,0,.117-.312.941.941,0,0,1,.141-.3,2.92,2.92,0,0,0,.167-.281.718.718,0,0,0,.179-.27,1.339,1.339,0,0,1,.159-.279c.028-.046.057-.09.089-.132l.1-.123a1.354,1.354,0,0,0,.173-.262,2.2,2.2,0,0,1,.387-.481.415.415,0,0,1,.174-.251,1,1,0,0,0,.23-.2.836.836,0,0,0,.115-.094c.036-.033.069-.069.1-.106a2.211,2.211,0,0,1,.2-.212,1.3,1.3,0,0,1,.22-.183.957.957,0,0,0,.208-.19,2.211,2.211,0,0,1,.432-.339.569.569,0,0,1,.212-.163.676.676,0,0,0,.222-.14c.072-.048.139-.1.213-.144s.144-.087.217-.126c.185-.014.289-.152.423-.237a.692.692,0,0,0,.1-.06l.1-.063a.487.487,0,0,1,.215-.082c.034-.015.069-.029.1-.041l.105-.036a.647.647,0,0,0,.191-.1c.124-.074.306.012.384-.149a.493.493,0,0,1,.192-.047.226.226,0,0,0,.172-.078.242.242,0,0,1,.165-.082c.06-.009.122-.007.177-.021l.318-.082c.114-.029.224-.048.326-.069s.2-.041.289-.051l.25-.034.109-.013c.035,0,.068-.005.1-.008.251-.016.386-.013.389.011s-.155.078-.45.147-.722.185-1.244.375a.931.931,0,0,0-.152.08.3.3,0,0,1-.172.043,1.534,1.534,0,0,0-.166.078.466.466,0,0,1-.178.063c-.088.125-.237.109-.362.164-.061.03-.127.054-.192.08-.032.014-.065.028-.1.045a.679.679,0,0,0-.089.063.509.509,0,0,1-.191.109c-.035.013-.07.026-.1.042a.459.459,0,0,0-.094.064.7.7,0,0,0-.4.243.576.576,0,0,0-.212.116c-.065.049-.122.111-.191.156a.477.477,0,0,0-.228.113c-.063.058-.119.126-.177.19-.122.123-.279.206-.4.334a1.4,1.4,0,0,0-.2.179,2.092,2.092,0,0,1-.2.186,1.625,1.625,0,0,1-.174.219,1.2,1.2,0,0,1-.1.095,1.233,1.233,0,0,1-.112.088,1.949,1.949,0,0,1-.185.217c-.065.07-.129.141-.192.215-.1.164-.246.3-.363.462a1.677,1.677,0,0,1-.193.23.873.873,0,0,0-.093.12.438.438,0,0,0-.054.146c-.05.088-.108.171-.165.256a2.94,2.94,0,0,0-.152.268,2.773,2.773,0,0,0-.159.267,1.929,1.929,0,0,0-.131.285.711.711,0,0,0-.173.268,2.322,2.322,0,0,0-.084.311,5.655,5.655,0,0,1-.224.593Q1,24,.949,24.143L.9,24.291c-.014.05-.029.1-.043.149a1.725,1.725,0,0,1-.081.3,1.267,1.267,0,0,0-.061.3,1.453,1.453,0,0,1-.056.3,1.038,1.038,0,0,0-.049.295,2.651,2.651,0,0,1-.012.3c0,.049-.012.1-.022.144a1.22,1.22,0,0,1-.032.144A2.767,2.767,0,0,1,.5,26.5a.586.586,0,0,0,.017.286c.008.19.11.372,0,.558a1.193,1.193,0,0,1,0,.274.63.63,0,0,0,.023.268.47.47,0,0,0-.006.267c.009.043.021.086.032.128a.91.91,0,0,1,.029.127c0,.086.006.172.014.257a.861.861,0,0,0,.063.243.778.778,0,0,1,.055.24,1.21,1.21,0,0,0,.042.238A.319.319,0,0,1,.8,29.5a.971.971,0,0,1,.014.117.428.428,0,0,0,.061.223c.031.149.1.283.126.426.157.1.1.266.137.4s.175.217.144.37c.132.081.117.223.147.343s.141.192.147.313c.1.07.074.208.144.285.017.109.095.175.136.257a.619.619,0,0,1,.128.228c.039.072.08.137.117.2l.145.246q.065.105.107.18c.055.1.078.156.066.166" transform="translate(0 -11.906)"/>
      <path id="Path_949" data-name="Path 949" d="M11.345,75.587l-.063.067-.01.01-.009.01-.009.009-.009.009c-.01.011.018-.02-.009.009-.056.061.063-.067-.008.009l-.008.008-.007.008-.007.007c.071-.077.06-.065-.006.007l-.006.006-.005.006-.005.005c-.051.055-.03.033,0,0l0,0,0,0c.021-.022.044-.048,0,0-.012.014-.03.032,0,0-.054.059-.031.033,0,0-.009.009.029-.032,0,0,.009-.009-.024.026,0,0s.032-.035,0,0,.014-.016,0,0c.05-.055-.017.018,0,0-.005.005.03-.032,0,0-.01.01-.019.02,0,0-.079.085.02-.021,0,0l0,0c-.015.015.036-.039,0-.005.007-.007-.025.027.005-.005-.039.042.033-.036.005-.006l.006-.007c.062-.066.011-.011.007-.007l.007-.007c.005-.005.032-.034.008-.008l.007-.008c-.015.016.062-.068.008-.009l.009-.009.008-.009.091-.1.1-.106s.046-.049.008-.009c0,0,.033-.035.008-.009.057-.061.01-.011.007-.008l.007-.008c.033-.036-.017.018.007-.007-.036.038-.026.028.006-.007-.034.036.007-.008.006-.007-.052.056-.016.017.005-.006s-.007.009,0-.005l0,0c.025-.026.034-.036,0,0l0,0c.021-.022,0,0,0,0s-.056.06,0,0c.007-.008-.009.01,0,0-.007.007-.015.016,0,0-.057.062-.022.024,0,0s.008-.009,0,0c.006-.006,0,0,0,0,.017-.018-.024.026,0,0s-.027.028,0,0,.025-.028,0,0c0,0-.052.056,0,0,.011-.012.076-.082,0,0l0,0c-.059.062,0,0-.006.005s-.03.033,0,.006-.015.017-.006.007c.033-.036-.044.047-.007.007l-.007.007c.078-.084,0,0-.008.008s.052-.056-.007.008l-.008.009-.008.009-.009.009-.009.009-.009.01-.009.01-.062.067" transform="translate(-7.841 -53.067)"/>
      <path id="Path_950" data-name="Path 950" d="M15.729,78.946l-.051.076-.008.012-.007.012-.007.011-.007.011-.007.01-.007.01-.006.009-.006.009-.005.008-.005.008-.005.007,0,.007,0,.006,0,.006,0,0,0,0,0,0,0,0v0h0v0l0,0,0,0,0,0,0,0,0-.006,0-.006,0-.007,0-.007.005-.008.006-.008.006-.009.006-.009.007-.01.007-.01.007-.011.073-.11.081-.121.007-.01.007-.01.006-.009.006-.009.006-.008.005-.008,0-.007,0-.007c.005-.007,0,0,0-.006l0-.005,0,0,0,0,0,0,0,0h0l0,0,0,0,0,0,0,0,0,.006,0,.006,0,.007-.005.007-.005.008-.006.009-.006.008-.006.009-.007.009-.007.01-.007.011-.007.011-.008.011-.008.012-.051.076" transform="translate(-10.971 -55.432)"/>
      <path id="Path_951" data-name="Path 951" d="M20.566,41.425c0,.016-.095.049-.288.1a5.307,5.307,0,0,1-.863.11c-.063.005-.129,0-.2.006h-.211c-.073,0-.149,0-.226-.006-.039,0-.078,0-.118-.007l-.12-.016a.665.665,0,0,0-.253-.02.487.487,0,0,1-.263-.049,2.017,2.017,0,0,0-.271-.069l-.288-.059c-.2-.043-.378-.151-.592-.2a.546.546,0,0,1-.3-.134l-.071-.047a.713.713,0,0,0-.073-.045.415.415,0,0,0-.169-.049,2.743,2.743,0,0,1-.317-.161c-.1-.064-.2-.131-.306-.2a.98.98,0,0,0-.137-.13c-.025-.019-.05-.037-.077-.055l-.078-.055c-.053-.036-.107-.07-.162-.1s-.107-.075-.159-.115a2.286,2.286,0,0,0-.586-.559,1.312,1.312,0,0,0-.215-.366,1.48,1.48,0,0,0-.149-.154A1.647,1.647,0,0,0,13.9,38.9c-.168-.239-.288-.51-.464-.76-.075-.132-.14-.271-.208-.411-.031-.071-.06-.143-.088-.217a1.889,1.889,0,0,1-.073-.224,1.76,1.76,0,0,1-.252-.931,2.035,2.035,0,0,1-.115-.99,1.739,1.739,0,0,0,0-.254c0-.085-.007-.17-.011-.257a2.105,2.105,0,0,1,0-.259c0-.043.007-.086.014-.13a1.108,1.108,0,0,1,.031-.128,5.565,5.565,0,0,1,.2-1.038,9.912,9.912,0,0,0,.378-1.017,3.47,3.47,0,0,1,.556-.961,2.312,2.312,0,0,1,.723-.873c.261-.282.59-.488.879-.748a5.08,5.08,0,0,1,1.011-.595c.367-.149.739-.26,1.1-.405a1.592,1.592,0,0,1,.278-.088c.047-.011.095-.022.142-.03l.144-.02c.1-.013.191-.025.287-.032.048,0,.1-.009.143-.016l.142-.018a1.727,1.727,0,0,0,.287.007c.095,0,.189-.007.283-.016s.188-.011.283-.014a2.021,2.021,0,0,1,.281.017c.376.021.732.131,1.1.181a3.725,3.725,0,0,1,1.027.352.811.811,0,0,1,.263.071q.061.028.12.06c.039.023.076.048.113.072l.109.076.107.079a2.37,2.37,0,0,0,.221.142c.266.227.572.389.818.623.27.209.447.5.692.718a3.821,3.821,0,0,1,.559.785,1.181,1.181,0,0,1,.075.093c.022.033.042.067.061.1a1.746,1.746,0,0,1,.1.212,3.07,3.07,0,0,0,.19.419l.045.1.025.059c.012.028.023.055.033.085q.067.174.132.346l0,.011s-.005,0-.008.005l-.02.01-.042.019-.083.039-.165.077-.082.037-.061.027-.094.04a.446.446,0,0,0-.1.023.881.881,0,0,0-.095.038,1.424,1.424,0,0,0-.177.1c-.028.019-.056.036-.083.056l-.078.063c-.052.042-.1.083-.157.12a1.975,1.975,0,0,0-.3.238c-.049.041-.1.08-.149.116a1.08,1.08,0,0,1-.157.1c-.048.04-.1.078-.145.116l-.072.057-.067.061a1.735,1.735,0,0,0-.241.264,1.6,1.6,0,0,1-.259.237c-.022.019-.044.038-.064.059a.444.444,0,0,0-.052.067.4.4,0,0,0-.061.164,2.3,2.3,0,0,1-.208.253.607.607,0,0,0-.153.276.67.67,0,0,1-.123.279c-.028.041-.058.081-.088.12a.847.847,0,0,0-.071.126l-.118.254a1.31,1.31,0,0,0-.052.126l-.047.124a6.788,6.788,0,0,0-.414,1.787c-.01.106-.019.2-.028.282s-.008.151-.013.206c-.009.111-.019.17-.031.17a2.341,2.341,0,0,1-.069-.819c0-.133.018-.283.03-.447,0-.083.022-.167.034-.256s.029-.181.044-.277.045-.193.069-.295a3.168,3.168,0,0,1,.085-.312l.107-.328c.043-.11.09-.222.138-.338.02-.046.033-.1.052-.143s.037-.1.057-.145a.879.879,0,0,1,.165-.274,2.617,2.617,0,0,1,.36-.57.705.705,0,0,1,.074-.165.554.554,0,0,1,.051-.074c.02-.023.04-.045.06-.068.083-.088.176-.17.257-.263s.177-.178.268-.267l.067-.068.071-.066c.047-.045.093-.091.136-.141a1.014,1.014,0,0,1,.138-.145c.053-.041.108-.08.164-.118.112-.076.224-.154.332-.241a1.868,1.868,0,0,0,.189-.093l.091-.054.092-.052c.061-.036.12-.075.18-.116.029-.02.059-.042.088-.064s.058-.044.089-.065.071-.021.105-.034l.026-.01.007,0h.006l.019-.007a.209.209,0,0,0,.033-.017l.016-.009.007-.005s.007,0,0-.006c-.014-.025-.029-.047-.041-.065l-.009-.015,0,0-.006-.012-.012-.024c-.015-.032-.029-.064-.043-.1a1.717,1.717,0,0,0-.41-.763,7.991,7.991,0,0,0-.532-.722,6.026,6.026,0,0,0-.652-.658c-.26-.18-.518-.359-.765-.569-.285-.152-.563-.323-.867-.455-.314-.1-.62-.243-.951-.318-.083-.017-.165-.036-.247-.061l-.249-.065A2.115,2.115,0,0,0,20.087,29a1.192,1.192,0,0,0-.261.009c-.087,0-.173-.008-.26-.012s-.174-.007-.261-.007l-.262,0c-.088.006-.175.014-.263.025a4.019,4.019,0,0,0-1.047.19,2.167,2.167,0,0,0-1.013.374c-.317.178-.633.349-.932.547a8.152,8.152,0,0,0-.812.688,5.257,5.257,0,0,0-.671.8c-.044.075-.088.148-.135.22q-.036.054-.073.106l-.07.108a2.135,2.135,0,0,0-.24.45c-.125.316-.225.632-.357.937-.048.158-.1.314-.146.473-.019.08-.037.16-.048.241a1.091,1.091,0,0,0,0,.245c0,.041-.005.081-.005.121l0,.121c0,.081,0,.16.009.239a1.462,1.462,0,0,1-.006.236.993.993,0,0,1-.048.236c0,.039.007.078.009.117s.006.078.007.117c0,.078,0,.156.005.233s.009.154.018.231a1.165,1.165,0,0,0,.055.224.857.857,0,0,0,0,.117,1.1,1.1,0,0,0,.014.114,1.456,1.456,0,0,0,.055.22c.025.071.052.141.078.211s.056.138.078.208.038.142.062.211.045.138.07.207a1.881,1.881,0,0,0,.2.382c.043.058.075.121.111.18s.066.123.1.185.066.122.1.183a1.259,1.259,0,0,0,.113.171.893.893,0,0,1,.126.159c.038.056.075.112.109.17a1.033,1.033,0,0,0,.252.3c.169.2.361.366.538.539a.591.591,0,0,1,.171.083.826.826,0,0,1,.138.117c.021.022.041.044.062.067l.063.064a1.387,1.387,0,0,0,.131.12,1.815,1.815,0,0,0,.3.17.766.766,0,0,1,.277.193,1.541,1.541,0,0,1,.574.281c.183.1.39.108.557.209a.647.647,0,0,1,.272.065,1.022,1.022,0,0,0,.257.082.977.977,0,0,0,.249.062c.083.013.165.012.243.029.04,0,.078,0,.117.009s.076.005.114.009a1.64,1.64,0,0,1,.216.037l.2.012c.066,0,.13.009.192.008.74.017,1.146-.063,1.153-.023" transform="translate(-8.936 -20.048)"/>
      <path id="Path_952" data-name="Path 952" d="M42.7,69.9l.087-.027.013,0,.013,0,.013,0,.012,0,.012,0c.079-.025-.088.027.011,0l.011,0,.01,0,.01,0c-.1.031-.084.026.009,0l.008,0,.008,0c.067-.021.064-.02.007,0l.006,0c-.04.013.062-.02.005,0h.012c.076-.024.043-.013,0,0,.012,0-.041.013,0,0-.012,0,.033-.011,0,0s-.045.014,0,0-.02.006,0,0c-.071.022.023-.007,0,0h0c.014,0,.027-.008,0,0,.11-.035-.028.009,0,0-.046.014.007,0-.005,0,.02-.007-.051.016-.006,0-.009,0,.035-.011-.007,0,.055-.017-.046.015-.007,0l-.008,0-.009,0c-.009,0,.049-.015-.009,0l-.01,0c.013,0-.125.039-.011,0l-.011,0c.07-.022-.009,0-.012,0l-.012,0-.127.04-.138.044-.012,0-.011,0c-.08.025-.015,0-.011,0l-.01,0-.009,0-.009,0-.008,0c.073-.023.022-.007-.008,0l-.007,0-.007,0c-.035.011-.047.015-.005,0-.024.007-.005,0-.005,0-.029.009,0,0,0,0s.078-.025,0,0h0c-.023.007-.012,0,0,0-.008,0,0,0,0,0-.024.007.034-.011,0,0h0c-.023.007-.036.011,0,0,0,0,.073-.023.005,0-.016.005-.106.033.005,0l.006,0c.081-.026,0,0,.007,0s.043-.013.008,0l.008,0,.009,0,.009,0c-.11.035,0,0,.01,0s-.073.023.011,0l.011,0,.012,0,.012,0,.012,0,.013,0,.014,0L42.7,69.9" transform="translate(-29.867 -49.155)"/>
      <path id="Path_953" data-name="Path 953" d="M41.762,64.767l.091-.005h.17c-.012,0,.035,0,0,0s-.047,0,0,0h-.13l-.132.007-.145.007H41.5c.084,0,.032,0,0,0s-.012,0,0,0h.17l.092-.005" transform="translate(-29.21 -45.592)"/>
      <path id="Path_954" data-name="Path 954" d="M44.243,22.078c.022.023-.057.141-.221.334l-.089.1a.649.649,0,0,1-.1.115c-.069.007-.027.134-.116.127a.373.373,0,0,0-.129.139c-.038.056-.116.072-.141.149,0,.109-.169.033-.153.16a.676.676,0,0,1-.165.17c-.1.009-.12.112-.175.179-.115,0-.156.088-.186.189-.138-.014-.194.061-.2.2-.067.067-.165.1-.205.205a1.206,1.206,0,0,1-.215.212.278.278,0,0,1-.223.22c-.026.128-.125.18-.232.227s-.116.2-.239.233c-.085.074-.154.168-.246.238s-.215.113-.253.244a.74.74,0,0,1-.26.249c-.033.141-.147.2-.266.254-.081.094-.21.138-.271.257-.1.077-.16.2-.276.261a.692.692,0,0,0-.277.26c-.056.123-.2.156-.273.255-.141.03-.162.186-.269.25-.083.088-.205.134-.264.244a.9.9,0,0,1-.259.238c-.005.163-.188.137-.254.232-.115.042-.158.159-.247.225-.065.09-.2.11-.24.217-.084.066-.128.172-.233.21-.036.112-.181.1-.226.2a2.347,2.347,0,0,1-.217.192c-.131,0-.148.117-.209.183s-.095.16-.2.174c-.068.054-.156.082-.19.164-.05.065-.206.015-.18.154-.041.068-.173.036-.169.143s-.108.089-.158.132l-.146.12c-.421.343-.678.522-.711.487s.208-.338.658-.819c.045-.048.051-.141.141-.15.052-.049.072-.134.153-.16,0-.113.1-.117.164-.17s.136-.1.175-.179.144-.1.186-.189a.28.28,0,0,0,.2-.2c.1-.029.132-.139.205-.205.125-.012.161-.12.214-.213s.159-.134.224-.22c.088-.062.143-.161.232-.227a.474.474,0,0,1,.239-.233,1.558,1.558,0,0,1,.246-.239c.063-.1.173-.157.254-.244s.23-.1.26-.249c.081-.091.186-.157.265-.253a1.381,1.381,0,0,0,.271-.258c.149-.025.206-.149.277-.261a1.329,1.329,0,0,1,.276-.26,3.461,3.461,0,0,1,.273-.255c.073-.1.2-.142.269-.25s.2-.137.264-.244a.638.638,0,0,1,.259-.238c.084-.079.22-.1.254-.232.071-.089.087-.235.247-.225.06-.1.2-.108.24-.217.136-.01.157-.142.233-.209a.584.584,0,0,0,.225-.2c.044-.1.158-.118.217-.193.036-.1.18-.082.209-.183.073-.054.125-.128.2-.174-.017-.143.124-.116.19-.164s.064-.165.179-.154c0-.115.1-.111.169-.143s.076-.122.158-.132c.006-.09.117-.064.146-.12.071-.012.087-.079.134-.108a.224.224,0,0,1,.122-.1l.108-.083c.2-.152.325-.224.347-.2" transform="translate(-24.755 -15.542)"/>
      <path id="Path_955" data-name="Path 955" d="M67.487,6.542c-.021-.024.122-.188.4-.466l.151-.149a1.489,1.489,0,0,1,.174-.167c.092-.023.081-.173.2-.184a.9.9,0,0,0,.216-.2c.068-.078.176-.116.235-.218.03-.135.231-.077.254-.234a1.665,1.665,0,0,1,.273-.248c.137-.035.2-.167.29-.263a.465.465,0,0,0,.307-.276.348.348,0,0,0,.323-.289,1.109,1.109,0,0,1,.087-.07l.085-.063c.022-.014.047-.037.036-.058a.47.47,0,0,0,.026-.041.152.152,0,0,1,.058-.042c-.03.006-.056.012-.075.017-.1.031-.051.019-.016-.028-.073.038-.081.049-.087.046s0-.007-.008-.014l0-.006s0,0-.013-.006l-.064-.014c-.171-.042-.345.066-.521.006-.176-.005-.355.017-.536,0A2.182,2.182,0,0,0,69,3.545a.766.766,0,0,0-.138.006l-.052.005-.062.008c-.041.005-.085.013-.131.021l-.336.017c-.005-.115-.009-.237-.007-.362,0-.062,0-.125.006-.186V3.019l0-.024c0-.017.005-.033.009-.049a.923.923,0,0,1,0-.573,3.559,3.559,0,0,0,0-.584,2.349,2.349,0,0,0-.009-.3s0-.015,0-.015V1.473a.017.017,0,0,1,0-.007.112.112,0,0,1,.012-.028.289.289,0,0,0,.026-.086c0-.027,0-.049-.013-.025s-.012.025-.017.038c-.03.075-.025.06-.031.053s-.018-.013-.025.01a.022.022,0,0,0-.034,0l0,0-.005.007-.022.028c-.014.019-.028.039-.041.059a1.1,1.1,0,0,1-.173.228,3.2,3.2,0,0,0-.368.424,2.2,2.2,0,0,1-.361.415c-.03.212-.257.254-.352.4-.152.1-.223.27-.344.392-.1.144-.261.224-.334.38a2.28,2.28,0,0,1-.324.367.454.454,0,0,1-.153.183c-.031.025-.062.05-.09.077a.447.447,0,0,0-.039.043l-.008.012,0,.006v0a.029.029,0,0,0,0,.01l-.014.017v.028c0,.028,0,.056,0,.084,0,.063,0,.125-.008.187-.09.148-.015.292-.009.433-.01.141.051.279-.01.412a1.191,1.191,0,0,0-.01.392.481.481,0,0,1-.046.187.153.153,0,0,0-.012.068.04.04,0,0,0,.047.031c.009.018-.007.049-.021.09a.048.048,0,0,0,.038.02.093.093,0,0,0,.067-.029.11.11,0,0,1,.043-.03.2.2,0,0,1,.065.007.833.833,0,0,0,.157.035l.3.013a4.961,4.961,0,0,1,1.329.132,6.7,6.7,0,0,1-1.624.145,1.211,1.211,0,0,0-.157.028.48.48,0,0,1-.222-.016c-.1,0-.2.015-.318.022a1.025,1.025,0,0,1,.011-.25.338.338,0,0,1-.038-.135.667.667,0,0,1,0-.133c.007-.062.025-.124.027-.187a1.73,1.73,0,0,0-.011-.392c-.048-.134.024-.272-.01-.412a.655.655,0,0,0-.009-.433.454.454,0,0,0,.017-.188l0-.047c0-.017,0-.027-.006-.059,0-.054-.009-.11-.012-.166.026-.033.053-.067.082-.1l.042-.03.01-.008.007,0,.013-.008a.386.386,0,0,0,.047-.036.472.472,0,0,0,.077-.089c.045-.064.081-.138.121-.209.083-.14.219-.238.313-.376.12-.117.2-.267.324-.389a1.147,1.147,0,0,1,.335-.4,3.81,3.81,0,0,1,.345-.41,4.452,4.452,0,0,1,.354-.42c.109-.151.3-.229.363-.429.057-.075.122-.145.186-.216l.048-.053.064-.074c.058-.068.115-.137.173-.209.12-.132.236-.259.352-.393s.232-.273.362-.443A.279.279,0,0,0,68.8,0a2.805,2.805,0,0,0-.02.518c.008.139.027.273.041.429.006.088.01.181.012.275l0,.143v.129c0,.1-.008.2-.014.3.008.2,0,.391,0,.584.025.193-.036.384,0,.573,0,.016.005.033.007.049l0,.024v.012h0a.017.017,0,0,1,0,.01.171.171,0,0,0-.018.039.031.031,0,0,0,.032-.008l.012-.009,0,0s0,0,.013,0c.046,0,.092-.007.138-.007a1.135,1.135,0,0,1,.273.027c.18,0,.36.076.536,0,.176-.016.35-.112.521.006a.389.389,0,0,1,.064-.006h.108c.078,0,.151.009.223.015a1.9,1.9,0,0,0,.451,0,.571.571,0,0,0,.266.039c.111,0,.249-.015.382-.024a1.441,1.441,0,0,1-.12.112c-.128.1-.255.193-.364.28a2,2,0,0,0-.278.26,1.789,1.789,0,0,1-.3.264l-.018.013-.012.008-.024.016-.047.032a.624.624,0,0,0-.086.072c-.08.133-.264.141-.335.275-.115.083-.207.187-.32.261-.027.175-.2.172-.3.246s-.14.221-.287.232c-.034.144-.17.162-.27.216s-.142.17-.252.2c-.038.114-.175.105-.232.182-.1.03-.141.118-.212.165a.538.538,0,0,1-.191.146l-.169.127c-.318.234-.5.351-.523.327" transform="translate(-45.857 0)"/>
      <path id="Path_956" data-name="Path 956" d="M48.12,54.121c0,.016-.1.027-.3.033a2.6,2.6,0,0,1-.367-.007l-.234-.019c-.042,0-.085-.007-.13-.012l-.137-.023-.194-.033-.1-.018-.053-.009-.052-.013c-.142-.033-.295-.066-.451-.118a.572.572,0,0,0-.242-.075.448.448,0,0,1-.248-.1,2,2,0,0,0-.251-.124l-.135-.054c-.046-.017-.09-.041-.135-.061a2.852,2.852,0,0,1-.265-.152l-.067-.041-.067-.043a1.16,1.16,0,0,0-.142-.075A.385.385,0,0,1,44.4,53.1a.721.721,0,0,1-.064-.054l-.057-.064a.56.56,0,0,0-.279-.2,1.124,1.124,0,0,1-.141-.106c-.045-.038-.09-.077-.135-.117l-.133-.123c-.044-.043-.084-.09-.126-.135a.939.939,0,0,0-.109-.154c-.021-.024-.042-.046-.064-.069l-.034-.033-.033-.035c-.087-.093-.183-.181-.271-.279-.028-.062-.053-.125-.086-.183a1.4,1.4,0,0,0-.11-.167c-.02-.027-.041-.053-.064-.079s-.044-.051-.065-.079c-.043-.054-.088-.106-.135-.159a1.1,1.1,0,0,0-.057-.207,1.545,1.545,0,0,0-.082-.193,1.259,1.259,0,0,0-.115-.18c-.022-.029-.045-.058-.07-.086s-.045-.059-.07-.087c-.055-.135-.1-.273-.151-.414-.021-.071-.045-.142-.071-.212a2.144,2.144,0,0,0-.082-.211,4.267,4.267,0,0,1-.192-.909,1.774,1.774,0,0,1-.059-.961,1.748,1.748,0,0,1-.029-.248,1.216,1.216,0,0,1,.008-.25c.011-.083.025-.166.042-.249a1.9,1.9,0,0,1,.061-.247,1.571,1.571,0,0,0,.056-.249c.007-.042.012-.085.017-.127s.015-.084.022-.127c.016-.085.032-.17.053-.254.011-.041.023-.084.037-.124a1.255,1.255,0,0,1,.058-.119c.061-.163.108-.333.181-.494l.1-.245a1.021,1.021,0,0,1,.06-.119l.065-.117.145-.227c.053-.073.1-.146.154-.222.025-.038.049-.076.072-.115l.034-.058.037-.057a2.424,2.424,0,0,0,.133-.241l.075-.116.084-.11c.056-.073.113-.146.172-.219a1.027,1.027,0,0,1,.093-.1c.033-.033.066-.066.1-.1a2.684,2.684,0,0,1,.21-.186,2.012,2.012,0,0,1,.184-.217,1.437,1.437,0,0,1,.213-.189,3.1,3.1,0,0,1,.488-.3q.117-.083.24-.158l.256-.132c.168-.094.347-.166.513-.27a4.962,4.962,0,0,1,1.11-.38c.39-.072.776-.107,1.16-.177a1.552,1.552,0,0,1,.29-.03c.049,0,.1,0,.145,0l.145.009c.193.011.383.04.573.049a1.62,1.62,0,0,0,.279.064c.093.018.187.03.281.041a2.609,2.609,0,0,1,.552.115c.364.1.691.276,1.037.4a3.749,3.749,0,0,1,.935.551.819.819,0,0,1,.129.051,1.138,1.138,0,0,1,.115.071c.036.026.072.054.105.083s.065.062.1.093c.062.064.122.129.182.195a2.329,2.329,0,0,0,.187.183c.215.275.483.494.679.773.222.259.339.579.535.842a3.867,3.867,0,0,1,.392.88,1.408,1.408,0,0,1,.147.446c.008.038.015.076.022.114s.013.076.021.114a1.889,1.889,0,0,0,.06.221,5.069,5.069,0,0,1,.119.882,4.235,4.235,0,0,0,0,.851c-.007.139-.013.275-.02.41a1.663,1.663,0,0,1-.021.2,1.1,1.1,0,0,1-.06.192c-.013.065-.028.128-.043.191s-.038.124-.055.185-.036.122-.05.183-.024.123-.036.184a1.678,1.678,0,0,1-.156.333.551.551,0,0,0-.1.341.654.654,0,0,1-.03.081.716.716,0,0,1-.043.075c-.031.049-.064.1-.1.143a1.056,1.056,0,0,0-.083.144.531.531,0,0,0-.053.157.688.688,0,0,1-.139.288c-.068.081-.142.155-.2.237s-.117.159-.176.234-.116.149-.175.218A6.135,6.135,0,0,1,51.8,53.08l-.132.078c-.042.025-.08.047-.118.065-.075.036-.138.067-.189.09-.1.046-.158.065-.165.054s.049-.059.161-.138c.055-.041.127-.086.207-.145l.277-.209c.1-.08.212-.177.336-.278.06-.053.119-.112.182-.171s.131-.118.193-.189l.2-.213c.036-.035.066-.076.1-.116l.1-.122.1-.125.1-.136c.065-.093.138-.183.2-.286.051-.081.09-.172.136-.259a.9.9,0,0,1,.165-.255,1.3,1.3,0,0,0,.07-.139l.057-.149c.02-.05.041-.1.065-.147.012-.025.025-.048.038-.072s.025-.049.039-.072a.793.793,0,0,1,.089-.325c.041-.105.094-.209.132-.32.019-.056.034-.113.049-.17l.048-.173a1.364,1.364,0,0,0,.04-.178,1.8,1.8,0,0,0,.017-.184.979.979,0,0,1,.016-.186c.008-.062.016-.124.028-.187a1.375,1.375,0,0,0,.033-.384,1.614,1.614,0,0,0-.018-.8,2.72,2.72,0,0,0-.127-.823,1.74,1.74,0,0,0-.247-.829,8.174,8.174,0,0,0-.378-.813,6.014,6.014,0,0,0-.507-.775c-.219-.228-.437-.454-.638-.709-.249-.206-.487-.429-.759-.619-.288-.164-.558-.362-.868-.5-.156-.066-.3-.152-.46-.224a1.32,1.32,0,0,0-.5-.137c-.167-.042-.335-.085-.506-.122l-.258-.048c-.087-.011-.174-.02-.262-.028a4.1,4.1,0,0,0-1.064-.021,1.5,1.5,0,0,0-.273-.018,2.7,2.7,0,0,0-.27.031c-.089.019-.177.042-.265.066s-.174.057-.261.085c-.346.111-.69.214-1.022.349-.159.082-.324.151-.476.243l-.233.128-.223.143c-.143.1-.283.207-.427.307a1.756,1.756,0,0,0-.2.162,2.454,2.454,0,0,0-.188.181c-.056.066-.113.131-.174.191-.03.03-.062.06-.093.089a1.253,1.253,0,0,0-.092.09c-.058.062-.117.125-.173.189-.028.032-.055.065-.082.1s-.047.071-.068.108q-.067.108-.136.213l-.035.052-.031.054-.065.108c-.044.071-.088.141-.136.209s-.087.141-.135.209c-.02.036-.04.072-.061.108s-.043.071-.062.107l-.115.218a1.3,1.3,0,0,0-.15.465c-.012.038-.022.078-.031.117s-.013.08-.019.12c-.012.08-.023.159-.038.236-.007.039-.017.077-.025.116a1.018,1.018,0,0,1-.027.115.909.909,0,0,1-.1.221c-.01.078-.016.156-.028.232s-.027.153-.042.23a1.314,1.314,0,0,0-.027.23,1.356,1.356,0,0,0,.007.23.688.688,0,0,0-.028.114,1.054,1.054,0,0,0-.01.114,1.253,1.253,0,0,0,.011.226c.01.075.02.149.034.223s.027.146.034.219a2.723,2.723,0,0,0,.164.85,1.743,1.743,0,0,1,.072.2c.022.066.041.134.058.2a3.056,3.056,0,0,0,.138.389.873.873,0,0,1,.049.09c.016.03.031.059.045.09.027.062.05.125.072.188a1.433,1.433,0,0,0,.075.185.816.816,0,0,0,.113.162c.03.057.062.114.1.169a.7.7,0,0,0,.053.08l.055.078c.037.052.073.1.108.155s.067.106.1.155a.63.63,0,0,1,.263.257l.023.039.025.038.049.075a1.424,1.424,0,0,0,.106.144.9.9,0,0,0,.123.123l.139.1a1.084,1.084,0,0,1,.128.11.81.81,0,0,1,.1.136.674.674,0,0,1,.278.172c.02.018.038.037.057.057l.058.054c.038.036.076.072.116.106a.979.979,0,0,0,.124.09l.065.039.067.033a.922.922,0,0,1,.247.156.617.617,0,0,1,.134.049.975.975,0,0,1,.12.069,1.043,1.043,0,0,0,.234.133,2.486,2.486,0,0,0,.462.191,1.9,1.9,0,0,1,.427.14l.05.016.05.012.1.024.186.046.13.033c.043.009.085.015.125.022l.226.04c.14.03.26.039.357.052.194.025.3.045.3.062" transform="translate(-29.221 -28.889)"/>
      <path id="Path_957" data-name="Path 957" d="M69.062,83.966l.022.089,0,.014,0,.013c0,.008,0,0,0,.013l0,.012c0,.014-.007-.027,0,.012.02.08-.022-.089,0,.012l0,.011c-.015-.061,0,0,0,.01-.018-.074-.01-.042,0,.009-.025-.1-.021-.086,0,.009l0,.009c0,.006.006.025,0,.008.016.068.016.065,0,.007.018.073.011.044,0,.006s.016.064,0,.006v0c-.007-.03-.015-.064,0,0,0,.019.01.043,0,0,.019.077.011.043,0,0,0,.013-.011-.042,0,0,0-.012.008.035,0,0s-.011-.046,0,0-.005-.02,0,0c-.018-.073.005.024,0,0,0,.007-.01-.042,0,0,0,.013.007.027,0,0,.027.112-.007-.028,0,0-.012-.047,0,.007,0-.006.006.021-.012-.052,0-.007,0-.009.009.036,0-.007.014.055-.011-.047,0-.008,0,0,0,0,0-.008-.022-.087,0-.015,0-.009l0-.01c0-.007-.011-.045,0-.01,0,.013-.031-.127,0-.011.005.02-.022-.09,0-.012l0-.012,0-.012c-.009-.038-.02-.082-.032-.129l-.035-.141s-.016-.065,0-.012c0,0-.011-.046,0-.011-.02-.081,0-.015,0-.011s.006.022,0-.01.006.023,0-.009c.012.05.009.037,0-.009.012.049,0-.011,0-.009.018.075.006.022,0-.008s0,.012,0-.007c0,.014,0-.02,0-.007-.009-.035-.012-.048,0-.005v0c-.007-.03,0,0,0,0s.02.079,0,0c0-.01,0,.013,0,0,0,.01.005.021,0,0,.02.081.008.031,0,0s0-.012,0,0c0-.008,0,0,0,0-.006-.024.008.035,0,0s.009.037,0,0-.009-.037,0,0c0,0,.018.074,0,0,0-.016-.026-.108,0,.005-.007-.028.013.055,0,.007.02.083,0,0,0,.007s.011.044,0,.008l0,.008c-.012-.048.015.062,0,.009a.067.067,0,0,0,0,.01c-.028-.112,0,0,0,.01s-.018-.074,0,.011c-.02-.084,0-.011,0,.012l0,.012c-.015-.06.008.033,0,.012l0,.012,0,.013,0,.013.022.089" transform="translate(-48.577 -58.917)"/>
      <path id="Path_958" data-name="Path 958" d="M73.961,82.143l.043.081.007.012.006.012.006.012.006.012.006.011.005.01.005.01.005.009,0,.009,0,.008,0,.007,0,.007,0,.006,0,.006,0,0,0,0,0,0v0h0c-.006-.011.017.031,0,0s-.022-.041,0,0h0v0l0,0,0,0,0-.005,0-.006,0-.007,0-.007,0-.008,0-.008s0,0,0-.009l-.005-.009-.005-.01-.006-.01-.005-.011-.006-.011-.063-.117-.068-.128L73.886,82l-.005-.01-.005-.01-.005-.009,0-.009,0-.008,0-.007,0-.008,0-.006,0-.006,0,0,0,0,0,0v0h0c.04.074.015.028,0,0s-.006-.011,0,0h0v0l0,0,0,0,0,0,0,.006,0,.006,0,.007,0,.007,0,.008,0,.009.005.009.005.01.006.01.006.011.006.012c.009.016,0,.007.007.012l.006.012.007.012.043.08" transform="translate(-51.984 -57.665)"/>
      <path id="Path_959" data-name="Path 959" d="M57.624,56.37c.018.027-.061.116-.219.256l-.086.074a.423.423,0,0,1-.1.082c-.061-.01-.033.117-.112.091a.262.262,0,0,0-.124.1c-.037.043-.108.04-.135.1,0,.1-.151-.01-.147.112a.467.467,0,0,1-.157.118c-.091-.015-.115.075-.168.125-.1-.024-.144.044-.177.13-.121-.045-.176.011-.187.136-.064.047-.153.058-.2.141a.82.82,0,0,1-.2.146.2.2,0,0,1-.213.151c-.032.112-.123.137-.221.155s-.117.157-.228.159c-.081.048-.148.119-.235.162-.1.028-.2.053-.241.166a.518.518,0,0,1-.247.169c-.04.123-.144.149-.253.171-.078.068-.2.078-.258.174-.094.047-.155.146-.263.176a.481.481,0,0,0-.263.175c-.059.1-.185.1-.26.172-.127-.005-.157.134-.256.167-.08.062-.191.075-.251.164a.627.627,0,0,1-.246.159c-.016.149-.176.081-.24.154-.1.012-.151.11-.234.149a.3.3,0,0,1-.12.065l-.022.01-.026.013a.476.476,0,0,0-.049.03.432.432,0,0,0-.092.08c-.078.046-.155.115-.236.171a.69.69,0,0,1-.1-.167.387.387,0,0,1-.134-.175l-.025-.051-.013-.024-.011-.02a.1.1,0,0,0-.043-.045,1.6,1.6,0,0,1-.138-.2c.025-.117-.081-.134-.131-.191s-.13-.088-.124-.182c-.037-.062-.047-.141-.117-.173-.051-.046.025-.185-.109-.164-.055-.038,0-.155-.1-.154s-.062-.1-.093-.144l-.084-.133c-.239-.384-.358-.618-.319-.646s.274.193.636.605c.036.041.12.049.112.129.035.048.111.068.12.14.105,0,.09.094.127.151s.065.123.134.161.068.13.14.17a.2.2,0,0,0,.146.179c.007.093.1.121.152.188a.133.133,0,0,0,.009.071.068.068,0,0,1,0,.009.022.022,0,0,0,0,.006.023.023,0,0,0,.01.007.051.051,0,0,0,.048-.009c.009-.006.013,0,.016.006s.02,0,.028-.015a.013.013,0,0,0,.013,0l.005-.006,0,0v0l.006-.005a.518.518,0,0,1,.111-.079.335.335,0,0,1,.228-.159,1.1,1.1,0,0,1,.235-.162c.063-.079.164-.1.241-.166s.21-.042.247-.169c.078-.065.176-.1.253-.171A.953.953,0,0,0,52.9,59.2c.133.012.192-.09.263-.176a.925.925,0,0,1,.263-.175,2.326,2.326,0,0,1,.26-.171c.072-.078.19-.084.255-.167s.188-.08.251-.164a.446.446,0,0,1,.246-.159c.08-.054.2-.043.24-.154.069-.066.094-.2.234-.149.06-.075.182-.054.228-.144.121.022.148-.093.221-.138a.41.41,0,0,0,.214-.133c.046-.08.148-.072.206-.127.038-.084.165-.033.2-.12.068-.033.119-.088.188-.114,0-.136.118-.078.18-.107s.068-.137.17-.1c0-.108.1-.079.159-.092s.076-.095.149-.084c.011-.082.108-.031.138-.077.064.006.083-.052.126-.068a.156.156,0,0,1,.114-.06l.1-.051c.191-.093.3-.131.321-.1" transform="translate(-34.93 -39.684)"/>
    </g>
  </g>
</svg>
